<?xml version="1.0" encoding="UTF-8" standalone="no"?>
<!-- Uploaded to: SVG Repo, www.svgrepo.com, Generator: SVG Repo Mixer Tools -->

<svg
   width="100px"
   height="100px"
   fill="none"
   version="1.1"
   id="search-icon"
   sodipodi:docname="blacklist-icon.svg"
   inkscape:version="1.3.2 (091e20e, 2023-11-25, custom)"
   xmlns:inkscape="http://www.inkscape.org/namespaces/inkscape"
   xmlns:sodipodi="http://sodipodi.sourceforge.net/DTD/sodipodi-0.dtd"
   xmlns="http://www.w3.org/2000/svg"
   xmlns:svg="http://www.w3.org/2000/svg">
  <defs
     id="defs1">
                
                
                
                
                
                
            
                
                
                
                
                
                
            </defs>
  <sodipodi:namedview
     id="namedview1"
     pagecolor="#ffffff"
     bordercolor="#111111"
     borderopacity="1"
     inkscape:showpageshadow="0"
     inkscape:pageopacity="0"
     inkscape:pagecheckerboard="1"
     inkscape:deskcolor="#d1d1d1"
     inkscape:zoom="2.3762402"
     inkscape:cx="11.993737"
     inkscape:cy="73.014504"
     inkscape:current-layer="search-icon" />
  <g
     id="g2"
     transform="translate(37.610875,-57.141155)">
    <path
       id="rect1"
       style="fill:#000000;fill-rule:evenodd;stroke:none;stroke-width:0.947083px"
       d="M -15.75858,60 H 25.75858 C 30.32432,60 34,63.675673 34,68.24142 v 68.51716 C 34,141.32433 30.32432,145 25.75858,145 H -15.75858 C -20.32432,145 -24,141.32433 -24,136.75858 V 68.24142 C -24,63.675673 -20.32432,60 -15.75858,60 Z" />
    <g
       id="g15"
       style="fill:#ececec;stroke:none"
       transform="matrix(2.892529,0,0,2.892529,-761.72651,14.477434)">
                    <path
   id="path839"
   style="opacity:0.5;fill:#e6e6e6;fill-rule:evenodd;stroke:none;stroke-width:0.0726256;stroke-linecap:round;stroke-linejoin:round;paint-order:stroke fill markers"
   d="m 261.5935,20.996605 a 2.0743091,2.0743093 0 0 1 -2.07431,2.074309 2.0743091,2.0743093 0 0 1 -2.07431,-2.074309 2.0743091,2.0743093 0 0 1 2.07431,-2.074309 2.0743091,2.0743093 0 0 1 2.07431,2.074309 z" />

                    <path
   id="ellipse8"
   style="opacity:0.5;fill-rule:evenodd;stroke:none;stroke-width:0.0726256;stroke-linecap:round;stroke-linejoin:round;paint-order:stroke fill markers"
   d="m 261.5935,25.803326 a 2.0743091,2.0743093 0 0 1 -2.07431,2.074309 2.0743091,2.0743093 0 0 1 -2.07431,-2.074309 2.0743091,2.0743093 0 0 1 2.07431,-2.07431 2.0743091,2.0743093 0 0 1 2.07431,2.07431 z" />

                    <path
   id="ellipse9"
   style="opacity:0.5;fill-rule:evenodd;stroke:none;stroke-width:0.0726256;stroke-linecap:round;stroke-linejoin:round;paint-order:stroke fill markers"
   d="m 261.5935,30.610201 a 2.0743091,2.0743093 0 0 1 -2.07431,2.07431 2.0743091,2.0743093 0 0 1 -2.07431,-2.07431 2.0743091,2.0743093 0 0 1 2.07431,-2.074309 2.0743091,2.0743093 0 0 1 2.07431,2.074309 z" />

                    <path
   id="ellipse10"
   style="opacity:0.5;fill-rule:evenodd;stroke:none;stroke-width:0.0726256;stroke-linecap:round;stroke-linejoin:round;paint-order:stroke fill markers"
   d="m 261.5935,35.416771 a 2.0743091,2.0743093 0 0 1 -2.07431,2.074309 2.0743091,2.0743093 0 0 1 -2.07431,-2.074309 2.0743091,2.0743093 0 0 1 2.07431,-2.074309 2.0743091,2.0743093 0 0 1 2.07431,2.074309 z" />

                    <path
   id="ellipse11"
   style="opacity:0.5;fill-rule:evenodd;stroke:none;stroke-width:0.0726256;stroke-linecap:round;stroke-linejoin:round;paint-order:stroke fill markers"
   d="m 261.5935,40.223492 a 2.0743091,2.0743093 0 0 1 -2.07431,2.074309 2.0743091,2.0743093 0 0 1 -2.07431,-2.074309 2.0743091,2.0743093 0 0 1 2.07431,-2.07431 2.0743091,2.0743093 0 0 1 2.07431,2.07431 z" />

                    <path
   id="rect11"
   style="opacity:0.5;fill-rule:evenodd;stroke:none;stroke-width:0.0537306px"
   d="m 263.22511,20.202085 h 8.83455 c 0.3189,0 0.57563,0.256733 0.57563,0.575634 v 0.437772 c 0,0.3189 -0.25673,0.575633 -0.57563,0.575633 h -8.83455 c -0.3189,0 -0.57563,-0.256733 -0.57563,-0.575633 v -0.437772 c 0,-0.318901 0.25673,-0.575634 0.57563,-0.575634 z" />

                    <path
   id="path840"
   style="opacity:0.5;fill-rule:evenodd;stroke:none;stroke-width:0.0537306px"
   d="m 263.22511,25.008806 h 8.83455 c 0.3189,0 0.57563,0.256733 0.57563,0.575633 v 0.437772 c 0,0.318901 -0.25673,0.575633 -0.57563,0.575633 h -8.83455 c -0.3189,0 -0.57563,-0.256732 -0.57563,-0.575633 v -0.437772 c 0,-0.3189 0.25673,-0.575633 0.57563,-0.575633 z" />

                    <path
   id="path841"
   style="opacity:0.5;fill-rule:evenodd;stroke:none;stroke-width:0.0537306px"
   d="m 263.22511,29.815529 h 8.83455 c 0.3189,0 0.57563,0.256732 0.57563,0.575633 v 0.437772 c 0,0.318901 -0.25673,0.575633 -0.57563,0.575633 h -8.83455 c -0.3189,0 -0.57563,-0.256732 -0.57563,-0.575633 v -0.437772 c 0,-0.318901 0.25673,-0.575633 0.57563,-0.575633 z" />

                    <path
   id="rect14"
   style="opacity:0.5;fill-rule:evenodd;stroke:none;stroke-width:0.0537306px"
   d="m 263.22511,34.622253 h 8.83455 c 0.3189,0 0.57563,0.256733 0.57563,0.575634 v 0.437771 c 0,0.318901 -0.25673,0.575634 -0.57563,0.575634 h -8.83455 c -0.3189,0 -0.57563,-0.256733 -0.57563,-0.575634 v -0.437771 c 0,-0.318901 0.25673,-0.575634 0.57563,-0.575634 z" />

                    <path
   id="rect15"
   style="opacity:0.5;fill-rule:evenodd;stroke:none;stroke-width:0.0537306px"
   d="m 263.22511,39.428974 h 8.83455 c 0.3189,0 0.57563,0.256733 0.57563,0.575633 v 0.437772 c 0,0.318901 -0.25673,0.575633 -0.57563,0.575633 h -8.83455 c -0.3189,0 -0.57563,-0.256732 -0.57563,-0.575633 v -0.437772 c 0,-0.3189 0.25673,-0.575633 0.57563,-0.575633 z" />

                </g>
    <path
       id="path842"
       d="M 48.77825,131.87605 A 22.406257,22.406257 0 0 1 26.372,154.28231 22.406257,22.406257 0 0 1 3.96575,131.87605 22.406257,22.406257 0 0 1 26.372,109.46979 22.406257,22.406257 0 0 1 48.77825,131.87605 Z"
       fill-opacity="1"
       fill="#767676" />
    <path
       d="m 20.96851,131.88072 c 0.1048,2.69242 -1.25891,5.57073 -3.85166,6.62123 -2.5455,0.98363 -5.70264,0.8912 -7.94978,-0.7721 -2.58929,-1.99004 -3.01654,-5.73 -2.11759,-8.68289 0.76706,-2.5608 3.30092,-4.29597 5.92981,-4.38399 2.6003,-0.26585 5.51507,0.63317 6.91214,2.98124 0.79156,1.25748 1.08035,2.76764 1.07708,4.23651 z m -4.75433,3.52138 c 1.25936,-1.64283 1.24487,-3.97295 0.66274,-5.87461 -0.50246,-1.81063 -2.65455,-2.78113 -4.36159,-2.02748 -2.06346,0.91994 -2.32683,3.55777 -2.08761,5.53193 0.1256,1.75582 1.47354,3.56234 3.3766,3.463 0.91444,0.009 1.83424,-0.36888 2.40986,-1.09284 z m 17.45744,-7.79 c -2.13275,0 -4.26551,0 -6.39826,0 0,0.86244 0,1.72488 0,2.58733 1.97708,0 3.95416,0 5.93124,0 0,0.89669 0,1.79338 0,2.69007 -1.97708,0 -3.95416,0 -5.93124,0 0,1.98019 0,3.96038 0,5.94057 -1.18936,0 -2.37872,0 -3.56808,0 0,-4.63601 0,-9.27203 0,-13.90804 3.32211,0 6.64423,0 9.96634,0 0,0.89669 0,1.79338 0,2.69007 z m 12.44159,0 c -2.13276,0 -4.26551,0 -6.39827,0 0,0.86244 0,1.72488 0,2.58733 1.97708,0 3.95416,0 5.93124,0 0,0.89669 0,1.79338 0,2.69007 -1.97708,0 -3.95416,0 -5.93124,0 0,1.98019 0,3.96038 0,5.94057 -1.18936,0 -2.37872,0 -3.56808,0 0,-4.63601 0,-9.27203 0,-13.90804 3.32212,0 6.64423,0 9.96635,0 0,0.89669 0,1.79338 0,2.69007 z"
       id="blacklistOff"
       fill="#000000"
       fill-opacity="1" />
    <path
       id="blacklistBlueParking"
       d="M 46.95405,131.87606 A 20.582038,20.582038 0 0 1 26.37201,152.45809 20.582038,20.582038 0 0 1 5.78995,131.87606 20.582038,20.582038 0 0 1 26.37201,111.29402 20.582038,20.582038 0 0 1 46.95405,131.87606 Z"
       fill-opacity="1"
       fill="#0000ff" />
    <path
       id="blacklistNoParking"
       d="M 26.3708,110.69557 A 21.180851,21.180851 0 0 0 5.19152,131.87724 21.180851,21.180851 0 0 0 26.3708,153.05653 21.180851,21.180851 0 0 0 47.55248,131.87724 21.180851,21.180851 0 0 0 26.3708,110.69557 Z m 0,5.57337 a 15.606942,15.606942 0 0 1 15.60832,15.6083 15.606942,15.606942 0 0 1 -2.83073,8.86121 L 17.69053,118.97349 a 15.606942,15.606942 0 0 1 8.68027,-2.70455 z m -13.71557,8.23269 20.89121,21.18405 a 15.606942,15.606942 0 0 1 -7.17564,1.79748 15.606942,15.606942 0 0 1 -15.60592,-15.60592 15.606942,15.606942 0 0 1 1.89035,-7.37561 z"
       fill="#ff0000"
       fill-opacity="1" />
  </g>
</svg>
