<?xml version="1.0" encoding="UTF-8" standalone="no"?>
<svg
   version="1.0"
   width="100px"
   height="100px"
   id="copy-icon"
   sodipodi:docname="copy-icon.svg"
   inkscape:version="1.3.2 (091e20e, 2023-11-25, custom)"
   xml:space="preserve"
   xmlns:inkscape="http://www.inkscape.org/namespaces/inkscape"
   xmlns:sodipodi="http://sodipodi.sourceforge.net/DTD/sodipodi-0.dtd"
   xmlns="http://www.w3.org/2000/svg"
   xmlns:svg="http://www.w3.org/2000/svg"><defs
     id="defs2" /><sodipodi:namedview
     id="namedview2"
     pagecolor="#ffffff"
     bordercolor="#111111"
     borderopacity="1"
     inkscape:showpageshadow="0"
     inkscape:pageopacity="0"
     inkscape:pagecheckerboard="1"
     inkscape:deskcolor="#d1d1d1"
     inkscape:zoom="1.6802555"
     inkscape:cx="65.168659"
     inkscape:cy="44.338494"
     inkscape:current-layer="g2" /><metadata
     id="metadata1" /><g
     transform="matrix(0.1,0,0,-0.1,-627.94301,668.07594)"
     fill="#000000"
     stroke="none"
     id="g2"><circle
       style="opacity:0;fill:#313043;fill-rule:evenodd;stroke-width:2.34946;stroke-linecap:round;stroke-linejoin:round;paint-order:stroke fill markers;fill-opacity:1"
       id="path2"
       cx="6779.4302"
       cy="-6180.7593"
       transform="scale(1,-1)"
       r="500" /><path
       id="path23"
       style="fill:none;fill-rule:evenodd;stroke:#49bbaa;stroke-width:44.7899"
       d="m 6516.9789,6525.3688 c -33.6231,0 -60.6836,-25.2141 -60.6836,-56.5234 v -394.1993 c 0,-31.3093 27.0605,-56.5234 60.6836,-56.5234 h 93.9843 v 313.3203 c 0,34.0999 27.4431,61.543 61.543,61.543 h 260.4297 v 75.8594 c 0,31.3093 -27.0801,56.5234 -60.7031,56.5234 z m 163.75,-136.7774 c -34.0999,0 -61.5625,-27.4626 -61.5625,-61.5625 V 5897.693 c 0,-34.0999 27.4626,-61.543 61.5625,-61.543 h 360.2929 c 34.0999,0 61.543,27.4431 61.543,61.543 v 429.3359 c 0,34.0999 -27.4431,61.5625 -61.543,61.5625 z" /></g></svg>
