<?xml version="1.0" encoding="UTF-8" standalone="no"?>
<!-- Created with Inkscape (http://www.inkscape.org/) -->

<svg
   width="600"
   height="800"
   version="1.1"
   id="database_view"
   inkscape:version="1.3.2 (091e20e, 2023-11-25, custom)"
   sodipodi:docname="database_view.svg"
   xmlns:inkscape="http://www.inkscape.org/namespaces/inkscape"
   xmlns:sodipodi="http://sodipodi.sourceforge.net/DTD/sodipodi-0.dtd"
   xmlns="http://www.w3.org/2000/svg"
   xmlns:svg="http://www.w3.org/2000/svg">
  <sodipodi:namedview
     id="namedview1"
     pagecolor="#ffffff"
     bordercolor="#111111"
     borderopacity="1"
     inkscape:showpageshadow="0"
     inkscape:pageopacity="0"
     inkscape:pagecheckerboard="1"
     inkscape:deskcolor="#d1d1d1"
     inkscape:document-units="px"
     inkscape:zoom="1.2583656"
     inkscape:cx="344.89181"
     inkscape:cy="183.96879"
     inkscape:current-layer="layer1" />
  <defs
     id="defs1" />
  <g
     inkscape:label="Layer 1"
     inkscape:groupmode="layer"
     id="layer1">
    <g
       id="g5"
       transform="matrix(0.53261635,0,0,0.53261635,-72.014214,-4.5241823)">
      <g
         id="g31"
         transform="matrix(1.1194929,0,0,1.1194929,-30.850775,-9.5906951)"
         style="stroke-width:0.893262">
        <g
           id="g30"
           style="stroke-width:0.893262">
          <path
             d="m 193.10623,37.901397 c -4.68103,0 -8.56297,4.171419 -8.56297,8.852448 0.0773,1.331578 -0.20263,4.5583 0.13772,5.438646 1.39395,3.605583 5.58965,3.258742 6.97629,0 0.39615,-0.930988 0.13241,-4.006846 0.1552,-5.438646 0,-0.779537 0.51575,-1.63195 1.29376,-1.583237 l 42.98097,-0.08948 c 4.02628,4.426917 8.20893,8.284606 12.37247,12.377141 l -0.24161,57.194001 c -0.004,0.77954 -0.51422,1.29376 -1.29376,1.29376 h -53.81807 c -0.77954,0 -1.29376,-0.51422 -1.29376,-1.29376 v -2.06208 c 0,0 -1.05792,-2.4957 -3.79183,-2.59219 -2.34796,0.0965 -3.47738,2.59219 -3.47738,2.59219 v 2.06208 c 0,4.68103 3.88194,8.56297 8.56297,8.56297 h 53.81807 c 4.68103,0 8.60846,-3.06318 8.60846,-7.74422 V 60.791896 c 0,-4.667416 -1.63301,-7.131672 -4.5031,-9.720838 0,0 -7.43222,-7.807552 -7.53875,-7.891159 -3.32845,-3.146386 -4.77295,-5.278502 -9.68942,-5.278502 z"
             style="fill:#000000;fill-rule:evenodd;stroke-width:0.89326"
             id="path18" />
          <path
             d="m 229.7969,47.448123 v 8.815603 c 0,3.738447 3.09825,6.8367 6.8367,6.8367 3.30414,-0.0086 8.49905,-4.5e-4 8.49905,-0.01184 0,0 1.42118,-0.885662 1.42118,-2.705421 -0.0353,-1.731421 -1.40395,-2.92967 -1.40395,-2.92967 h -8.51631 c -0.70773,0 -1.18977,-0.482042 -1.18977,-1.18977 v -8.789611 c 0,0 -0.78769,-1.06266 -2.69578,-1.097995 -1.51941,-0.03534 -2.95112,1.072 -2.95112,1.072 z"
             style="fill:#000000;fill-opacity:1;fill-rule:evenodd;stroke-width:0.89326"
             id="path26" />
        </g>
        <g
           id="g29"
           style="stroke-width:0.893262">
          <path
             id="path14"
             style="fill-rule:evenodd;stroke:#000000;stroke-width:1.78652;stroke-linecap:round;stroke-linejoin:round;stroke-dasharray:none;paint-order:stroke fill markers"
             d="m 197.42151,59.069095 c -5.56026,0 -10.58626,0.390522 -14.39776,1.068262 -1.90575,0.33887 -3.49423,0.729169 -4.84504,1.297049 -0.67541,0.283939 -1.30464,0.601485 -1.92484,1.140418 -0.62021,0.538932 -1.32087,1.48093 -1.32087,2.682095 h 2.89009 a 19.597951,3.484805 0 0 1 19.59655,-3.484611 19.597951,3.484805 0 0 1 19.59842,3.484611 h 2.89009 c 0,-1.201165 -0.70067,-2.143163 -1.32086,-2.682095 -0.62021,-0.538933 -1.24757,-0.856479 -1.92297,-1.140418 -1.35081,-0.56788 -2.9393,-0.958179 -4.84503,-1.297049 -3.8115,-0.67774 -8.83748,-1.068262 -14.39778,-1.068262 z m -22.52237,6.25118 c 0,1.201164 0.70065,2.14316 1.32086,2.682094 0.6202,0.538931 1.24944,0.856477 1.92485,1.140418 1.35081,0.567878 2.93929,0.95818 4.84503,1.29705 3.8115,0.677738 8.8375,1.068262 14.39777,1.068262 5.56027,0 10.58627,-0.390524 14.39776,-1.068262 1.90575,-0.33887 3.49424,-0.729172 4.84505,-1.29705 0.67538,-0.283941 1.30274,-0.601487 1.92296,-1.140418 0.6202,-0.538934 1.32086,-1.48093 1.32086,-2.682094 h -2.89009 a 19.597951,3.484805 0 0 1 -19.59843,3.484611 19.597951,3.484805 0 0 1 -19.59653,-3.484611 z m 0.0583,11.749122 c 0,1.201161 0.70066,2.143161 1.32087,2.682093 0.62021,0.538933 1.24944,0.856477 1.92484,1.140418 1.35081,0.567878 2.93929,0.958181 4.84504,1.29705 3.8115,0.677738 8.83751,1.068262 14.39777,1.068262 5.56029,0 10.58627,-0.390524 14.39777,-1.068262 1.90572,-0.338869 3.49422,-0.729172 4.84503,-1.29705 0.67541,-0.283941 1.30276,-0.601485 1.92297,-1.140418 0.6202,-0.538932 1.12894,-1.458052 1.12894,-2.659215 l -2.54388,-0.02288 c -6.1e-4,1.924556 -8.92933,3.484656 -19.75271,3.48461 -10.82266,-1.38e-4 -19.80103,-1.560185 -19.80164,-3.48461 z m -0.0527,11.74912 c 0,1.201164 0.70064,2.143161 1.32086,2.682095 0.6202,0.538931 1.24944,0.856477 1.92484,1.140418 1.35079,0.567878 2.9393,0.958179 4.84504,1.29705 3.8115,0.677737 8.8375,1.068262 14.39777,1.068262 5.56027,0 10.58626,-0.390525 14.39776,-1.068262 1.90575,-0.338871 3.49424,-0.729172 4.84505,-1.29705 0.67538,-0.283941 1.30274,-0.601487 1.92295,-1.140418 0.62021,-0.538934 1.20044,-1.458054 1.20044,-2.659215 l -2.63231,-0.02288 c -6.1e-4,1.924558 -8.91239,3.484657 -19.73578,3.484611 -10.82265,-1.37e-4 -19.79914,-1.560183 -19.79974,-3.484611 z m -0.0339,11.750883 c 0,1.20116 0.70064,2.14316 1.32086,2.68209 0.6202,0.53893 1.24944,0.85648 1.92484,1.14042 1.35081,0.56788 2.93929,0.95817 4.84505,1.29705 3.81148,0.67774 8.83751,1.06826 14.39776,1.06826 5.56027,0 10.58628,-0.39052 14.39776,-1.06826 1.90575,-0.33888 3.49424,-0.72917 4.84504,-1.29705 0.67541,-0.28394 1.30275,-0.60149 1.92296,-1.14042 0.62021,-0.53893 1.32087,-1.39117 1.32087,-2.59234 l -0.0113,-0.0616 -2.74145,-0.0281 c -6e-4,1.92456 -8.91237,3.48466 -19.73577,3.48461 -10.82265,-1.4e-4 -19.81797,-1.56018 -19.81857,-3.48461 z" />
          <path
             style="fill:none;fill-rule:evenodd;stroke:#000000;stroke-width:0.893261px;stroke-linecap:butt;stroke-linejoin:miter;stroke-opacity:1"
             d="m 216.62703,65.571201 3.95447,0.04511"
             id="path25" />
          <rect
             style="fill:#000000;fill-rule:evenodd;stroke:none;stroke-width:0.893261px;stroke-linecap:butt;stroke-linejoin:miter;stroke-opacity:1"
             id="rect27"
             width="4.7152872"
             height="38.130962"
             x="173.9127"
             y="63.933331"
             ry="1.8927754"
             rx="2.0494597" />
          <rect
             style="fill:#000000;fill-rule:evenodd;stroke:none;stroke-width:0.893261px;stroke-linecap:butt;stroke-linejoin:miter;stroke-opacity:1"
             id="rect28"
             width="4.7152872"
             height="38.469265"
             x="216.1339"
             y="63.933331"
             ry="1.9095684"
             rx="2.0494597" />
        </g>
      </g>
    </g>
    <g
       id="gFolder"
       transform="matrix(0.39602423,0,0,0.39602423,81.60289,45.313286)">
  <path
   id="folder"
   style="fill:#000000;stroke-width:1"
   d="m 8.2096354,15.937251 c -3.684821,0.106438 -6.9968662,3.13338 -7.43003115,6.794763 -0.1709921,2.31573 -0.0257476,4.647276 -0.073788,6.968977 0.0102781,15.646812 -0.0205506,31.294463 0.0154043,46.940751 0.32415335,3.498356 1.95496095,7.286179 6.98911725,7.407178 22.8074382,0.548192 45.5703492,0.138074 68.3903932,0.09509 4.11774,-0.236843 7.914385,-3.250229 9.309069,-7.114895 4.702822,-10.714497 14.108816,-32.143337 14.108816,-32.143337 0,0 0.20273,-5.873921 -4.981363,-6.928083 -1.898118,-0.386632 -3.854252,-0.118653 -5.776998,-0.198331 h -9.894951 c -0.07561,-2.023738 0.167122,-4.071066 -0.165596,-6.076995 -0.367485,-2.236629 -2.105443,-4.128988 -4.300043,-4.690885 -2.688714,-0.764734 -5.518014,-0.367954 -8.272157,-0.45606 -8.481703,0.01342 -16.96463,0.02054 -25.44561,-0.03853 -1.22374,-0.01177 -2.436757,-0.671863 -2.874357,-1.858813 -1.024182,-2.420396 -1.74762,-5.173451 -3.913247,-6.87139 -2.054135,-1.711419 -4.853928,-1.92638 -7.4167,-1.837146 -6.08928,0.0052 -12.178846,-0.01033 -18.2679586,0.0077 z m 19.6115986,7.540403 c 0.876139,-0.106582 1.65057,0.460799 1.908636,1.286331 1.008783,2.506952 1.858707,5.281003 4.052359,7.038626 2.418538,2.046799 5.736731,2.362461 8.780149,2.267425 9.546183,0.0071 19.103427,-0.0041 28.648205,0.01675 0.0107,1.013254 0.06429,2.508487 0.10854,3.672583 -15.530279,0.01001 -31.061444,-0.02 -46.591169,0.01499 -4.116887,0.23809 -7.89594,3.160973 -9.289525,7.026324 -2.394836,5.454536 -4.78967,10.909067 -7.1845062,16.363599 0.012845,-12.491047 -0.025685,-24.986538 0.019255,-37.474809 0.044183,-0.319974 0.2080127,-0.292158 0.5480544,-0.264906 l 19.0000018,0.0531 z m 63.327073,21.74702 c -4.376802,9.955088 -8.732611,19.919969 -13.122537,29.868936 -0.644472,1.050353 -1.888095,1.702149 -3.124377,1.513472 H 9.6980758 C 14.092924,66.629608 18.437793,56.627196 22.863847,46.66529 c 0.659801,-1.009057 1.874281,-1.623052 3.083068,-1.440616 z" />

 </g>
    <g
       id="g1"
       transform="matrix(0.39602423,0,0,0.39602423,78.231342,118.72976)">
  <path
   id="path1"
   style="fill:#000000;stroke-width:1"
   d="m 8.2096354,15.937251 c -3.684821,0.106438 -6.9968662,3.13338 -7.43003115,6.794763 -0.1709921,2.31573 -0.0257476,4.647276 -0.073788,6.968977 0.0102781,15.646812 -0.0205506,31.294463 0.0154043,46.940751 0.32415335,3.498356 1.95496095,7.286179 6.98911725,7.407178 22.8074382,0.548192 45.5703492,0.138074 68.3903932,0.09509 4.11774,-0.236843 7.914385,-3.250229 9.309069,-7.114895 4.702822,-10.714497 14.108816,-32.143337 14.108816,-32.143337 0,0 0.20273,-5.873921 -4.981363,-6.928083 -1.898118,-0.386632 -3.854252,-0.118653 -5.776998,-0.198331 h -9.894951 c -0.07561,-2.023738 0.167122,-4.071066 -0.165596,-6.076995 -0.367485,-2.236629 -2.105443,-4.128988 -4.300043,-4.690885 -2.688714,-0.764734 -5.518014,-0.367954 -8.272157,-0.45606 -8.481703,0.01342 -16.96463,0.02054 -25.44561,-0.03853 -1.22374,-0.01177 -2.436757,-0.671863 -2.874357,-1.858813 -1.024182,-2.420396 -1.74762,-5.173451 -3.913247,-6.87139 -2.054135,-1.711419 -4.853928,-1.92638 -7.4167,-1.837146 -6.08928,0.0052 -12.178846,-0.01033 -18.2679586,0.0077 z m 19.6115986,7.540403 c 0.876139,-0.106582 1.65057,0.460799 1.908636,1.286331 1.008783,2.506952 1.858707,5.281003 4.052359,7.038626 2.418538,2.046799 5.736731,2.362461 8.780149,2.267425 9.546183,0.0071 19.103427,-0.0041 28.648205,0.01675 0.0107,1.013254 0.06429,2.508487 0.10854,3.672583 -15.530279,0.01001 -31.061444,-0.02 -46.591169,0.01499 -4.116887,0.23809 -7.89594,3.160973 -9.289525,7.026324 -2.394836,5.454536 -4.78967,10.909067 -7.1845062,16.363599 0.012845,-12.491047 -0.025685,-24.986538 0.019255,-37.474809 0.044183,-0.319974 0.2080127,-0.292158 0.5480544,-0.264906 l 19.0000018,0.0531 z m 63.327073,21.74702 c -4.376802,9.955088 -8.732611,19.919969 -13.122537,29.868936 -0.644472,1.050353 -1.888095,1.702149 -3.124377,1.513472 H 9.6980758 C 14.092924,66.629608 18.437793,56.627196 22.863847,46.66529 c 0.659801,-1.009057 1.874281,-1.623052 3.083068,-1.440616 z" />

 </g>
    <g
       id="g2"
       transform="matrix(0.39602423,0,0,0.39602423,79.684359,266.13836)">
  <path
   id="path2"
   style="fill:#000000;stroke-width:1"
   d="m 8.2096354,15.937251 c -3.684821,0.106438 -6.9968662,3.13338 -7.43003115,6.794763 -0.1709921,2.31573 -0.0257476,4.647276 -0.073788,6.968977 0.0102781,15.646812 -0.0205506,31.294463 0.0154043,46.940751 0.32415335,3.498356 1.95496095,7.286179 6.98911725,7.407178 22.8074382,0.548192 45.5703492,0.138074 68.3903932,0.09509 4.11774,-0.236843 7.914385,-3.250229 9.309069,-7.114895 4.702822,-10.714497 14.108816,-32.143337 14.108816,-32.143337 0,0 0.20273,-5.873921 -4.981363,-6.928083 -1.898118,-0.386632 -3.854252,-0.118653 -5.776998,-0.198331 h -9.894951 c -0.07561,-2.023738 0.167122,-4.071066 -0.165596,-6.076995 -0.367485,-2.236629 -2.105443,-4.128988 -4.300043,-4.690885 -2.688714,-0.764734 -5.518014,-0.367954 -8.272157,-0.45606 -8.481703,0.01342 -16.96463,0.02054 -25.44561,-0.03853 -1.22374,-0.01177 -2.436757,-0.671863 -2.874357,-1.858813 -1.024182,-2.420396 -1.74762,-5.173451 -3.913247,-6.87139 -2.054135,-1.711419 -4.853928,-1.92638 -7.4167,-1.837146 -6.08928,0.0052 -12.178846,-0.01033 -18.2679586,0.0077 z m 19.6115986,7.540403 c 0.876139,-0.106582 1.65057,0.460799 1.908636,1.286331 1.008783,2.506952 1.858707,5.281003 4.052359,7.038626 2.418538,2.046799 5.736731,2.362461 8.780149,2.267425 9.546183,0.0071 19.103427,-0.0041 28.648205,0.01675 0.0107,1.013254 0.06429,2.508487 0.10854,3.672583 -15.530279,0.01001 -31.061444,-0.02 -46.591169,0.01499 -4.116887,0.23809 -7.89594,3.160973 -9.289525,7.026324 -2.394836,5.454536 -4.78967,10.909067 -7.1845062,16.363599 0.012845,-12.491047 -0.025685,-24.986538 0.019255,-37.474809 0.044183,-0.319974 0.2080127,-0.292158 0.5480544,-0.264906 l 19.0000018,0.0531 z m 63.327073,21.74702 c -4.376802,9.955088 -8.732611,19.919969 -13.122537,29.868936 -0.644472,1.050353 -1.888095,1.702149 -3.124377,1.513472 H 9.6980758 C 14.092924,66.629608 18.437793,56.627196 22.863847,46.66529 c 0.659801,-1.009057 1.874281,-1.623052 3.083068,-1.440616 z" />

 </g>
    <text
       xml:space="preserve"
       style="font-size:14.705px;font-family:Roboto;-inkscape-font-specification:'Roboto, Normal';opacity:0.85;fill:#000000;fill-rule:evenodd;stroke-width:0.347708;stroke-linecap:round;stroke-linejoin:round;paint-order:stroke fill markers"
       x="129.96625"
       y="69.376152"
       id="text2"><tspan
         sodipodi:role="line"
         id="tspan2"
         x="129.96625"
         y="69.376152"
         style="fill:#000000;stroke-width:0.347708">app settings</tspan></text>
    <text
       xml:space="preserve"
       style="font-size:14.705px;font-family:Roboto;-inkscape-font-specification:'Roboto, Normal';opacity:0.85;fill:#000000;fill-rule:evenodd;stroke-width:0.347708;stroke-linecap:round;stroke-linejoin:round;paint-order:stroke fill markers"
       x="126.5947"
       y="145.79791"
       id="text3"><tspan
         sodipodi:role="line"
         id="tspan3"
         x="126.5947"
         y="145.79791"
         style="fill:#000000;stroke-width:0.347708">user arrange favorites</tspan></text>
    <text
       xml:space="preserve"
       style="font-size:14.705px;font-family:Roboto;-inkscape-font-specification:'Roboto, Normal';opacity:0.85;fill:#000000;fill-rule:evenodd;stroke-width:0.347708;stroke-linecap:round;stroke-linejoin:round;paint-order:stroke fill markers"
       x="78.8311"
       y="264.45477"
       id="text4"><tspan
         sodipodi:role="line"
         id="tspan4"
         x="78.8311"
         y="264.45477"
         style="fill:#000000;stroke-width:0.347708">blacklist_db</tspan></text>
    <g
       id="g10"
       transform="matrix(0.53261635,0,0,0.53261635,-71.452288,212.4695)">
      <g
         id="g9"
         transform="matrix(1.1194929,0,0,1.1194929,-30.850775,-9.5906951)"
         style="stroke-width:0.893262">
        <g
           id="g6"
           style="stroke-width:0.893262">
          <path
             d="m 193.10623,37.901397 c -4.68103,0 -8.56297,4.171419 -8.56297,8.852448 0.0773,1.331578 -0.20263,4.5583 0.13772,5.438646 1.39395,3.605583 5.58965,3.258742 6.97629,0 0.39615,-0.930988 0.13241,-4.006846 0.1552,-5.438646 0,-0.779537 0.51575,-1.63195 1.29376,-1.583237 l 42.98097,-0.08948 c 4.02628,4.426917 8.20893,8.284606 12.37247,12.377141 l -0.24161,57.194001 c -0.004,0.77954 -0.51422,1.29376 -1.29376,1.29376 h -53.81807 c -0.77954,0 -1.29376,-0.51422 -1.29376,-1.29376 v -2.06208 c 0,0 -1.05792,-2.4957 -3.79183,-2.59219 -2.34796,0.0965 -3.47738,2.59219 -3.47738,2.59219 v 2.06208 c 0,4.68103 3.88194,8.56297 8.56297,8.56297 h 53.81807 c 4.68103,0 8.60846,-3.06318 8.60846,-7.74422 V 60.791896 c 0,-4.667416 -1.63301,-7.131672 -4.5031,-9.720838 0,0 -7.43222,-7.807552 -7.53875,-7.891159 -3.32845,-3.146386 -4.77295,-5.278502 -9.68942,-5.278502 z"
             style="fill:#000000;fill-rule:evenodd;stroke-width:0.89326"
             id="path4" />
          <path
             d="m 229.7969,47.448123 v 8.815603 c 0,3.738447 3.09825,6.8367 6.8367,6.8367 3.30414,-0.0086 8.49905,-4.5e-4 8.49905,-0.01184 0,0 1.42118,-0.885662 1.42118,-2.705421 -0.0353,-1.731421 -1.40395,-2.92967 -1.40395,-2.92967 h -8.51631 c -0.70773,0 -1.18977,-0.482042 -1.18977,-1.18977 v -8.789611 c 0,0 -0.78769,-1.06266 -2.69578,-1.097995 -1.51941,-0.03534 -2.95112,1.072 -2.95112,1.072 z"
             style="fill:#000000;fill-opacity:1;fill-rule:evenodd;stroke-width:0.89326"
             id="path5" />
        </g>
        <g
           id="g8"
           style="stroke-width:0.893262">
          <path
             id="path6"
             style="fill-rule:evenodd;stroke:#000000;stroke-width:1.78652;stroke-linecap:round;stroke-linejoin:round;stroke-dasharray:none;paint-order:stroke fill markers"
             d="m 197.42151,59.069095 c -5.56026,0 -10.58626,0.390522 -14.39776,1.068262 -1.90575,0.33887 -3.49423,0.729169 -4.84504,1.297049 -0.67541,0.283939 -1.30464,0.601485 -1.92484,1.140418 -0.62021,0.538932 -1.32087,1.48093 -1.32087,2.682095 h 2.89009 a 19.597951,3.484805 0 0 1 19.59655,-3.484611 19.597951,3.484805 0 0 1 19.59842,3.484611 h 2.89009 c 0,-1.201165 -0.70067,-2.143163 -1.32086,-2.682095 -0.62021,-0.538933 -1.24757,-0.856479 -1.92297,-1.140418 -1.35081,-0.56788 -2.9393,-0.958179 -4.84503,-1.297049 -3.8115,-0.67774 -8.83748,-1.068262 -14.39778,-1.068262 z m -22.52237,6.25118 c 0,1.201164 0.70065,2.14316 1.32086,2.682094 0.6202,0.538931 1.24944,0.856477 1.92485,1.140418 1.35081,0.567878 2.93929,0.95818 4.84503,1.29705 3.8115,0.677738 8.8375,1.068262 14.39777,1.068262 5.56027,0 10.58627,-0.390524 14.39776,-1.068262 1.90575,-0.33887 3.49424,-0.729172 4.84505,-1.29705 0.67538,-0.283941 1.30274,-0.601487 1.92296,-1.140418 0.6202,-0.538934 1.32086,-1.48093 1.32086,-2.682094 h -2.89009 a 19.597951,3.484805 0 0 1 -19.59843,3.484611 19.597951,3.484805 0 0 1 -19.59653,-3.484611 z m 0.0583,11.749122 c 0,1.201161 0.70066,2.143161 1.32087,2.682093 0.62021,0.538933 1.24944,0.856477 1.92484,1.140418 1.35081,0.567878 2.93929,0.958181 4.84504,1.29705 3.8115,0.677738 8.83751,1.068262 14.39777,1.068262 5.56029,0 10.58627,-0.390524 14.39777,-1.068262 1.90572,-0.338869 3.49422,-0.729172 4.84503,-1.29705 0.67541,-0.283941 1.30276,-0.601485 1.92297,-1.140418 0.6202,-0.538932 1.12894,-1.458052 1.12894,-2.659215 l -2.54388,-0.02288 c -6.1e-4,1.924556 -8.92933,3.484656 -19.75271,3.48461 -10.82266,-1.38e-4 -19.80103,-1.560185 -19.80164,-3.48461 z m -0.0527,11.74912 c 0,1.201164 0.70064,2.143161 1.32086,2.682095 0.6202,0.538931 1.24944,0.856477 1.92484,1.140418 1.35079,0.567878 2.9393,0.958179 4.84504,1.29705 3.8115,0.677737 8.8375,1.068262 14.39777,1.068262 5.56027,0 10.58626,-0.390525 14.39776,-1.068262 1.90575,-0.338871 3.49424,-0.729172 4.84505,-1.29705 0.67538,-0.283941 1.30274,-0.601487 1.92295,-1.140418 0.62021,-0.538934 1.20044,-1.458054 1.20044,-2.659215 l -2.63231,-0.02288 c -6.1e-4,1.924558 -8.91239,3.484657 -19.73578,3.484611 -10.82265,-1.37e-4 -19.79914,-1.560183 -19.79974,-3.484611 z m -0.0339,11.750883 c 0,1.20116 0.70064,2.14316 1.32086,2.68209 0.6202,0.53893 1.24944,0.85648 1.92484,1.14042 1.35081,0.56788 2.93929,0.95817 4.84505,1.29705 3.81148,0.67774 8.83751,1.06826 14.39776,1.06826 5.56027,0 10.58628,-0.39052 14.39776,-1.06826 1.90575,-0.33888 3.49424,-0.72917 4.84504,-1.29705 0.67541,-0.28394 1.30275,-0.60149 1.92296,-1.14042 0.62021,-0.53893 1.32087,-1.39117 1.32087,-2.59234 l -0.0113,-0.0616 -2.74145,-0.0281 c -6e-4,1.92456 -8.91237,3.48466 -19.73577,3.48461 -10.82265,-1.4e-4 -19.81797,-1.56018 -19.81857,-3.48461 z" />
          <path
             style="fill:none;fill-rule:evenodd;stroke:#000000;stroke-width:0.893261px;stroke-linecap:butt;stroke-linejoin:miter;stroke-opacity:1"
             d="m 216.62703,65.571201 3.95447,0.04511"
             id="path7" />
          <rect
             style="fill:#000000;fill-rule:evenodd;stroke:none;stroke-width:0.893261px;stroke-linecap:butt;stroke-linejoin:miter;stroke-opacity:1"
             id="rect7"
             width="4.7152872"
             height="38.130962"
             x="173.9127"
             y="63.933331"
             ry="1.8927754"
             rx="2.0494597" />
          <rect
             style="fill:#000000;fill-rule:evenodd;stroke:none;stroke-width:0.893261px;stroke-linecap:butt;stroke-linejoin:miter;stroke-opacity:1"
             id="rect8"
             width="4.7152872"
             height="38.469265"
             x="216.1339"
             y="63.933331"
             ry="1.9095684"
             rx="2.0494597" />
        </g>
      </g>
    </g>
    <text
       xml:space="preserve"
       style="font-size:14.705px;font-family:Roboto;-inkscape-font-specification:'Roboto, Normal';opacity:0.85;fill:#000000;fill-rule:evenodd;stroke-width:0.347708;stroke-linecap:round;stroke-linejoin:round;paint-order:stroke fill markers"
       x="76.021477"
       y="32.28912"
       id="text10"><tspan
         sodipodi:role="line"
         id="tspan10"
         x="76.021477"
         y="32.28912"
         style="fill:#000000;stroke-width:0.347708">app_db</tspan></text>
    <text
       xml:space="preserve"
       style="font-size:14.705px;font-family:Roboto;-inkscape-font-specification:'Roboto, Normal';opacity:0.85;fill:#000000;fill-rule:evenodd;stroke-width:0.347708;stroke-linecap:round;stroke-linejoin:round;paint-order:stroke fill markers"
       x="124.90892"
       y="294.79871"
       id="text11"><tspan
         sodipodi:role="line"
         id="tspan11"
         x="124.90892"
         y="294.79871"
         style="fill:#000000;stroke-width:0.347708">radio_1</tspan></text>
    <g
       id="g18"
       transform="matrix(0.53261635,0,0,0.53261635,-75.947687,332.72139)">
      <g
         id="g17"
         transform="matrix(1.1194929,0,0,1.1194929,-30.850775,-9.5906951)"
         style="stroke-width:0.893262">
        <g
           id="g12"
           style="stroke-width:0.893262">
          <path
             d="m 193.10623,37.901397 c -4.68103,0 -8.56297,4.171419 -8.56297,8.852448 0.0773,1.331578 -0.20263,4.5583 0.13772,5.438646 1.39395,3.605583 5.58965,3.258742 6.97629,0 0.39615,-0.930988 0.13241,-4.006846 0.1552,-5.438646 0,-0.779537 0.51575,-1.63195 1.29376,-1.583237 l 42.98097,-0.08948 c 4.02628,4.426917 8.20893,8.284606 12.37247,12.377141 l -0.24161,57.194001 c -0.004,0.77954 -0.51422,1.29376 -1.29376,1.29376 h -53.81807 c -0.77954,0 -1.29376,-0.51422 -1.29376,-1.29376 v -2.06208 c 0,0 -1.05792,-2.4957 -3.79183,-2.59219 -2.34796,0.0965 -3.47738,2.59219 -3.47738,2.59219 v 2.06208 c 0,4.68103 3.88194,8.56297 8.56297,8.56297 h 53.81807 c 4.68103,0 8.60846,-3.06318 8.60846,-7.74422 V 60.791896 c 0,-4.667416 -1.63301,-7.131672 -4.5031,-9.720838 0,0 -7.43222,-7.807552 -7.53875,-7.891159 -3.32845,-3.146386 -4.77295,-5.278502 -9.68942,-5.278502 z"
             style="fill:#000000;fill-rule:evenodd;stroke-width:0.89326"
             id="path11" />
          <path
             d="m 229.7969,47.448123 v 8.815603 c 0,3.738447 3.09825,6.8367 6.8367,6.8367 3.30414,-0.0086 8.49905,-4.5e-4 8.49905,-0.01184 0,0 1.42118,-0.885662 1.42118,-2.705421 -0.0353,-1.731421 -1.40395,-2.92967 -1.40395,-2.92967 h -8.51631 c -0.70773,0 -1.18977,-0.482042 -1.18977,-1.18977 v -8.789611 c 0,0 -0.78769,-1.06266 -2.69578,-1.097995 -1.51941,-0.03534 -2.95112,1.072 -2.95112,1.072 z"
             style="fill:#000000;fill-opacity:1;fill-rule:evenodd;stroke-width:0.89326"
             id="path12" />
        </g>
        <g
           id="g16"
           style="stroke-width:0.893262">
          <path
             id="path13"
             style="fill-rule:evenodd;stroke:#000000;stroke-width:1.78652;stroke-linecap:round;stroke-linejoin:round;stroke-dasharray:none;paint-order:stroke fill markers"
             d="m 197.42151,59.069095 c -5.56026,0 -10.58626,0.390522 -14.39776,1.068262 -1.90575,0.33887 -3.49423,0.729169 -4.84504,1.297049 -0.67541,0.283939 -1.30464,0.601485 -1.92484,1.140418 -0.62021,0.538932 -1.32087,1.48093 -1.32087,2.682095 h 2.89009 a 19.597951,3.484805 0 0 1 19.59655,-3.484611 19.597951,3.484805 0 0 1 19.59842,3.484611 h 2.89009 c 0,-1.201165 -0.70067,-2.143163 -1.32086,-2.682095 -0.62021,-0.538933 -1.24757,-0.856479 -1.92297,-1.140418 -1.35081,-0.56788 -2.9393,-0.958179 -4.84503,-1.297049 -3.8115,-0.67774 -8.83748,-1.068262 -14.39778,-1.068262 z m -22.52237,6.25118 c 0,1.201164 0.70065,2.14316 1.32086,2.682094 0.6202,0.538931 1.24944,0.856477 1.92485,1.140418 1.35081,0.567878 2.93929,0.95818 4.84503,1.29705 3.8115,0.677738 8.8375,1.068262 14.39777,1.068262 5.56027,0 10.58627,-0.390524 14.39776,-1.068262 1.90575,-0.33887 3.49424,-0.729172 4.84505,-1.29705 0.67538,-0.283941 1.30274,-0.601487 1.92296,-1.140418 0.6202,-0.538934 1.32086,-1.48093 1.32086,-2.682094 h -2.89009 a 19.597951,3.484805 0 0 1 -19.59843,3.484611 19.597951,3.484805 0 0 1 -19.59653,-3.484611 z m 0.0583,11.749122 c 0,1.201161 0.70066,2.143161 1.32087,2.682093 0.62021,0.538933 1.24944,0.856477 1.92484,1.140418 1.35081,0.567878 2.93929,0.958181 4.84504,1.29705 3.8115,0.677738 8.83751,1.068262 14.39777,1.068262 5.56029,0 10.58627,-0.390524 14.39777,-1.068262 1.90572,-0.338869 3.49422,-0.729172 4.84503,-1.29705 0.67541,-0.283941 1.30276,-0.601485 1.92297,-1.140418 0.6202,-0.538932 1.12894,-1.458052 1.12894,-2.659215 l -2.54388,-0.02288 c -6.1e-4,1.924556 -8.92933,3.484656 -19.75271,3.48461 -10.82266,-1.38e-4 -19.80103,-1.560185 -19.80164,-3.48461 z m -0.0527,11.74912 c 0,1.201164 0.70064,2.143161 1.32086,2.682095 0.6202,0.538931 1.24944,0.856477 1.92484,1.140418 1.35079,0.567878 2.9393,0.958179 4.84504,1.29705 3.8115,0.677737 8.8375,1.068262 14.39777,1.068262 5.56027,0 10.58626,-0.390525 14.39776,-1.068262 1.90575,-0.338871 3.49424,-0.729172 4.84505,-1.29705 0.67538,-0.283941 1.30274,-0.601487 1.92295,-1.140418 0.62021,-0.538934 1.20044,-1.458054 1.20044,-2.659215 l -2.63231,-0.02288 c -6.1e-4,1.924558 -8.91239,3.484657 -19.73578,3.484611 -10.82265,-1.37e-4 -19.79914,-1.560183 -19.79974,-3.484611 z m -0.0339,11.750883 c 0,1.20116 0.70064,2.14316 1.32086,2.68209 0.6202,0.53893 1.24944,0.85648 1.92484,1.14042 1.35081,0.56788 2.93929,0.95817 4.84505,1.29705 3.81148,0.67774 8.83751,1.06826 14.39776,1.06826 5.56027,0 10.58628,-0.39052 14.39776,-1.06826 1.90575,-0.33888 3.49424,-0.72917 4.84504,-1.29705 0.67541,-0.28394 1.30275,-0.60149 1.92296,-1.14042 0.62021,-0.53893 1.32087,-1.39117 1.32087,-2.59234 l -0.0113,-0.0616 -2.74145,-0.0281 c -6e-4,1.92456 -8.91237,3.48466 -19.73577,3.48461 -10.82265,-1.4e-4 -19.81797,-1.56018 -19.81857,-3.48461 z" />
          <path
             style="fill:none;fill-rule:evenodd;stroke:#000000;stroke-width:0.893261px;stroke-linecap:butt;stroke-linejoin:miter;stroke-opacity:1"
             d="m 216.62703,65.571201 3.95447,0.04511"
             id="path15" />
          <rect
             style="fill:#000000;fill-rule:evenodd;stroke:none;stroke-width:0.893261px;stroke-linecap:butt;stroke-linejoin:miter;stroke-opacity:1"
             id="rect15"
             width="4.7152872"
             height="38.130962"
             x="173.9127"
             y="63.933331"
             ry="1.8927754"
             rx="2.0494597" />
          <rect
             style="fill:#000000;fill-rule:evenodd;stroke:none;stroke-width:0.893261px;stroke-linecap:butt;stroke-linejoin:miter;stroke-opacity:1"
             id="rect16"
             width="4.7152872"
             height="38.469265"
             x="216.1339"
             y="63.933331"
             ry="1.9095684"
             rx="2.0494597" />
        </g>
      </g>
    </g>
    <g
       id="g19"
       transform="matrix(0.39602423,0,0,0.39602423,77.669417,382.55886)">
  <path
   id="path19"
   style="fill:#000000;stroke-width:1"
   d="m 8.2096354,15.937251 c -3.684821,0.106438 -6.9968662,3.13338 -7.43003115,6.794763 -0.1709921,2.31573 -0.0257476,4.647276 -0.073788,6.968977 0.0102781,15.646812 -0.0205506,31.294463 0.0154043,46.940751 0.32415335,3.498356 1.95496095,7.286179 6.98911725,7.407178 22.8074382,0.548192 45.5703492,0.138074 68.3903932,0.09509 4.11774,-0.236843 7.914385,-3.250229 9.309069,-7.114895 4.702822,-10.714497 14.108816,-32.143337 14.108816,-32.143337 0,0 0.20273,-5.873921 -4.981363,-6.928083 -1.898118,-0.386632 -3.854252,-0.118653 -5.776998,-0.198331 h -9.894951 c -0.07561,-2.023738 0.167122,-4.071066 -0.165596,-6.076995 -0.367485,-2.236629 -2.105443,-4.128988 -4.300043,-4.690885 -2.688714,-0.764734 -5.518014,-0.367954 -8.272157,-0.45606 -8.481703,0.01342 -16.96463,0.02054 -25.44561,-0.03853 -1.22374,-0.01177 -2.436757,-0.671863 -2.874357,-1.858813 -1.024182,-2.420396 -1.74762,-5.173451 -3.913247,-6.87139 -2.054135,-1.711419 -4.853928,-1.92638 -7.4167,-1.837146 -6.08928,0.0052 -12.178846,-0.01033 -18.2679586,0.0077 z m 19.6115986,7.540403 c 0.876139,-0.106582 1.65057,0.460799 1.908636,1.286331 1.008783,2.506952 1.858707,5.281003 4.052359,7.038626 2.418538,2.046799 5.736731,2.362461 8.780149,2.267425 9.546183,0.0071 19.103427,-0.0041 28.648205,0.01675 0.0107,1.013254 0.06429,2.508487 0.10854,3.672583 -15.530279,0.01001 -31.061444,-0.02 -46.591169,0.01499 -4.116887,0.23809 -7.89594,3.160973 -9.289525,7.026324 -2.394836,5.454536 -4.78967,10.909067 -7.1845062,16.363599 0.012845,-12.491047 -0.025685,-24.986538 0.019255,-37.474809 0.044183,-0.319974 0.2080127,-0.292158 0.5480544,-0.264906 l 19.0000018,0.0531 z m 63.327073,21.74702 c -4.376802,9.955088 -8.732611,19.919969 -13.122537,29.868936 -0.644472,1.050353 -1.888095,1.702149 -3.124377,1.513472 H 9.6980758 C 14.092924,66.629608 18.437793,56.627196 22.863847,46.66529 c 0.659801,-1.009057 1.874281,-1.623052 3.083068,-1.440616 z" />

 </g>
    <g
       id="g20"
       transform="matrix(0.39602423,0,0,0.39602423,76.545568,417.76446)">
  <path
   id="path20"
   style="fill:#000000;stroke-width:1"
   d="m 8.2096354,15.937251 c -3.684821,0.106438 -6.9968662,3.13338 -7.43003115,6.794763 -0.1709921,2.31573 -0.0257476,4.647276 -0.073788,6.968977 0.0102781,15.646812 -0.0205506,31.294463 0.0154043,46.940751 0.32415335,3.498356 1.95496095,7.286179 6.98911725,7.407178 22.8074382,0.548192 45.5703492,0.138074 68.3903932,0.09509 4.11774,-0.236843 7.914385,-3.250229 9.309069,-7.114895 4.702822,-10.714497 14.108816,-32.143337 14.108816,-32.143337 0,0 0.20273,-5.873921 -4.981363,-6.928083 -1.898118,-0.386632 -3.854252,-0.118653 -5.776998,-0.198331 h -9.894951 c -0.07561,-2.023738 0.167122,-4.071066 -0.165596,-6.076995 -0.367485,-2.236629 -2.105443,-4.128988 -4.300043,-4.690885 -2.688714,-0.764734 -5.518014,-0.367954 -8.272157,-0.45606 -8.481703,0.01342 -16.96463,0.02054 -25.44561,-0.03853 -1.22374,-0.01177 -2.436757,-0.671863 -2.874357,-1.858813 -1.024182,-2.420396 -1.74762,-5.173451 -3.913247,-6.87139 -2.054135,-1.711419 -4.853928,-1.92638 -7.4167,-1.837146 -6.08928,0.0052 -12.178846,-0.01033 -18.2679586,0.0077 z m 19.6115986,7.540403 c 0.876139,-0.106582 1.65057,0.460799 1.908636,1.286331 1.008783,2.506952 1.858707,5.281003 4.052359,7.038626 2.418538,2.046799 5.736731,2.362461 8.780149,2.267425 9.546183,0.0071 19.103427,-0.0041 28.648205,0.01675 0.0107,1.013254 0.06429,2.508487 0.10854,3.672583 -15.530279,0.01001 -31.061444,-0.02 -46.591169,0.01499 -4.116887,0.23809 -7.89594,3.160973 -9.289525,7.026324 -2.394836,5.454536 -4.78967,10.909067 -7.1845062,16.363599 0.012845,-12.491047 -0.025685,-24.986538 0.019255,-37.474809 0.044183,-0.319974 0.2080127,-0.292158 0.5480544,-0.264906 l 19.0000018,0.0531 z m 63.327073,21.74702 c -4.376802,9.955088 -8.732611,19.919969 -13.122537,29.868936 -0.644472,1.050353 -1.888095,1.702149 -3.124377,1.513472 H 9.6980758 C 14.092924,66.629608 18.437793,56.627196 22.863847,46.66529 c 0.659801,-1.009057 1.874281,-1.623052 3.083068,-1.440616 z" />

 </g>
    <text
       xml:space="preserve"
       style="font-size:14.705px;font-family:Roboto;-inkscape-font-specification:'Roboto, Normal';opacity:0.85;fill:#000000;fill-rule:evenodd;stroke-width:0.347708;stroke-linecap:round;stroke-linejoin:round;paint-order:stroke fill markers"
       x="126.03278"
       y="406.6217"
       id="text20"><tspan
         sodipodi:role="line"
         id="tspan20"
         x="126.03278"
         y="406.6217"
         style="fill:#000000;stroke-width:0.347708">radio_1</tspan></text>
    <text
       xml:space="preserve"
       style="font-size:14.705px;font-family:Roboto;-inkscape-font-specification:'Roboto, Normal';opacity:0.85;fill:#000000;fill-rule:evenodd;stroke-width:0.347708;stroke-linecap:round;stroke-linejoin:round;paint-order:stroke fill markers"
       x="124.90891"
       y="444.83261"
       id="text21"><tspan
         sodipodi:role="line"
         id="tspan21"
         x="124.90891"
         y="444.83261"
         style="fill:#000000;stroke-width:0.347708">radio_2</tspan></text>
    <text
       xml:space="preserve"
       style="font-size:14.705px;font-family:Roboto;-inkscape-font-specification:'Roboto, Normal';opacity:0.85;fill:#000000;fill-rule:evenodd;stroke-width:0.347708;stroke-linecap:round;stroke-linejoin:round;paint-order:stroke fill markers"
       x="72.087997"
       y="369.53467"
       id="text22"><tspan
         sodipodi:role="line"
         id="tspan22"
         x="72.087997"
         y="369.53467"
         style="fill:#000000;stroke-width:0.347708">content_blobs_db</tspan></text>
    <g
       id="g22"
       transform="matrix(0.39602423,0,0,0.39602423,79.355192,301.44604)">
  <path
   id="path22"
   style="fill:#000000;stroke-width:1"
   d="m 8.2096354,15.937251 c -3.684821,0.106438 -6.9968662,3.13338 -7.43003115,6.794763 -0.1709921,2.31573 -0.0257476,4.647276 -0.073788,6.968977 0.0102781,15.646812 -0.0205506,31.294463 0.0154043,46.940751 0.32415335,3.498356 1.95496095,7.286179 6.98911725,7.407178 22.8074382,0.548192 45.5703492,0.138074 68.3903932,0.09509 4.11774,-0.236843 7.914385,-3.250229 9.309069,-7.114895 4.702822,-10.714497 14.108816,-32.143337 14.108816,-32.143337 0,0 0.20273,-5.873921 -4.981363,-6.928083 -1.898118,-0.386632 -3.854252,-0.118653 -5.776998,-0.198331 h -9.894951 c -0.07561,-2.023738 0.167122,-4.071066 -0.165596,-6.076995 -0.367485,-2.236629 -2.105443,-4.128988 -4.300043,-4.690885 -2.688714,-0.764734 -5.518014,-0.367954 -8.272157,-0.45606 -8.481703,0.01342 -16.96463,0.02054 -25.44561,-0.03853 -1.22374,-0.01177 -2.436757,-0.671863 -2.874357,-1.858813 -1.024182,-2.420396 -1.74762,-5.173451 -3.913247,-6.87139 -2.054135,-1.711419 -4.853928,-1.92638 -7.4167,-1.837146 -6.08928,0.0052 -12.178846,-0.01033 -18.2679586,0.0077 z m 19.6115986,7.540403 c 0.876139,-0.106582 1.65057,0.460799 1.908636,1.286331 1.008783,2.506952 1.858707,5.281003 4.052359,7.038626 2.418538,2.046799 5.736731,2.362461 8.780149,2.267425 9.546183,0.0071 19.103427,-0.0041 28.648205,0.01675 0.0107,1.013254 0.06429,2.508487 0.10854,3.672583 -15.530279,0.01001 -31.061444,-0.02 -46.591169,0.01499 -4.116887,0.23809 -7.89594,3.160973 -9.289525,7.026324 -2.394836,5.454536 -4.78967,10.909067 -7.1845062,16.363599 0.012845,-12.491047 -0.025685,-24.986538 0.019255,-37.474809 0.044183,-0.319974 0.2080127,-0.292158 0.5480544,-0.264906 l 19.0000018,0.0531 z m 63.327073,21.74702 c -4.376802,9.955088 -8.732611,19.919969 -13.122537,29.868936 -0.644472,1.050353 -1.888095,1.702149 -3.124377,1.513472 H 9.6980758 C 14.092924,66.629608 18.437793,56.627196 22.863847,46.66529 c 0.659801,-1.009057 1.874281,-1.623052 3.083068,-1.440616 z" />

 </g>
    <text
       xml:space="preserve"
       style="font-size:14.705px;font-family:Roboto;-inkscape-font-specification:'Roboto, Normal';opacity:0.85;fill:#000000;fill-rule:evenodd;stroke-width:0.347708;stroke-linecap:round;stroke-linejoin:round;paint-order:stroke fill markers"
       x="127.71854"
       y="328.51419"
       id="text23"><tspan
         sodipodi:role="line"
         id="tspan23"
         x="127.71854"
         y="328.51419"
         style="fill:#000000;stroke-width:0.347708">radio_2</tspan></text>
    <g
       id="g34"
       transform="matrix(0.53261635,0,0,0.53261635,-75.947687,443.98249)">
      <g
         id="g33"
         transform="matrix(1.1194929,0,0,1.1194929,-30.850775,-9.5906951)"
         style="stroke-width:0.893262">
        <g
           id="g24"
           style="stroke-width:0.893262">
          <path
             d="m 193.10623,37.901397 c -4.68103,0 -8.56297,4.171419 -8.56297,8.852448 0.0773,1.331578 -0.20263,4.5583 0.13772,5.438646 1.39395,3.605583 5.58965,3.258742 6.97629,0 0.39615,-0.930988 0.13241,-4.006846 0.1552,-5.438646 0,-0.779537 0.51575,-1.63195 1.29376,-1.583237 l 42.98097,-0.08948 c 4.02628,4.426917 8.20893,8.284606 12.37247,12.377141 l -0.24161,57.194001 c -0.004,0.77954 -0.51422,1.29376 -1.29376,1.29376 h -53.81807 c -0.77954,0 -1.29376,-0.51422 -1.29376,-1.29376 v -2.06208 c 0,0 -1.05792,-2.4957 -3.79183,-2.59219 -2.34796,0.0965 -3.47738,2.59219 -3.47738,2.59219 v 2.06208 c 0,4.68103 3.88194,8.56297 8.56297,8.56297 h 53.81807 c 4.68103,0 8.60846,-3.06318 8.60846,-7.74422 V 60.791896 c 0,-4.667416 -1.63301,-7.131672 -4.5031,-9.720838 0,0 -7.43222,-7.807552 -7.53875,-7.891159 -3.32845,-3.146386 -4.77295,-5.278502 -9.68942,-5.278502 z"
             style="fill:#000000;fill-rule:evenodd;stroke-width:0.89326"
             id="path23" />
          <path
             d="m 229.7969,47.448123 v 8.815603 c 0,3.738447 3.09825,6.8367 6.8367,6.8367 3.30414,-0.0086 8.49905,-4.5e-4 8.49905,-0.01184 0,0 1.42118,-0.885662 1.42118,-2.705421 -0.0353,-1.731421 -1.40395,-2.92967 -1.40395,-2.92967 h -8.51631 c -0.70773,0 -1.18977,-0.482042 -1.18977,-1.18977 v -8.789611 c 0,0 -0.78769,-1.06266 -2.69578,-1.097995 -1.51941,-0.03534 -2.95112,1.072 -2.95112,1.072 z"
             style="fill:#000000;fill-opacity:1;fill-rule:evenodd;stroke-width:0.89326"
             id="path24" />
        </g>
        <g
           id="g32"
           style="stroke-width:0.893262">
          <path
             id="path27"
             style="fill-rule:evenodd;stroke:#000000;stroke-width:1.78652;stroke-linecap:round;stroke-linejoin:round;stroke-dasharray:none;paint-order:stroke fill markers"
             d="m 197.42151,59.069095 c -5.56026,0 -10.58626,0.390522 -14.39776,1.068262 -1.90575,0.33887 -3.49423,0.729169 -4.84504,1.297049 -0.67541,0.283939 -1.30464,0.601485 -1.92484,1.140418 -0.62021,0.538932 -1.32087,1.48093 -1.32087,2.682095 h 2.89009 a 19.597951,3.484805 0 0 1 19.59655,-3.484611 19.597951,3.484805 0 0 1 19.59842,3.484611 h 2.89009 c 0,-1.201165 -0.70067,-2.143163 -1.32086,-2.682095 -0.62021,-0.538933 -1.24757,-0.856479 -1.92297,-1.140418 -1.35081,-0.56788 -2.9393,-0.958179 -4.84503,-1.297049 -3.8115,-0.67774 -8.83748,-1.068262 -14.39778,-1.068262 z m -22.52237,6.25118 c 0,1.201164 0.70065,2.14316 1.32086,2.682094 0.6202,0.538931 1.24944,0.856477 1.92485,1.140418 1.35081,0.567878 2.93929,0.95818 4.84503,1.29705 3.8115,0.677738 8.8375,1.068262 14.39777,1.068262 5.56027,0 10.58627,-0.390524 14.39776,-1.068262 1.90575,-0.33887 3.49424,-0.729172 4.84505,-1.29705 0.67538,-0.283941 1.30274,-0.601487 1.92296,-1.140418 0.6202,-0.538934 1.32086,-1.48093 1.32086,-2.682094 h -2.89009 a 19.597951,3.484805 0 0 1 -19.59843,3.484611 19.597951,3.484805 0 0 1 -19.59653,-3.484611 z m 0.0583,11.749122 c 0,1.201161 0.70066,2.143161 1.32087,2.682093 0.62021,0.538933 1.24944,0.856477 1.92484,1.140418 1.35081,0.567878 2.93929,0.958181 4.84504,1.29705 3.8115,0.677738 8.83751,1.068262 14.39777,1.068262 5.56029,0 10.58627,-0.390524 14.39777,-1.068262 1.90572,-0.338869 3.49422,-0.729172 4.84503,-1.29705 0.67541,-0.283941 1.30276,-0.601485 1.92297,-1.140418 0.6202,-0.538932 1.12894,-1.458052 1.12894,-2.659215 l -2.54388,-0.02288 c -6.1e-4,1.924556 -8.92933,3.484656 -19.75271,3.48461 -10.82266,-1.38e-4 -19.80103,-1.560185 -19.80164,-3.48461 z m -0.0527,11.74912 c 0,1.201164 0.70064,2.143161 1.32086,2.682095 0.6202,0.538931 1.24944,0.856477 1.92484,1.140418 1.35079,0.567878 2.9393,0.958179 4.84504,1.29705 3.8115,0.677737 8.8375,1.068262 14.39777,1.068262 5.56027,0 10.58626,-0.390525 14.39776,-1.068262 1.90575,-0.338871 3.49424,-0.729172 4.84505,-1.29705 0.67538,-0.283941 1.30274,-0.601487 1.92295,-1.140418 0.62021,-0.538934 1.20044,-1.458054 1.20044,-2.659215 l -2.63231,-0.02288 c -6.1e-4,1.924558 -8.91239,3.484657 -19.73578,3.484611 -10.82265,-1.37e-4 -19.79914,-1.560183 -19.79974,-3.484611 z m -0.0339,11.750883 c 0,1.20116 0.70064,2.14316 1.32086,2.68209 0.6202,0.53893 1.24944,0.85648 1.92484,1.14042 1.35081,0.56788 2.93929,0.95817 4.84505,1.29705 3.81148,0.67774 8.83751,1.06826 14.39776,1.06826 5.56027,0 10.58628,-0.39052 14.39776,-1.06826 1.90575,-0.33888 3.49424,-0.72917 4.84504,-1.29705 0.67541,-0.28394 1.30275,-0.60149 1.92296,-1.14042 0.62021,-0.53893 1.32087,-1.39117 1.32087,-2.59234 l -0.0113,-0.0616 -2.74145,-0.0281 c -6e-4,1.92456 -8.91237,3.48466 -19.73577,3.48461 -10.82265,-1.4e-4 -19.81797,-1.56018 -19.81857,-3.48461 z" />
          <path
             style="fill:none;fill-rule:evenodd;stroke:#000000;stroke-width:0.893261px;stroke-linecap:butt;stroke-linejoin:miter;stroke-opacity:1"
             d="m 216.62703,65.571201 3.95447,0.04511"
             id="path28" />
          <rect
             style="fill:#000000;fill-rule:evenodd;stroke:none;stroke-width:0.893261px;stroke-linecap:butt;stroke-linejoin:miter;stroke-opacity:1"
             id="rect29"
             width="4.7152872"
             height="38.130962"
             x="173.9127"
             y="63.933331"
             ry="1.8927754"
             rx="2.0494597" />
          <rect
             style="fill:#000000;fill-rule:evenodd;stroke:none;stroke-width:0.893261px;stroke-linecap:butt;stroke-linejoin:miter;stroke-opacity:1"
             id="rect30"
             width="4.7152872"
             height="38.469265"
             x="216.1339"
             y="63.933331"
             ry="1.9095684"
             rx="2.0494597" />
        </g>
      </g>
    </g>
    <g
       id="g35"
       transform="matrix(0.39602423,0,0,0.39602423,77.669417,493.81996)">
  <path
   id="path34"
   style="fill:#000000;stroke-width:1"
   d="m 8.2096354,15.937251 c -3.684821,0.106438 -6.9968662,3.13338 -7.43003115,6.794763 -0.1709921,2.31573 -0.0257476,4.647276 -0.073788,6.968977 0.0102781,15.646812 -0.0205506,31.294463 0.0154043,46.940751 0.32415335,3.498356 1.95496095,7.286179 6.98911725,7.407178 22.8074382,0.548192 45.5703492,0.138074 68.3903932,0.09509 4.11774,-0.236843 7.914385,-3.250229 9.309069,-7.114895 4.702822,-10.714497 14.108816,-32.143337 14.108816,-32.143337 0,0 0.20273,-5.873921 -4.981363,-6.928083 -1.898118,-0.386632 -3.854252,-0.118653 -5.776998,-0.198331 h -9.894951 c -0.07561,-2.023738 0.167122,-4.071066 -0.165596,-6.076995 -0.367485,-2.236629 -2.105443,-4.128988 -4.300043,-4.690885 -2.688714,-0.764734 -5.518014,-0.367954 -8.272157,-0.45606 -8.481703,0.01342 -16.96463,0.02054 -25.44561,-0.03853 -1.22374,-0.01177 -2.436757,-0.671863 -2.874357,-1.858813 -1.024182,-2.420396 -1.74762,-5.173451 -3.913247,-6.87139 -2.054135,-1.711419 -4.853928,-1.92638 -7.4167,-1.837146 -6.08928,0.0052 -12.178846,-0.01033 -18.2679586,0.0077 z m 19.6115986,7.540403 c 0.876139,-0.106582 1.65057,0.460799 1.908636,1.286331 1.008783,2.506952 1.858707,5.281003 4.052359,7.038626 2.418538,2.046799 5.736731,2.362461 8.780149,2.267425 9.546183,0.0071 19.103427,-0.0041 28.648205,0.01675 0.0107,1.013254 0.06429,2.508487 0.10854,3.672583 -15.530279,0.01001 -31.061444,-0.02 -46.591169,0.01499 -4.116887,0.23809 -7.89594,3.160973 -9.289525,7.026324 -2.394836,5.454536 -4.78967,10.909067 -7.1845062,16.363599 0.012845,-12.491047 -0.025685,-24.986538 0.019255,-37.474809 0.044183,-0.319974 0.2080127,-0.292158 0.5480544,-0.264906 l 19.0000018,0.0531 z m 63.327073,21.74702 c -4.376802,9.955088 -8.732611,19.919969 -13.122537,29.868936 -0.644472,1.050353 -1.888095,1.702149 -3.124377,1.513472 H 9.6980758 C 14.092924,66.629608 18.437793,56.627196 22.863847,46.66529 c 0.659801,-1.009057 1.874281,-1.623052 3.083068,-1.440616 z" />

 </g>
    <g
       id="g36"
       transform="matrix(0.39602423,0,0,0.39602423,76.545568,529.02556)">
  <path
   id="path35"
   style="fill:#000000;stroke-width:1"
   d="m 8.2096354,15.937251 c -3.684821,0.106438 -6.9968662,3.13338 -7.43003115,6.794763 -0.1709921,2.31573 -0.0257476,4.647276 -0.073788,6.968977 0.0102781,15.646812 -0.0205506,31.294463 0.0154043,46.940751 0.32415335,3.498356 1.95496095,7.286179 6.98911725,7.407178 22.8074382,0.548192 45.5703492,0.138074 68.3903932,0.09509 4.11774,-0.236843 7.914385,-3.250229 9.309069,-7.114895 4.702822,-10.714497 14.108816,-32.143337 14.108816,-32.143337 0,0 0.20273,-5.873921 -4.981363,-6.928083 -1.898118,-0.386632 -3.854252,-0.118653 -5.776998,-0.198331 h -9.894951 c -0.07561,-2.023738 0.167122,-4.071066 -0.165596,-6.076995 -0.367485,-2.236629 -2.105443,-4.128988 -4.300043,-4.690885 -2.688714,-0.764734 -5.518014,-0.367954 -8.272157,-0.45606 -8.481703,0.01342 -16.96463,0.02054 -25.44561,-0.03853 -1.22374,-0.01177 -2.436757,-0.671863 -2.874357,-1.858813 -1.024182,-2.420396 -1.74762,-5.173451 -3.913247,-6.87139 -2.054135,-1.711419 -4.853928,-1.92638 -7.4167,-1.837146 -6.08928,0.0052 -12.178846,-0.01033 -18.2679586,0.0077 z m 19.6115986,7.540403 c 0.876139,-0.106582 1.65057,0.460799 1.908636,1.286331 1.008783,2.506952 1.858707,5.281003 4.052359,7.038626 2.418538,2.046799 5.736731,2.362461 8.780149,2.267425 9.546183,0.0071 19.103427,-0.0041 28.648205,0.01675 0.0107,1.013254 0.06429,2.508487 0.10854,3.672583 -15.530279,0.01001 -31.061444,-0.02 -46.591169,0.01499 -4.116887,0.23809 -7.89594,3.160973 -9.289525,7.026324 -2.394836,5.454536 -4.78967,10.909067 -7.1845062,16.363599 0.012845,-12.491047 -0.025685,-24.986538 0.019255,-37.474809 0.044183,-0.319974 0.2080127,-0.292158 0.5480544,-0.264906 l 19.0000018,0.0531 z m 63.327073,21.74702 c -4.376802,9.955088 -8.732611,19.919969 -13.122537,29.868936 -0.644472,1.050353 -1.888095,1.702149 -3.124377,1.513472 H 9.6980758 C 14.092924,66.629608 18.437793,56.627196 22.863847,46.66529 c 0.659801,-1.009057 1.874281,-1.623052 3.083068,-1.440616 z" />

 </g>
    <text
       xml:space="preserve"
       style="font-size:14.705px;font-family:Roboto;-inkscape-font-specification:'Roboto, Normal';opacity:0.85;fill:#000000;fill-rule:evenodd;stroke-width:0.347708;stroke-linecap:round;stroke-linejoin:round;paint-order:stroke fill markers"
       x="126.03278"
       y="517.88281"
       id="text36"><tspan
         sodipodi:role="line"
         id="tspan36"
         x="126.03278"
         y="517.88281"
         style="fill:#000000;stroke-width:0.347708">unsorted</tspan></text>
    <text
       xml:space="preserve"
       style="font-size:14.705px;font-family:Roboto;-inkscape-font-specification:'Roboto, Normal';opacity:0.85;fill:#000000;fill-rule:evenodd;stroke-width:0.347708;stroke-linecap:round;stroke-linejoin:round;paint-order:stroke fill markers"
       x="124.90891"
       y="556.09375"
       id="text37"><tspan
         sodipodi:role="line"
         id="tspan37"
         x="124.90891"
         y="556.09375"
         style="fill:#000000;stroke-width:0.347708">country_1</tspan></text>
    <text
       xml:space="preserve"
       style="font-size:14.705px;font-family:Roboto;-inkscape-font-specification:'Roboto, Normal';opacity:0.85;fill:#000000;fill-rule:evenodd;stroke-width:0.347708;stroke-linecap:round;stroke-linejoin:round;paint-order:stroke fill markers"
       x="72.087997"
       y="480.79578"
       id="text38"><tspan
         sodipodi:role="line"
         id="tspan38"
         x="72.087997"
         y="480.79578"
         style="fill:#000000;stroke-width:0.347708">radio_index_db</tspan></text>
    <g
       id="g42"
       transform="matrix(0.39602423,0,0,0.39602423,76.545568,563.86489)">
  <path
   id="path42"
   style="fill:#000000;stroke-width:1"
   d="m 8.2096354,15.937251 c -3.684821,0.106438 -6.9968662,3.13338 -7.43003115,6.794763 -0.1709921,2.31573 -0.0257476,4.647276 -0.073788,6.968977 0.0102781,15.646812 -0.0205506,31.294463 0.0154043,46.940751 0.32415335,3.498356 1.95496095,7.286179 6.98911725,7.407178 22.8074382,0.548192 45.5703492,0.138074 68.3903932,0.09509 4.11774,-0.236843 7.914385,-3.250229 9.309069,-7.114895 4.702822,-10.714497 14.108816,-32.143337 14.108816,-32.143337 0,0 0.20273,-5.873921 -4.981363,-6.928083 -1.898118,-0.386632 -3.854252,-0.118653 -5.776998,-0.198331 h -9.894951 c -0.07561,-2.023738 0.167122,-4.071066 -0.165596,-6.076995 -0.367485,-2.236629 -2.105443,-4.128988 -4.300043,-4.690885 -2.688714,-0.764734 -5.518014,-0.367954 -8.272157,-0.45606 -8.481703,0.01342 -16.96463,0.02054 -25.44561,-0.03853 -1.22374,-0.01177 -2.436757,-0.671863 -2.874357,-1.858813 -1.024182,-2.420396 -1.74762,-5.173451 -3.913247,-6.87139 -2.054135,-1.711419 -4.853928,-1.92638 -7.4167,-1.837146 -6.08928,0.0052 -12.178846,-0.01033 -18.2679586,0.0077 z m 19.6115986,7.540403 c 0.876139,-0.106582 1.65057,0.460799 1.908636,1.286331 1.008783,2.506952 1.858707,5.281003 4.052359,7.038626 2.418538,2.046799 5.736731,2.362461 8.780149,2.267425 9.546183,0.0071 19.103427,-0.0041 28.648205,0.01675 0.0107,1.013254 0.06429,2.508487 0.10854,3.672583 -15.530279,0.01001 -31.061444,-0.02 -46.591169,0.01499 -4.116887,0.23809 -7.89594,3.160973 -9.289525,7.026324 -2.394836,5.454536 -4.78967,10.909067 -7.1845062,16.363599 0.012845,-12.491047 -0.025685,-24.986538 0.019255,-37.474809 0.044183,-0.319974 0.2080127,-0.292158 0.5480544,-0.264906 l 19.0000018,0.0531 z m 63.327073,21.74702 c -4.376802,9.955088 -8.732611,19.919969 -13.122537,29.868936 -0.644472,1.050353 -1.888095,1.702149 -3.124377,1.513472 H 9.6980758 C 14.092924,66.629608 18.437793,56.627196 22.863847,46.66529 c 0.659801,-1.009057 1.874281,-1.623052 3.083068,-1.440616 z" />

 </g>
    <text
       xml:space="preserve"
       style="font-size:14.705px;font-family:Roboto;-inkscape-font-specification:'Roboto, Normal';opacity:0.85;fill:#000000;fill-rule:evenodd;stroke-width:0.347708;stroke-linecap:round;stroke-linejoin:round;paint-order:stroke fill markers"
       x="124.90891"
       y="590.93304"
       id="text42"><tspan
         sodipodi:role="line"
         id="tspan42"
         x="124.90891"
         y="590.93304"
         style="fill:#000000;stroke-width:0.347708">country_2</tspan></text>
    <text
       xml:space="preserve"
       style="font-size:14.705px;font-family:Roboto;-inkscape-font-specification:'Roboto, Normal';opacity:0.85;fill:#000000;fill-rule:evenodd;stroke-width:0.347708;stroke-linecap:round;stroke-linejoin:round;paint-order:stroke fill markers"
       x="246.42099"
       y="71.826355"
       id="text45"><tspan
         sodipodi:role="line"
         x="246.42099"
         y="71.826355"
         style="fill:#000000;stroke-width:0.347708"
         id="tspan45">file in db or hdd, buttons</tspan></text>
    <g
       id="g46"
       transform="matrix(0.39602423,0,0,0.39602423,78.231342,118.72976)">
  <path
   id="path46"
   style="fill:#000000;stroke-width:1"
   d="m 8.2096354,15.937251 c -3.684821,0.106438 -6.9968662,3.13338 -7.43003115,6.794763 -0.1709921,2.31573 -0.0257476,4.647276 -0.073788,6.968977 0.0102781,15.646812 -0.0205506,31.294463 0.0154043,46.940751 0.32415335,3.498356 1.95496095,7.286179 6.98911725,7.407178 22.8074382,0.548192 45.5703492,0.138074 68.3903932,0.09509 4.11774,-0.236843 7.914385,-3.250229 9.309069,-7.114895 4.702822,-10.714497 14.108816,-32.143337 14.108816,-32.143337 0,0 0.20273,-5.873921 -4.981363,-6.928083 -1.898118,-0.386632 -3.854252,-0.118653 -5.776998,-0.198331 h -9.894951 c -0.07561,-2.023738 0.167122,-4.071066 -0.165596,-6.076995 -0.367485,-2.236629 -2.105443,-4.128988 -4.300043,-4.690885 -2.688714,-0.764734 -5.518014,-0.367954 -8.272157,-0.45606 -8.481703,0.01342 -16.96463,0.02054 -25.44561,-0.03853 -1.22374,-0.01177 -2.436757,-0.671863 -2.874357,-1.858813 -1.024182,-2.420396 -1.74762,-5.173451 -3.913247,-6.87139 -2.054135,-1.711419 -4.853928,-1.92638 -7.4167,-1.837146 -6.08928,0.0052 -12.178846,-0.01033 -18.2679586,0.0077 z m 19.6115986,7.540403 c 0.876139,-0.106582 1.65057,0.460799 1.908636,1.286331 1.008783,2.506952 1.858707,5.281003 4.052359,7.038626 2.418538,2.046799 5.736731,2.362461 8.780149,2.267425 9.546183,0.0071 19.103427,-0.0041 28.648205,0.01675 0.0107,1.013254 0.06429,2.508487 0.10854,3.672583 -15.530279,0.01001 -31.061444,-0.02 -46.591169,0.01499 -4.116887,0.23809 -7.89594,3.160973 -9.289525,7.026324 -2.394836,5.454536 -4.78967,10.909067 -7.1845062,16.363599 0.012845,-12.491047 -0.025685,-24.986538 0.019255,-37.474809 0.044183,-0.319974 0.2080127,-0.292158 0.5480544,-0.264906 l 19.0000018,0.0531 z m 63.327073,21.74702 c -4.376802,9.955088 -8.732611,19.919969 -13.122537,29.868936 -0.644472,1.050353 -1.888095,1.702149 -3.124377,1.513472 H 9.6980758 C 14.092924,66.629608 18.437793,56.627196 22.863847,46.66529 c 0.659801,-1.009057 1.874281,-1.623052 3.083068,-1.440616 z" />

 </g>
    <g
       id="g47"
       transform="matrix(0.39602423,0,0,0.39602423,78.231342,152.44525)">
  <path
   id="path47"
   style="fill:#000000;stroke-width:1"
   d="m 8.2096354,15.937251 c -3.684821,0.106438 -6.9968662,3.13338 -7.43003115,6.794763 -0.1709921,2.31573 -0.0257476,4.647276 -0.073788,6.968977 0.0102781,15.646812 -0.0205506,31.294463 0.0154043,46.940751 0.32415335,3.498356 1.95496095,7.286179 6.98911725,7.407178 22.8074382,0.548192 45.5703492,0.138074 68.3903932,0.09509 4.11774,-0.236843 7.914385,-3.250229 9.309069,-7.114895 4.702822,-10.714497 14.108816,-32.143337 14.108816,-32.143337 0,0 0.20273,-5.873921 -4.981363,-6.928083 -1.898118,-0.386632 -3.854252,-0.118653 -5.776998,-0.198331 h -9.894951 c -0.07561,-2.023738 0.167122,-4.071066 -0.165596,-6.076995 -0.367485,-2.236629 -2.105443,-4.128988 -4.300043,-4.690885 -2.688714,-0.764734 -5.518014,-0.367954 -8.272157,-0.45606 -8.481703,0.01342 -16.96463,0.02054 -25.44561,-0.03853 -1.22374,-0.01177 -2.436757,-0.671863 -2.874357,-1.858813 -1.024182,-2.420396 -1.74762,-5.173451 -3.913247,-6.87139 -2.054135,-1.711419 -4.853928,-1.92638 -7.4167,-1.837146 -6.08928,0.0052 -12.178846,-0.01033 -18.2679586,0.0077 z m 19.6115986,7.540403 c 0.876139,-0.106582 1.65057,0.460799 1.908636,1.286331 1.008783,2.506952 1.858707,5.281003 4.052359,7.038626 2.418538,2.046799 5.736731,2.362461 8.780149,2.267425 9.546183,0.0071 19.103427,-0.0041 28.648205,0.01675 0.0107,1.013254 0.06429,2.508487 0.10854,3.672583 -15.530279,0.01001 -31.061444,-0.02 -46.591169,0.01499 -4.116887,0.23809 -7.89594,3.160973 -9.289525,7.026324 -2.394836,5.454536 -4.78967,10.909067 -7.1845062,16.363599 0.012845,-12.491047 -0.025685,-24.986538 0.019255,-37.474809 0.044183,-0.319974 0.2080127,-0.292158 0.5480544,-0.264906 l 19.0000018,0.0531 z m 63.327073,21.74702 c -4.376802,9.955088 -8.732611,19.919969 -13.122537,29.868936 -0.644472,1.050353 -1.888095,1.702149 -3.124377,1.513472 H 9.6980758 C 14.092924,66.629608 18.437793,56.627196 22.863847,46.66529 c 0.659801,-1.009057 1.874281,-1.623052 3.083068,-1.440616 z" />

 </g>
    <text
       xml:space="preserve"
       style="font-size:14.705px;font-family:Roboto;-inkscape-font-specification:'Roboto, Normal';opacity:0.85;fill:#000000;fill-rule:evenodd;stroke-width:0.347708;stroke-linecap:round;stroke-linejoin:round;paint-order:stroke fill markers"
       x="126.5947"
       y="179.51338"
       id="text47"><tspan
         sodipodi:role="line"
         id="tspan47"
         x="126.5947"
         y="179.51338"
         style="fill:#000000;stroke-width:0.347708">user equalizer per radio set</tspan></text>
    <g
       id="g48"
       transform="matrix(0.39602423,0,0,0.39602423,78.231342,152.44525)">
  <path
   id="path48"
   style="fill:#000000;stroke-width:1"
   d="m 8.2096354,15.937251 c -3.684821,0.106438 -6.9968662,3.13338 -7.43003115,6.794763 -0.1709921,2.31573 -0.0257476,4.647276 -0.073788,6.968977 0.0102781,15.646812 -0.0205506,31.294463 0.0154043,46.940751 0.32415335,3.498356 1.95496095,7.286179 6.98911725,7.407178 22.8074382,0.548192 45.5703492,0.138074 68.3903932,0.09509 4.11774,-0.236843 7.914385,-3.250229 9.309069,-7.114895 4.702822,-10.714497 14.108816,-32.143337 14.108816,-32.143337 0,0 0.20273,-5.873921 -4.981363,-6.928083 -1.898118,-0.386632 -3.854252,-0.118653 -5.776998,-0.198331 h -9.894951 c -0.07561,-2.023738 0.167122,-4.071066 -0.165596,-6.076995 -0.367485,-2.236629 -2.105443,-4.128988 -4.300043,-4.690885 -2.688714,-0.764734 -5.518014,-0.367954 -8.272157,-0.45606 -8.481703,0.01342 -16.96463,0.02054 -25.44561,-0.03853 -1.22374,-0.01177 -2.436757,-0.671863 -2.874357,-1.858813 -1.024182,-2.420396 -1.74762,-5.173451 -3.913247,-6.87139 -2.054135,-1.711419 -4.853928,-1.92638 -7.4167,-1.837146 -6.08928,0.0052 -12.178846,-0.01033 -18.2679586,0.0077 z m 19.6115986,7.540403 c 0.876139,-0.106582 1.65057,0.460799 1.908636,1.286331 1.008783,2.506952 1.858707,5.281003 4.052359,7.038626 2.418538,2.046799 5.736731,2.362461 8.780149,2.267425 9.546183,0.0071 19.103427,-0.0041 28.648205,0.01675 0.0107,1.013254 0.06429,2.508487 0.10854,3.672583 -15.530279,0.01001 -31.061444,-0.02 -46.591169,0.01499 -4.116887,0.23809 -7.89594,3.160973 -9.289525,7.026324 -2.394836,5.454536 -4.78967,10.909067 -7.1845062,16.363599 0.012845,-12.491047 -0.025685,-24.986538 0.019255,-37.474809 0.044183,-0.319974 0.2080127,-0.292158 0.5480544,-0.264906 l 19.0000018,0.0531 z m 63.327073,21.74702 c -4.376802,9.955088 -8.732611,19.919969 -13.122537,29.868936 -0.644472,1.050353 -1.888095,1.702149 -3.124377,1.513472 H 9.6980758 C 14.092924,66.629608 18.437793,56.627196 22.863847,46.66529 c 0.659801,-1.009057 1.874281,-1.623052 3.083068,-1.440616 z" />

 </g>
    <g
       id="g49"
       transform="matrix(0.39602423,0,0,0.39602423,79.355191,79.395028)">
  <path
   id="path49"
   style="fill:#000000;stroke-width:1"
   d="m 8.2096354,15.937251 c -3.684821,0.106438 -6.9968662,3.13338 -7.43003115,6.794763 -0.1709921,2.31573 -0.0257476,4.647276 -0.073788,6.968977 0.0102781,15.646812 -0.0205506,31.294463 0.0154043,46.940751 0.32415335,3.498356 1.95496095,7.286179 6.98911725,7.407178 22.8074382,0.548192 45.5703492,0.138074 68.3903932,0.09509 4.11774,-0.236843 7.914385,-3.250229 9.309069,-7.114895 4.702822,-10.714497 14.108816,-32.143337 14.108816,-32.143337 0,0 0.20273,-5.873921 -4.981363,-6.928083 -1.898118,-0.386632 -3.854252,-0.118653 -5.776998,-0.198331 h -9.894951 c -0.07561,-2.023738 0.167122,-4.071066 -0.165596,-6.076995 -0.367485,-2.236629 -2.105443,-4.128988 -4.300043,-4.690885 -2.688714,-0.764734 -5.518014,-0.367954 -8.272157,-0.45606 -8.481703,0.01342 -16.96463,0.02054 -25.44561,-0.03853 -1.22374,-0.01177 -2.436757,-0.671863 -2.874357,-1.858813 -1.024182,-2.420396 -1.74762,-5.173451 -3.913247,-6.87139 -2.054135,-1.711419 -4.853928,-1.92638 -7.4167,-1.837146 -6.08928,0.0052 -12.178846,-0.01033 -18.2679586,0.0077 z m 19.6115986,7.540403 c 0.876139,-0.106582 1.65057,0.460799 1.908636,1.286331 1.008783,2.506952 1.858707,5.281003 4.052359,7.038626 2.418538,2.046799 5.736731,2.362461 8.780149,2.267425 9.546183,0.0071 19.103427,-0.0041 28.648205,0.01675 0.0107,1.013254 0.06429,2.508487 0.10854,3.672583 -15.530279,0.01001 -31.061444,-0.02 -46.591169,0.01499 -4.116887,0.23809 -7.89594,3.160973 -9.289525,7.026324 -2.394836,5.454536 -4.78967,10.909067 -7.1845062,16.363599 0.012845,-12.491047 -0.025685,-24.986538 0.019255,-37.474809 0.044183,-0.319974 0.2080127,-0.292158 0.5480544,-0.264906 l 19.0000018,0.0531 z m 63.327073,21.74702 c -4.376802,9.955088 -8.732611,19.919969 -13.122537,29.868936 -0.644472,1.050353 -1.888095,1.702149 -3.124377,1.513472 H 9.6980758 C 14.092924,66.629608 18.437793,56.627196 22.863847,46.66529 c 0.659801,-1.009057 1.874281,-1.623052 3.083068,-1.440616 z" />

 </g>
    <text
       xml:space="preserve"
       style="font-size:14.705px;font-family:Roboto;-inkscape-font-specification:'Roboto, Normal';opacity:0.85;fill:#000000;fill-rule:evenodd;stroke-width:0.347708;stroke-linecap:round;stroke-linejoin:round;paint-order:stroke fill markers"
       x="127.71855"
       y="106.46318"
       id="text49"><tspan
         sodipodi:role="line"
         id="tspan49"
         x="127.71855"
         y="106.46318"
         style="fill:#000000;stroke-width:0.347708">db versions store</tspan></text>
    <g
       id="g50"
       transform="matrix(0.39602423,0,0,0.39602423,79.355191,79.395028)">
  <path
   id="path50"
   style="fill:#000000;stroke-width:1"
   d="m 8.2096354,15.937251 c -3.684821,0.106438 -6.9968662,3.13338 -7.43003115,6.794763 -0.1709921,2.31573 -0.0257476,4.647276 -0.073788,6.968977 0.0102781,15.646812 -0.0205506,31.294463 0.0154043,46.940751 0.32415335,3.498356 1.95496095,7.286179 6.98911725,7.407178 22.8074382,0.548192 45.5703492,0.138074 68.3903932,0.09509 4.11774,-0.236843 7.914385,-3.250229 9.309069,-7.114895 4.702822,-10.714497 14.108816,-32.143337 14.108816,-32.143337 0,0 0.20273,-5.873921 -4.981363,-6.928083 -1.898118,-0.386632 -3.854252,-0.118653 -5.776998,-0.198331 h -9.894951 c -0.07561,-2.023738 0.167122,-4.071066 -0.165596,-6.076995 -0.367485,-2.236629 -2.105443,-4.128988 -4.300043,-4.690885 -2.688714,-0.764734 -5.518014,-0.367954 -8.272157,-0.45606 -8.481703,0.01342 -16.96463,0.02054 -25.44561,-0.03853 -1.22374,-0.01177 -2.436757,-0.671863 -2.874357,-1.858813 -1.024182,-2.420396 -1.74762,-5.173451 -3.913247,-6.87139 -2.054135,-1.711419 -4.853928,-1.92638 -7.4167,-1.837146 -6.08928,0.0052 -12.178846,-0.01033 -18.2679586,0.0077 z m 19.6115986,7.540403 c 0.876139,-0.106582 1.65057,0.460799 1.908636,1.286331 1.008783,2.506952 1.858707,5.281003 4.052359,7.038626 2.418538,2.046799 5.736731,2.362461 8.780149,2.267425 9.546183,0.0071 19.103427,-0.0041 28.648205,0.01675 0.0107,1.013254 0.06429,2.508487 0.10854,3.672583 -15.530279,0.01001 -31.061444,-0.02 -46.591169,0.01499 -4.116887,0.23809 -7.89594,3.160973 -9.289525,7.026324 -2.394836,5.454536 -4.78967,10.909067 -7.1845062,16.363599 0.012845,-12.491047 -0.025685,-24.986538 0.019255,-37.474809 0.044183,-0.319974 0.2080127,-0.292158 0.5480544,-0.264906 l 19.0000018,0.0531 z m 63.327073,21.74702 c -4.376802,9.955088 -8.732611,19.919969 -13.122537,29.868936 -0.644472,1.050353 -1.888095,1.702149 -3.124377,1.513472 H 9.6980758 C 14.092924,66.629608 18.437793,56.627196 22.863847,46.66529 c 0.659801,-1.009057 1.874281,-1.623052 3.083068,-1.440616 z" />

 </g>
  </g>
</svg>
