<?xml version="1.0" encoding="UTF-8" standalone="no"?>
<svg
   version="1.0"
   width="100"
   height="100"
   id="deer-icon"
   sodipodi:docname="deer-icon.svg"
   inkscape:version="1.3.2 (091e20e, 2023-11-25, custom)"
   xml:space="preserve"
   xmlns:inkscape="http://www.inkscape.org/namespaces/inkscape"
   xmlns:sodipodi="http://sodipodi.sourceforge.net/DTD/sodipodi-0.dtd"
   xmlns="http://www.w3.org/2000/svg"
   xmlns:svg="http://www.w3.org/2000/svg"><defs
     id="defs2" /><sodipodi:namedview
     id="namedview2"
     pagecolor="#ffffff"
     bordercolor="#111111"
     borderopacity="1"
     inkscape:showpageshadow="0"
     inkscape:pageopacity="0"
     inkscape:pagecheckerboard="1"
     inkscape:deskcolor="#d1d1d1"
     inkscape:zoom="7.9752902"
     inkscape:cx="64.072903"
     inkscape:cy="30.28103"
     inkscape:current-layer="g4"
     showgrid="false"
     inkscape:window-width="1318"
     inkscape:window-height="699"
     inkscape:window-x="0"
     inkscape:window-y="0"
     inkscape:window-maximized="1"
     showguides="true"><sodipodi:guide
       position="159.96094,54.394531"
       orientation="0,-1"
       id="guide1"
       inkscape:locked="false" /><sodipodi:guide
       position="159.22852,31.689453"
       orientation="0,-1"
       id="guide2"
       inkscape:locked="false" /><sodipodi:guide
       position="161.93022,69.72656"
       orientation="0,-1"
       id="guide3"
       inkscape:locked="false" /><sodipodi:guide
       position="181.81759,37.713836"
       orientation="0,-1"
       id="guide4"
       inkscape:locked="false" /></sodipodi:namedview><metadata
     id="metadata1" /><g
     transform="matrix(0.1,0,0,-0.1,-627.94301,668.07594)"
     fill="#000000"
     stroke="none"
     id="g2"><g
       id="g4"
       transform="translate(-1.4564253e-5,36.371672)"><path
         id="path1"
         style="font-variation-settings:'wght' 600;opacity:1;fill:#000000;fill-rule:evenodd;stroke-width:10;stroke-linecap:round;stroke-linejoin:round;paint-order:stroke fill markers"
         d="m 7174.5098,5707.1934 c -19.5687,0.5031 -39.1405,0.9539 -58.7087,1.4606 -2.0674,0.2049 -4.1247,0.4691 -6.1493,0.9443 -2.1172,0.4786 -4.3198,0.7085 -6.2917,1.6688 -1.6346,0.725 -3.3631,1.2667 -4.9347,2.1147 -2.0312,1.3134 -4.1874,2.4595 -6.1146,3.918 -1.5996,1.514 -3.2988,2.9365 -4.8364,4.5076 -1.487,1.9914 -3.1626,3.8588 -4.5008,5.9508 -0.972,1.9646 -2.0659,3.879 -2.9605,5.8755 -0.9458,3.1473 -2.2175,6.2221 -2.6274,9.5033 -0.6017,3.1052 -0.4756,6.2916 -0.5081,9.4399 0.017,38.5354 0,77.0712 0.01,115.6067 -0.4864,0.701 -0.8433,0.7144 -1.0329,-0.1606 -20.2149,-45.557 -40.4085,-91.1245 -60.6367,-136.6749 -0.9791,-1.831 -2.0103,-3.6294 -3.2235,-5.3169 -1.2523,-1.7807 -2.3161,-3.7297 -3.9619,-5.1885 -1.2931,-1.229 -2.4528,-2.6148 -3.8348,-3.7391 -1.9908,-1.3729 -3.873,-2.9282 -5.9581,-4.149 -2.0127,-0.8975 -3.9788,-1.9223 -6.0205,-2.7404 -3.1719,-0.8159 -6.2837,-1.9581 -9.566,-2.2463 -3.0916,-0.4678 -6.2341,-0.2494 -9.3489,-0.2248 -15.9416,0.3254 -31.8863,0.5658 -47.8266,0.926 -2.0537,0.1894 -4.0961,0.4486 -6.1091,0.9051 -2.1002,0.4557 -4.2811,0.6771 -6.2378,1.6196 -1.6333,0.7144 -3.3597,1.2444 -4.9308,2.0819 -2.0475,1.3064 -4.2196,2.4434 -6.1613,3.8994 -1.5937,1.4917 -3.2842,2.8932 -4.8171,4.4415 -1.4966,1.956 -3.1398,3.8142 -4.5098,5.8584 -0.9955,1.9809 -2.1133,3.9105 -3.0319,5.9237 -0.7261,2.3556 -1.6267,4.669 -2.2057,7.0629 -0.2498,2.1831 -0.6288,4.3603 -0.7961,6.5472 0.1408,2.5432 0.087,5.1075 0.4002,7.6351 0.3884,2.1677 0.6504,4.3683 1.4354,6.4402 1.4277,4.3351 3.3225,8.4955 4.973,12.7471 14.8784,36.9163 29.7568,73.8326 44.6353,110.7489 -0.2956,24.3581 -0.5912,48.7161 -0.8867,73.0742 h -155.1368 c 0.2419,-14.6594 0.5314,-29.3202 0.7434,-43.9788 -0.1106,-2.0674 -0.3085,-4.1238 -0.6891,-6.1601 -0.3828,-2.1074 -0.5232,-4.2872 -1.3894,-6.2705 -0.658,-1.6711 -1.1298,-3.428 -1.9137,-5.041 -1.6211,-2.7753 -2.9883,-5.7252 -5.0573,-8.2096 -1.7774,-2.429 -4.0463,-4.4391 -6.1333,-6.594 -4.9734,-4.9489 -9.92,-9.925 -14.8867,-14.8808 0.4208,-38.6939 0.8654,-77.3886 1.2715,-116.0821 -0.1294,-2.0457 -0.312,-4.0843 -0.7115,-6.0971 -0.404,-2.1598 -0.5544,-4.3972 -1.4526,-6.4275 -0.6667,-1.6612 -1.1469,-3.4096 -1.9388,-5.0122 -1.2462,-2.0846 -2.3162,-4.2909 -3.7137,-6.275 -1.443,-1.6373 -2.7928,-3.3689 -4.2945,-4.9469 -1.911,-1.5525 -3.7211,-3.2466 -5.7208,-4.6792 -1.9319,-1.0477 -3.8082,-2.2169 -5.7745,-3.1892 -2.4196,-0.8231 -4.7846,-1.8404 -7.2562,-2.4905 -2.1732,-0.4404 -4.3269,-1.0297 -6.558,-1.0663 -4.3827,-0.3116 -8.7768,-0.03 -13.165,-0.05 -12.3409,0.1429 -24.6846,0.2237 -37.0236,0.4217 -2.0256,0.1666 -4.0393,0.4124 -6.0265,0.8453 -2.0972,0.4392 -4.2741,0.6374 -6.2322,1.5626 -1.6448,0.7026 -3.3806,1.2214 -4.9644,2.0473 -2.0531,1.287 -4.2296,2.4041 -6.1791,3.8399 -1.608,1.4784 -3.3124,2.8655 -4.8596,4.4016 -1.5254,1.9737 -3.2282,3.8276 -4.6045,5.9057 -0.9915,1.9278 -2.1053,3.8028 -3.0206,5.7635 -0.7692,2.4259 -1.7195,4.8044 -2.3292,7.275 -0.4179,2.1275 -0.9327,4.2457 -0.9433,6.4266 -0.2056,4.5939 -0.04,9.1942 -0.095,13.791 v 210.7035 c -8.3476,3.9133 -15.8942,9.3186 -22.932,15.2312 -21.6546,18.0167 -39.4374,40.4699 -52.9363,65.1454 -10.1152,18.3404 -18.6975,37.4767 -26.8075,56.7727 -9.8744,23.5859 -18.9002,47.519 -27.4492,71.6144 -17.2341,-1.1965 -34.5337,-1.8124 -51.8028,-1.0853 -13.9879,0.6079 -28.0493,2.2569 -41.4276,6.5482 -13.6381,4.2767 -26.6485,11.188 -36.9142,21.2402 -5.6835,5.5334 -10.2143,12.182 -13.5676,19.3567 -2.0372,4.2622 -3.5923,8.7313 -5.4565,13.066 -1.9248,3.9694 -3.655,8.0472 -4.8006,12.316 -3.508,12.5482 -2.717,26.2435 2.2415,38.2953 2.5672,6.3223 6.2403,12.1107 9.9348,17.8195 4.7993,7.1421 10.7491,13.3965 16.6064,19.6641 11.0113,11.5948 22.6484,22.5758 34.4295,33.3807 12.83,11.7244 25.9034,23.1809 39.1516,34.4298 -9.578,14.01 -15.6823,30.2073 -18.8562,46.8266 -1.4496,7.8338 -2.2935,15.807 -2.1481,23.7799 0.1572,7.4895 1.8638,14.953 5.1432,21.6974 5.6167,11.6673 15.7477,20.9774 27.6799,25.9298 14.9132,6.3218 32.5402,6.1689 47.1741,-0.8862 1.0878,-0.5251 2.1586,-1.0853 3.2102,-1.6795 0.071,5.583 0.026,11.1687 0.1739,16.75 0.671,13.4931 6.7427,26.6488 16.6823,35.8174 10.9096,10.223 26.0244,15.5264 40.905,15.1002 14.3838,-0.3108 28.7026,-6.0617 38.9021,-16.2853 1.4038,-1.4019 2.7252,-2.8859 3.9715,-4.4292 7.7058,8.6537 18.3036,14.5314 29.591,16.9861 15.8766,3.5155 33.2551,0.5797 46.716,-8.675 3.3353,-2.282 6.3981,-4.9577 9.1266,-7.938 7.686,10.4602 19.4116,17.7298 32.0847,20.3739 12.7184,2.7492 26.4326,0.895 37.823,-5.4538 10.7042,-5.9221 19.1667,-15.8005 23.2581,-27.3409 2.2104,-6.0202 3.126,-12.4446 3.236,-18.8364 0.4884,-6.6579 1.222,-13.3118 1.1189,-19.9979 -0.065,-9.8346 -1.7726,-19.74 -5.7616,-28.7688 -2.6841,-6.0924 -5.8268,-11.9875 -9.3826,-17.616 -8.5087,-13.4482 -19.7649,-25.2814 -33.3151,-33.7123 -8.8519,-5.5549 -18.6321,-9.5678 -28.7603,-12.1037 -8.6411,-2.536 -17.2895,-5.3049 -26.2841,-6.2677 -16.3189,-1.9551 -32.7918,-1.4867 -49.184,-1.0717 -4.2144,0.1196 -8.4293,0.2366 -12.6455,0.266 3.5555,-3.1217 6.8254,-6.5483 10.2577,-9.802 42.3483,-41.0895 84.6967,-82.1789 127.045,-123.2683 9.5117,-3.8907 19.0235,-7.7813 28.5352,-11.6719 h 203.082 c -0.3158,25.0416 -0.6536,-11.537 -0.9394,13.5048 0.082,11.1782 4.0863,22.404 11.6302,30.725 6.9673,7.8044 16.8259,12.9369 27.2165,14.1621 10.9114,1.3873 22.1747,-1.499 31.3554,-7.4771 3.8695,-2.4537 7.3262,-5.4892 10.5586,-8.722 11.4695,-11.0095 24.7343,-20.4131 34.4068,-33.0303 10.1802,-13.2794 8.7117,-23.1312 8.7481,-35.4457 0.012,-4.2506 0.2465,11.0547 -0.2162,-12.75 12.8684,-11.753 33.9324,-23.457 46.7579,-35.2564 10.547,-10.0845 18.6111,-22.8977 22.4381,-37.0257 2.7431,-9.8777 3.3523,-20.2434 2.6059,-30.437 -2.3344,-44.2264 -4.6688,-88.4529 -7.0033,-132.6794 4.8004,-3.545 9.6614,-7.0117 14.3867,-10.6562 10.1421,-8.1796 17.338,-19.94 19.9036,-32.7232 1.286,-5.9781 1.333,-12.124 1.2046,-18.21 -0.4811,-60.6432 -0.9384,-121.2876 -1.4343,-181.93 -0.1688,-2.0436 -0.3905,-4.079 -0.828,-6.0846 -0.446,-2.1531 -0.6411,-4.3881 -1.5766,-6.4028 -0.6946,-1.6404 -1.2042,-3.3715 -2.022,-4.9516 -1.2583,-2.0405 -2.3807,-4.1784 -3.7648,-6.1331 -1.5038,-1.6441 -2.9165,-3.384 -4.4782,-4.9672 -1.9674,-1.5244 -3.8102,-3.2312 -5.882,-4.6072 -1.921,-0.9964 -3.7903,-2.1115 -5.7442,-3.0321 -2.4267,-0.7754 -4.8038,-1.7408 -7.2778,-2.3469 -2.1861,-0.4049 -4.3559,-0.9561 -6.5934,-0.9519 -1.2553,-0.06 -2.5117,-0.095 -3.7686,-0.083 z"
         sodipodi:nodetypes="sccccccccccccccccccccccccccccccccccccccccccccccccccccccccccccccccccccccccccccccccccccccccccccccccccccccccccccccccccccssccccccccccccccccccss" /><path
         style="font-variation-settings:'wght' 600;opacity:1;fill:#bb9167;fill-opacity:1;fill-rule:evenodd;stroke-width:10;stroke-linecap:round;stroke-linejoin:round;paint-order:stroke fill markers"
         d="m 6667.1903,6007.4195 c 0,0 -10.8784,-1.7011 -16.1133,-0.4883 -6.4544,1.4954 -12.3599,5.1949 -17.5781,9.2774 -15.9791,12.5014 -29.6844,28.2623 -40.5274,45.4101 -31.3422,49.5664 -68.273,163.086 -68.273,163.086 0,0 -69.0028,-8.6755 -102.1371,-0.9766 -10.068,2.3394 -20.4653,6.4214 -27.832,13.6719 -5.8623,5.7699 -7.4884,14.6477 -11.2305,21.9727 -4.0268,7.8823 -2.9088,14.6365 0.488,20.5078 2.351,4.0637 4.7676,8.1453 7.8125,11.7187 27.4889,32.2601 93.2617,86.4258 93.2617,86.4258 31.5402,29.2284 93.8629,21.4481 115.9667,0 l 139.8927,-135.7422 42.9687,-17.5781 h 251.4649 l -1.4649,58.4006 c -0.1912,7.6213 5.9485,7.5237 10.7422,2.9297 l 35.1563,-33.6914 c 3.8974,-3.735 6.4335,-8.2938 6.3476,-13.6719 l -0.488,-30.5686 49.8047,-45.4101 c 12.2804,-11.1968 14.7725,-23.0712 14.1602,-34.668 l -8.3008,-157.2266 29.2969,-21.4843 c 4.9333,-3.6177 7.3762,-8.4968 7.3242,-15.1368 l -1.4649,-187.0117 -59.5703,1.4649 v 136.2305 l -53.7109,53.2226 -84.4727,-190.4297 -52.2461,0.9766 51.7579,128.418 -1.4649,120.6055 H 6741.409 l 1.4649,-84.4727 -30.2734,-30.2734 1.4648,-132.8125 -46.875,0.4883 z"
         id="path2"
         sodipodi:nodetypes="cssscssssssscccsssscsscsscccccccccccccc" /><path
         id="path7"
         style="font-variation-settings:'wght' 600;fill:#000000;fill-opacity:1;fill-rule:evenodd;stroke-width:11.0024;stroke-linecap:round;stroke-linejoin:round;paint-order:stroke fill markers"
         d="m 6525.8457,6347.4421 a 17.324497,26.953098 0 0 0 -17.3245,-26.9531 17.324497,26.953098 0 0 0 -17.3245,26.9531 17.324497,26.953098 0 0 0 17.3245,26.9531 17.324497,26.953098 0 0 0 17.3245,-26.9531 z" /><path
         id="path8"
         style="font-variation-settings:'wght' 600;fill:#000000;fill-opacity:1;fill-rule:evenodd;stroke-width:8.83918;stroke-linecap:round;stroke-linejoin:round;paint-order:stroke fill markers"
         d="m 6412.2621,6287.6321 c 6.9025,0 14.04,0.3502 18.8512,-1.2999 12.7232,-4.3637 10.829,-14.9858 -3.5962,-19.1015 -4.3377,-1.2377 -13.2048,-3.6823 -18.8674,-3.6823 -14.8858,0 -18.7737,1.9647 -27.616,6.0994 -1.2786,0.5979 3.1857,14.1999 6.8665,16.075 4.8909,2.4916 16.1824,1.9093 24.3619,1.9093 z"
         sodipodi:nodetypes="sssssss" /><path
         style="font-variation-settings:'wght' 600;opacity:1;fill:#f3b000;fill-opacity:1;fill-rule:evenodd;stroke-width:10;stroke-linecap:round;stroke-linejoin:round;paint-order:stroke fill markers"
         d="m 6582.6793,6367.0159 c -14.8528,-12.8566 -21.1858,-7.1702 -29.3479,-5.4647 l -2.2836,34.4369 c 0,0 -24.5413,-1.52 -36.6073,0.3026 -40.3303,6.0919 -49.3766,52.8979 -48.8346,69.9412 0.5078,15.9668 29.9342,18.1567 29.5683,-0.663 -0.2908,-14.954 1.9006,-28.597 13.347,-34.9134 16.53,-9.1216 39.6376,-13.2319 39.7279,-0.442 l 0.6629,95.4595 c 0.1256,18.0844 31.7543,18.9252 32.2618,-0.442 0,0 -0.8719,-39.5937 0.2349,-57.4524 0.1523,-2.4566 4.6985,-3.7694 6.8913,-2.6516 4.0749,2.0773 1.6768,10.6496 5.5874,13.2582 12.7383,-1.087 34.9263,-0.8495 41.757,-1.7677 0.682,20.3631 0.7435,48.0958 0.7435,48.0958 0.621,16.9521 31.8103,16.2809 31.7457,0 l 0.1028,-43.6718 34.4714,-0.8839 c 12.0518,7.6455 17.384,17.8243 21.5212,30.052 l 0.5759,18.5616 c 0.4645,14.9704 26.0527,16.939 26.4093,-0.1027 0.2252,-10.7618 3.2877,-23.6188 -1.3532,-33.851 -11.5168,-25.3915 -27.8999,-36.0746 -43.2567,-40.0337 -7.1916,-1.854 -14.2135,-4.5786 -21.5748,-5.5621 -21.9044,-2.9266 -55.8211,0.3359 -66.2912,-0.8839 -10.7752,-1.2553 -22.3277,3.4637 -28.2843,-14.1422 -2.5917,-7.6603 -6.4619,-15.0015 -7.7752,-22.981 -2.201,-13.373 5e-4,-44.1987 5e-4,-44.1987"
         id="path9"
         sodipodi:nodetypes="cccssssssssscccccccssssssssc" /><path
         style="font-variation-settings:'wght' 600;opacity:1;fill:#f2f2f2;fill-opacity:1;fill-rule:evenodd;stroke-width:10;stroke-linecap:round;stroke-linejoin:round;paint-order:stroke fill markers"
         d="m 6524.6985,6224.7047 h 78.3643 l 33.1456,-94.3009 c 3.5568,-10.1192 2.2818,-19.6996 -0.691,-26.2403 -4.9286,-10.8437 -14.599,-19.7485 -27.6214,-20.0255 -25.338,-0.539 -29.9252,3.1343 -33.1428,11.5251 l -49.4688,129.0025"
         id="path4"
         sodipodi:nodetypes="ccssssc" /><path
         style="font-variation-settings:'wght' 600;opacity:1;fill:#f2f2f2;fill-opacity:1;fill-rule:evenodd;stroke-width:10;stroke-linecap:round;stroke-linejoin:round;paint-order:stroke fill markers"
         d="m 6741.409,5997.654 1.2521,60.2438 h 198.4318 l 69.3849,-60.2439 z"
         id="path5" /><path
         style="font-variation-settings:'wght' 600;opacity:0.5;fill:#8e562e;fill-opacity:1;fill-rule:evenodd;stroke-width:10;stroke-linecap:round;stroke-linejoin:round;paint-order:stroke fill markers"
         d="m 6976.7606,5997.654 30,-1e-4 56.4258,-59.5703 -84.4727,-190.4297 -52.2461,0.9766 51.7579,128.418 z"
         id="path6" /></g></g></svg>
