<?xml version="1.0" encoding="UTF-8" standalone="no"?>
<!-- Created with Inkscape (http://www.inkscape.org/) -->

<svg
   width="100"
   height="100"
   inkscape:version="1.3.2 (091e20e, 2023-11-25, custom)"
   sodipodi:docname="default_icon.svg"
   xml:space="preserve"
   version="1.1"
   id="svg1"
   xmlns:inkscape="http://www.inkscape.org/namespaces/inkscape"
   xmlns:sodipodi="http://sodipodi.sourceforge.net/DTD/sodipodi-0.dtd"
   xmlns="http://www.w3.org/2000/svg"
   xmlns:svg="http://www.w3.org/2000/svg"><sodipodi:namedview
     id="namedview1"
     pagecolor="#ffffff"
     bordercolor="#111111"
     borderopacity="1"
     inkscape:showpageshadow="0"
     inkscape:pageopacity="0"
     inkscape:pagecheckerboard="1"
     inkscape:deskcolor="#d1d1d1"
     inkscape:document-units="mm"
     inkscape:zoom="2.3777751"
     inkscape:cx="27.967321"
     inkscape:cy="60.771097"
     inkscape:current-layer="g1" /><defs
     id="defs1"><inkscape:path-effect
       effect="fillet_chamfer"
       id="path-effect39"
       is_visible="true"
       lpeversion="1"
       nodesatellites_param="F,0,0,1,0,0,0,1 @ F,0,0,1,0,0,0,1 @ F,0,0,1,0,0,0,1 @ F,0,0,1,0,0,0,1 @ F,0,0,1,0,0,0,1 @ F,0,0,1,0,0,0,1"
       radius="0"
       unit="px"
       method="auto"
       mode="F"
       chamfer_steps="1"
       flexible="false"
       use_knot_distance="true"
       apply_no_radius="true"
       apply_with_radius="true"
       only_selected="false"
       hide_knots="false" /><filter
       inkscape:collect="always"
       style="color-interpolation-filters:sRGB"
       id="filter2"
       x="-0.020551102"
       y="-0.039346991"
       width="1.0411022"
       height="1.078694"><feGaussianBlur
         inkscape:collect="always"
         stdDeviation="8.3687201"
         id="feGaussianBlur2" /></filter></defs><g
     inkscape:label="Layer 1"
     inkscape:groupmode="layer"
     id="layer1"><g
       id="g2"
       transform="matrix(0.09732707,0,0,0.09732707,0,15.987039)">
	<g
   id="g1"
   transform="translate(-25.0737,-223.30363)"><rect
     style="fill:#383757;fill-opacity:1;fill-rule:evenodd;stroke:none;stroke-width:10.396px;stroke-linecap:butt;stroke-linejoin:miter;stroke-opacity:1"
     id="rect1"
     width="1027.4634"
     height="1027.4634"
     x="25.073698"
     y="59.04266"
     rx="831.68567"
     ry="1027.4634" /><g
     id="g3"
     transform="matrix(0.99899009,0,0,0.99899009,8.2820969,281.49769)"><path
       d="m 183.60144,149.82187 c 28.62,37.803 17.946,74.966 14.056,117.303 l 39.078,-6.399 c 5.701,-0.934 11.179,-1.407 16.281,-1.407 18.732,0 33.224,6.161 45.605,19.389 16.403,17.523 22.271,38.406 18.469,65.72 l -4.853,34.857 h 35.193 c 40.339,0 78.615,17.27 113.763,51.331 27.416,26.568 42.575,53.871 43.233,55.07 l 28.76035,57.57016 24.50565,-57.57016 c 0.658,-1.199 15.817,-28.502 43.233,-55.069 35.147,-34.062 73.423,-51.332 113.763,-51.332 h 35.193 l -4.854,-34.857 c -3.802,-27.312 2.066,-48.195 18.469,-65.72 12.382,-13.229 26.873,-19.389 45.605,-19.389 5.102,0 10.579,0.474 16.281,1.407 l 39.078,6.399 c -3.891,-42.337 -14.564,-79.501 14.055,-117.303 33.993,-44.901 141.20236,-47.089 141.20236,-47.089 C 948.61058,29.433899 825.71744,35.792899 745.63444,64.743899 c -26.967,9.748997 -57.531,20.797986 -84.575,40.972971 -17.831,13.302 -32.229,30.529 -43.048,46.312 -0.003,-18.746 -0.006,-36.787 -0.006,-36.787 l 1.40323,-82.442364 -53.69623,60.787372 -12.959,12.958992 c 0,0 -14.06161,-7.331116 -21.695,-7.331116 -7.63339,0 -21.695,7.331116 -21.695,7.331116 l -12.959,-12.958992 -52.278,-60.078256 -0.015,81.733248 c 0,0 -0.003,18.04 -0.006,36.787 -10.819,-15.783 -25.217,-33.01 -43.048,-46.312 -27.044,-20.174985 -57.609,-31.223974 -84.575,-40.972971 -80.082,-28.952 -202.975,-35.312 -274.080974,37.986971 -10e-4,0.002 107.206974,2.19 141.199974,47.091 z m -40.808,-68.802981 c 18.549,-3.989997 37.307,-5.428993 56.099,-5.428993 7.354,0 14.716,0.22 22.068,0.595 29.131,1.482996 57.572,7.410993 85.107,17.365982 26.796,9.686992 53.72,19.595992 76.673,36.718992 36.75,27.415 57.042,76.533 57.042,76.533 0,0 34.952,-15.194 34.952,-18.853 0,-17.733 0.01,-72.703 0.01,-72.703 l 21.932,21.931 c 0,0 23.24814,-8.76572 35.39622,-8.68074 11.4935,0.0804 33.37078,8.68074 33.37078,8.68074 l 21.932,-21.931 c 0,0 0.01,54.969 0.01,72.703 0,3.658 34.952,18.853 34.952,18.853 0,0 20.292,-49.117 57.042,-76.533 22.953,-17.123 49.877,-27.031 76.673,-36.718992 27.536,-9.953989 55.977,-15.881986 85.106,-17.365982 7.354,-0.375 14.715,-0.595 22.068,-0.595 18.792,0 37.55,1.438996 56.099,5.428993 8.716,1.875 21.03999,6.498996 21.03999,6.498996 -16.30099,1.573996 -113.12799,23.419985 -113.12799,107.093985 0,11.858 1.98,23.728 3.097,35.885 -7.223,-1.184 -14.313,-1.811 -21.23,-1.811 -25.511,0 -48.716,8.519 -67.969,29.088 -23.936,25.571 -31.243,56.415 -26.445,90.877 -113.438,0 -178.311,112.333 -183.629,121.897 -5.318,-9.564 -70.191,-121.897 -183.629,-121.897 4.798,-34.462 -2.51,-65.305 -26.445,-90.877 -19.253,-20.569 -42.458,-29.088 -67.969,-29.088 -6.917,0 -14.008,0.627 -21.231,1.811 1.117,-12.157 3.097,-24.026 3.097,-35.885 0,-83.674 -96.827,-105.519989 -113.128,-107.093985 -0.003,-0.001 12.322,-4.624996 21.037,-6.498996 z"
       id="path2"
       sodipodi:nodetypes="cccscccssccccsccssccccsscccccacccccsscccsccccsccaccsccccsscscscccccscscc"
       style="mix-blend-mode:normal;fill:#000000;fill-opacity:1;filter:url(#filter2)" /><path
       d="m 191.34738,176.9935 c 28.62,37.803 17.946,74.966 14.056,117.303 l 39.078,-6.399 c 5.701,-0.934 11.179,-1.407 16.281,-1.407 18.732,0 33.224,6.161 45.605,19.389 16.403,17.523 22.271,38.406 18.469,65.72 l -4.853,34.857 h 35.193 c 40.339,0 78.615,17.27 113.763,51.331 27.416,26.568 42.575,53.871 43.233,55.07 l 28.76035,57.57016 24.50565,-57.57016 c 0.658,-1.199 15.817,-28.502 43.233,-55.069 35.147,-34.062 73.423,-51.332 113.763,-51.332 h 35.193 l -4.854,-34.857 c -3.802,-27.312 2.066,-48.195 18.469,-65.72 12.382,-13.229 26.873,-19.389 45.605,-19.389 5.102,0 10.579,0.474 16.281,1.407 l 39.078,6.399 c -3.891,-42.337 -14.564,-79.501 14.055,-117.303 33.993,-44.901 141.20202,-47.089 141.20202,-47.089 C 956.35638,56.605503 833.46338,62.964503 753.38038,91.915503 c -26.967,9.748997 -57.531,20.797997 -84.575,40.972997 -17.831,13.302 -32.229,30.529 -43.048,46.312 -0.003,-18.746 -0.006,-36.787 -0.006,-36.787 l 1.40323,-82.44239 -53.69623,60.78739 -12.959,12.959 c 0,0 -14.06161,-7.33112 -21.695,-7.33112 -7.63339,0 -21.695,7.33112 -21.695,7.33112 l -12.959,-12.959 -52.278,-60.078274 -0.015,81.733274 c 0,0 -0.003,18.04 -0.006,36.787 -10.819,-15.783 -25.217,-33.01 -43.048,-46.312 -27.044,-20.175 -57.609,-31.224 -84.575,-40.972997 -80.082,-28.952 -202.975,-35.312 -274.081003,37.986997 -10e-4,0.002 107.207003,2.19 141.200003,47.091 z m -40.808,-68.803 c 18.549,-3.99 37.307,-5.429 56.099,-5.429 7.354,0 14.716,0.22 22.068,0.595 29.131,1.483 57.572,7.411 85.107,17.366 26.796,9.687 53.72,19.596 76.673,36.719 36.75,27.415 57.042,76.533 57.042,76.533 0,0 34.952,-15.194 34.952,-18.853 0,-17.733 0.01,-72.703 0.01,-72.703 l 21.932,21.931 c 0,0 23.24814,-8.76572 35.39622,-8.68074 11.4935,0.0804 33.37078,8.68074 33.37078,8.68074 l 21.932,-21.931 c 0,0 0.01,54.969 0.01,72.703 0,3.658 34.952,18.853 34.952,18.853 0,0 20.292,-49.117 57.042,-76.533 22.953,-17.123 49.877,-27.031 76.673,-36.719 27.536,-9.954 55.977,-15.882 85.106,-17.366 7.354,-0.375 14.715,-0.595 22.068,-0.595 18.792,0 37.55,1.439 56.099,5.429 8.716,1.875 21.04,6.499 21.04,6.499 -16.301,1.574 -113.128,23.42 -113.128,107.094 0,11.858 1.98,23.728 3.097,35.885 -7.223,-1.184 -14.313,-1.811 -21.23,-1.811 -25.511,0 -48.716,8.519 -67.969,29.088 -23.936,25.571 -31.243,56.415 -26.445,90.877 -113.438,0 -178.311,112.333 -183.629,121.897 -5.318,-9.564 -70.191,-121.897 -183.629,-121.897 4.798,-34.462 -2.51,-65.305 -26.445,-90.877 -19.253,-20.569 -42.458,-29.088 -67.969,-29.088 -6.917,0 -14.008,0.627 -21.231,1.811 1.117,-12.157 3.097,-24.026 3.097,-35.885 0,-83.674 -96.827,-105.52 -113.128,-107.094 -0.003,-10e-4 12.322,-4.625 21.037,-6.499 z"
       id="path1"
       sodipodi:nodetypes="cccscccssccccsccssccccsscccccacccccsscccsccccsccaccsccccsscscscccccscscc"
       style="fill:#ffffe0;fill-opacity:1" /></g></g>
</g></g></svg>
