<?xml version="1.0" encoding="UTF-8" standalone="no"?>
<svg
   version="1.1"
   id="download-icon"
   width="100px"
   height="100px"
   sodipodi:docname="download-icon.svg"
   inkscape:version="1.3.2 (091e20e, 2023-11-25, custom)"
   xmlns:inkscape="http://www.inkscape.org/namespaces/inkscape"
   xmlns:sodipodi="http://sodipodi.sourceforge.net/DTD/sodipodi-0.dtd"
   xmlns="http://www.w3.org/2000/svg"
   xmlns:svg="http://www.w3.org/2000/svg">
  <defs
     id="defs1" />
  <sodipodi:namedview
     id="namedview1"
     pagecolor="#ffffff"
     bordercolor="#111111"
     borderopacity="1"
     inkscape:showpageshadow="0"
     inkscape:pageopacity="0"
     inkscape:pagecheckerboard="1"
     inkscape:deskcolor="#d1d1d1"
     inkscape:zoom="5.6718391"
     inkscape:cx="66.821359"
     inkscape:cy="42.226162"
     inkscape:current-layer="download-icon" />
  <path
     id="path1"
     style="fill:#49bbaa;fill-opacity:1;stroke-width:2.60875"
     d="m 49.765625,4.5585938 c -2.460384,0.06923 -4.499266,2.4211568 -4.277344,4.8624999 0,16.6825523 0,33.3651043 0,50.0476563 -4.068174,-4.044723 -8.090937,-8.137921 -12.1875,-12.152344 -1.914562,-1.652572 -5.153206,-1.214855 -6.547677,0.900215 -1.381376,1.85501 -0.96388,4.669159 0.814838,6.119013 6.52804,6.509673 13.015282,13.062435 19.568777,19.545225 1.815033,1.554772 4.79231,1.270091 6.319586,-0.55585 C 59.98516,66.775953 66.559661,60.269927 73.059982,53.693968 74.740353,51.78363 74.294427,48.51542 72.166198,47.120283 70.311332,45.748143 67.5047,46.167372 66.057067,47.941112 62.215749,51.784279 58.374263,55.627278 54.533203,59.470703 54.521866,42.555435 54.555894,25.639053 54.516184,8.7244822 54.378169,6.3298952 52.157977,4.3872605 49.765625,4.5585938 Z M 15.189453,64.888672 c -2.460433,0.06924 -4.499888,2.420844 -4.277344,4.8625 0.01564,7.212928 -0.03126,14.427635 0.02344,21.639453 0.185983,2.373134 2.482539,4.269377 4.844922,4.056641 23.043129,-0.0092 46.087257,0.0184 69.129762,-0.0138 2.422417,-0.118291 4.39497,-2.450101 4.17766,-4.854561 -0.01564,-7.212928 0.03126,-14.427635 -0.02344,-21.639453 -0.190528,-2.501262 -2.744276,-4.462844 -5.210937,-4.001953 -2.308758,0.316486 -4.043568,2.609192 -3.808594,4.913672 0,5.517708 0,11.035417 0,16.553125 -20.029948,0 -40.059896,0 -60.089844,0 -0.01559,-5.821392 0.0312,-11.644561 -0.02344,-17.464844 -0.196217,-2.338621 -2.399271,-4.223358 -4.742188,-4.050781 z" />
</svg>
