<?xml version="1.0" encoding="UTF-8" standalone="no"?>
<svg
   height="100px"
   width="100px"
   version="1.1"
   id="Exmark"
   xml:space="preserve"
   sodipodi:docname="exclamation-mark-inside-a-circle.svg"
   inkscape:version="1.3.2 (091e20e, 2023-11-25, custom)"
   xmlns:inkscape="http://www.inkscape.org/namespaces/inkscape"
   xmlns:sodipodi="http://sodipodi.sourceforge.net/DTD/sodipodi-0.dtd"
   xmlns="http://www.w3.org/2000/svg"
   xmlns:svg="http://www.w3.org/2000/svg"><defs
   id="defs4" /><sodipodi:namedview
   id="namedview4"
   pagecolor="#ffffff"
   bordercolor="#111111"
   borderopacity="1"
   inkscape:showpageshadow="0"
   inkscape:pageopacity="0"
   inkscape:pagecheckerboard="1"
   inkscape:deskcolor="#d1d1d1"
   inkscape:zoom="2.4970419"
   inkscape:cx="105.12439"
   inkscape:cy="33.439567"
   inkscape:current-layer="Exmark" />
<g
   id="g4"
   style="fill:#800000"
   transform="matrix(3.520595,0,0,3.520595,0.77504006,0.77680036)">
	<g
   id="g2"
   style="fill:#800000">
		<path
   d="M 13.983,0 C 6.261,0 0.001,6.259 0.001,13.979 c 0,7.724 6.26,13.984 13.982,13.984 7.722,0 13.98,-6.261 13.98,-13.984 C 27.963,6.259 21.705,0 13.983,0 Z m 0,26.531 c -6.933,0 -12.55,-5.62 -12.55,-12.553 0,-6.93 5.617,-12.548 12.55,-12.548 6.931,0 12.549,5.618 12.549,12.548 -0.001,6.933 -5.619,12.553 -12.549,12.553 z"
   id="path1"
   style="fill:#800000" />
		<polygon
   points="12.414,17.158 15.579,17.158 16.191,4.579 11.804,4.579 "
   id="polygon1"
   style="fill:#800000" />
		<path
   d="m 13.998,18.546 c -1.471,0 -2.5,1.029 -2.5,2.526 0,1.443 0.999,2.528 2.444,2.528 h 0.056 c 1.499,0 2.469,-1.085 2.469,-2.528 -0.026,-1.497 -0.999,-2.526 -2.469,-2.526 z"
   id="path2"
   style="fill:#800000" />
	</g>
	<g
   id="g3"
   style="fill:#800000">
	</g>
</g>
</svg>
