<?xml version="1.0" encoding="UTF-8" standalone="no"?>
<!-- Created with Inkscape (http://www.inkscape.org/) -->

<svg
   width="100"
   height="100"
   version="1.1"
   id="star_off"
   inkscape:version="1.3.1 (9b9bdc1480, 2023-11-25, custom)"
   sodipodi:docname="favorite-icon-star-on.svg"
   xml:space="preserve"
   xmlns:inkscape="http://www.inkscape.org/namespaces/inkscape"
   xmlns:sodipodi="http://sodipodi.sourceforge.net/DTD/sodipodi-0.dtd"
   xmlns="http://www.w3.org/2000/svg"
   xmlns:svg="http://www.w3.org/2000/svg"><sodipodi:namedview
     id="namedview1"
     pagecolor="#ffffff"
     bordercolor="#111111"
     borderopacity="1"
     inkscape:showpageshadow="0"
     inkscape:pageopacity="0"
     inkscape:pagecheckerboard="1"
     inkscape:deskcolor="#d1d1d1"
     inkscape:document-units="mm"
     inkscape:zoom="3.387009"
     inkscape:cx="18.157613"
     inkscape:cy="51.077514"
     inkscape:current-layer="layer1"
     inkscape:window-width="1318"
     inkscape:window-height="699"
     inkscape:window-x="0"
     inkscape:window-y="0"
     inkscape:window-maximized="1" /><defs
     id="defs1"><inkscape:path-effect
       effect="fillet_chamfer"
       id="path-effect39"
       is_visible="true"
       lpeversion="1"
       nodesatellites_param="F,0,0,1,0,0,0,1 @ F,0,0,1,0,0,0,1 @ F,0,0,1,0,0,0,1 @ F,0,0,1,0,0,0,1 @ F,0,0,1,0,0,0,1 @ F,0,0,1,0,0,0,1"
       radius="0"
       unit="px"
       method="auto"
       mode="F"
       chamfer_steps="1"
       flexible="false"
       use_knot_distance="true"
       apply_no_radius="true"
       apply_with_radius="true"
       only_selected="false"
       hide_knots="false" /></defs><g
     inkscape:label="Layer 1"
     inkscape:groupmode="layer"
     id="layer1"><path
       style="fill:#49bbaa;fill-opacity:1;stroke:#49bbaa;stroke-width:1.73267;stroke-opacity:1"
       d="m 49.80855,7.3628872 c 3.782673,-0.056485 5.051857,3.4606378 6.497949,6.3052388 2.955216,5.813282 5.759932,13.624147 9.99466,18.573431 1.823831,2.131571 4.569654,2.356837 7.162828,2.786384 4.655386,0.77111 9.323578,1.497724 13.960582,2.371635 3.709987,0.699204 10.071349,0.579441 10.347156,5.740907 0.158194,2.958492 -3.056318,5.505662 -4.918043,7.368098 -4.177151,4.178744 -12.54601,9.864156 -14.496793,15.511759 -0.878797,2.544139 0.0603,5.569978 0.431176,8.143677 0.779963,5.412791 1.84575,10.842875 2.365968,16.287356 0.32368,3.38764 -0.252624,7.870089 -4.587692,8.085027 -2.528544,0.125446 -5.176713,-1.883141 -7.368097,-2.943468 -5.359737,-2.593382 -12.707909,-7.992191 -18.614114,-8.634407 -2.767895,-0.300948 -5.385863,1.436492 -7.755886,2.621504 -4.507589,2.253794 -8.969489,4.690577 -13.572791,6.742116 -3.067719,1.367185 -6.33253,3.543044 -9.24961,0.638838 -2.194883,-2.185216 -1.162296,-5.746314 -0.782458,-8.448577 0.935731,-6.657199 2.98928,-13.817237 2.648428,-20.553099 -0.148837,-2.942412 -2.294876,-4.633919 -4.250183,-6.5925 C 14.196859,57.9363 10.974828,54.332215 7.5389849,50.896371 4.9932686,48.350655 0.24454268,44.503683 3.1137664,40.447178 c 1.6752545,-2.36848 5.314774,-2.398127 7.9153626,-2.831556 5.038846,-0.83981 10.107007,-1.580875 15.123969,-2.54251 2.256377,-0.432493 4.769414,-0.527253 6.575746,-2.103554 4.915027,-4.289082 7.663969,-13.585509 10.755304,-19.301432 1.489962,-2.754935 2.613186,-6.2498625 6.324402,-6.3052388"
       id="path1" /><circle
       style="opacity:0.85;fill:#ffff00;fill-rule:evenodd;stroke:#ffff00;stroke-linecap:round;stroke-linejoin:round;paint-order:stroke fill markers"
       id="path2"
       cx="-45.320221"
       cy="24.948265"
       r="3.3953261" /><circle
       style="opacity:0.85;fill:#f7b733;fill-rule:evenodd;stroke:#ffff00;stroke-linecap:round;stroke-linejoin:round;paint-order:stroke fill markers;fill-opacity:1"
       id="path3"
       cx="-44.13924"
       cy="40.891537"
       r="3.6905718" /><circle
       style="fill:#49bbaa;fill-opacity:1"
       id="path4"
       cx="-46.26593"
       cy="8.2392015"
       r="4.056169" /></g></svg>
