<?xml version="1.0" encoding="UTF-8" standalone="no"?>
<!-- Created with Inkscape (http://www.inkscape.org/) -->

<svg
   width="100"
   height="100"
   version="1.1"
   id="star_off"
   inkscape:version="1.3.2 (091e20e, 2023-11-25, custom)"
   sodipodi:docname="favorite-icon-star-off.svg"
   xml:space="preserve"
   xmlns:inkscape="http://www.inkscape.org/namespaces/inkscape"
   xmlns:sodipodi="http://sodipodi.sourceforge.net/DTD/sodipodi-0.dtd"
   xmlns="http://www.w3.org/2000/svg"
   xmlns:svg="http://www.w3.org/2000/svg"><sodipodi:namedview
     id="namedview1"
     pagecolor="#ffffff"
     bordercolor="#111111"
     borderopacity="1"
     inkscape:showpageshadow="0"
     inkscape:pageopacity="0"
     inkscape:pagecheckerboard="1"
     inkscape:deskcolor="#d1d1d1"
     inkscape:document-units="mm"
     inkscape:zoom="4.9563823"
     inkscape:cx="69.304582"
     inkscape:cy="49.128575"
     inkscape:current-layer="layer1"
     inkscape:window-width="1318"
     inkscape:window-height="699"
     inkscape:window-x="0"
     inkscape:window-y="0"
     inkscape:window-maximized="1" /><defs
     id="defs1"><inkscape:path-effect
       effect="fillet_chamfer"
       id="path-effect39"
       is_visible="true"
       lpeversion="1"
       nodesatellites_param="F,0,0,1,0,0,0,1 @ F,0,0,1,0,0,0,1 @ F,0,0,1,0,0,0,1 @ F,0,0,1,0,0,0,1 @ F,0,0,1,0,0,0,1 @ F,0,0,1,0,0,0,1"
       radius="0"
       unit="px"
       method="auto"
       mode="F"
       chamfer_steps="1"
       flexible="false"
       use_knot_distance="true"
       apply_no_radius="true"
       apply_with_radius="true"
       only_selected="false"
       hide_knots="false" /></defs><g
     inkscape:label="Layer 1"
     inkscape:groupmode="layer"
     id="layer1"><path
       id="path1"
       style="fill:none;stroke:#49bbaa;stroke-width:3.92025;stroke-dasharray:none;stroke-opacity:1"
       d="m 49.729281,4.4756044 c -2.381402,-0.015881 -4.532009,1.4776689 -5.727224,3.4759204 -1.186102,1.9736325 -2.17853,4.0595132 -3.192834,6.1251852 -1.120176,2.424275 -2.134885,4.870786 -3.233715,7.210354 -0.452875,0.937242 -1.029831,2.135622 -1.602323,3.140319 -1.133291,1.982538 -2.380774,4.02514 -4.263767,5.377676 -1.813146,0.969772 -3.942208,0.934114 -5.906777,1.401859 -4.701651,0.857762 -9.559574,1.610858 -14.333234,2.371376 -2.6655061,0.327057 -5.6549495,0.740865 -7.5190511,2.890329 -1.6140304,1.799689 -2.0304464,4.526118 -0.9990923,6.717626 1.4488835,3.2366 4.4300368,5.352574 6.7563283,7.911802 3.2880951,3.431139 6.5223041,6.915515 9.9092411,10.249853 1.029136,1.010522 1.712837,2.397355 1.585058,3.865604 0.04517,1.696638 -0.0879,3.392343 -0.274483,5.0776 -0.05132,0.331402 -0.134293,1.076945 -0.212742,1.570623 -0.641303,4.304348 -1.605001,8.553702 -2.205009,12.864879 -0.463062,2.56405 -0.873619,5.638846 0.782359,7.942119 1.428912,2.046202 4.087756,3.159021 6.539203,2.574757 2.475039,-0.52481 4.651193,-1.897079 6.96521,-2.862174 4.868572,-2.308135 9.606084,-4.882958 14.434224,-7.270315 1.354933,-0.665661 2.918661,-0.897245 4.380238,-0.45943 4.116409,1.035403 7.743322,3.351955 11.407654,5.407645 2.497572,1.479204 5.118602,2.734062 7.652007,4.149422 2.184958,1.204286 4.913931,1.840208 7.272046,0.743901 2.420544,-1.055695 3.602385,-3.742089 3.781156,-6.244733 0.228618,-2.858038 -0.354628,-5.698933 -0.701704,-8.525156 -0.574222,-3.781782 -1.195305,-7.523199 -1.771944,-11.271123 -0.366376,-2.214974 -1.090964,-4.673335 0.109917,-6.767102 1.750904,-3.239465 4.625267,-5.658786 7.324492,-8.085254 2.993625,-2.564631 5.989889,-5.148887 8.65288,-8.062766 1.581672,-1.762157 2.720988,-4.184571 2.130314,-6.586731 C 97.027273,36.963288 94.936551,35.172773 92.6403,34.470585 89.886295,33.575371 86.959254,33.502328 84.143994,32.876214 79.385476,31.996412 74.587672,31.333236 69.832444,30.443639 68.458472,30.176479 67.221281,29.391109 66.453502,28.212867 62.659248,23.17383 60.585302,17.142891 57.74672,11.568171 56.543488,9.1271628 55.343751,6.3334939 52.739324,5.0940553 51.805321,4.6435004 50.76278,4.4520335 49.729281,4.4756044 Z" /><circle
       style="fill:#49bbaa;fill-opacity:1"
       id="path4"
       cx="-18.236271"
       cy="20.917173"
       r="4.056169" /><circle
       style="opacity:0.85;fill:#f7b733;fill-opacity:1;fill-rule:evenodd;stroke:#ffff00;stroke-linecap:round;stroke-linejoin:round;paint-order:stroke fill markers"
       id="path3"
       cx="-18.120285"
       cy="34.590668"
       r="3.6905718" /></g></svg>
