<?xml version="1.0" encoding="UTF-8" standalone="no"?>
<svg
   version="1.0"
   width="100px"
   height="100px"
   id="home-icon"
   sodipodi:docname="home-icon.svg"
   inkscape:version="1.3.2 (091e20e, 2023-11-25, custom)"
   xml:space="preserve"
   xmlns:inkscape="http://www.inkscape.org/namespaces/inkscape"
   xmlns:sodipodi="http://sodipodi.sourceforge.net/DTD/sodipodi-0.dtd"
   xmlns="http://www.w3.org/2000/svg"
   xmlns:svg="http://www.w3.org/2000/svg"><defs
     id="defs2"><inkscape:path-effect
       effect="fillet_chamfer"
       id="path-effect23"
       is_visible="true"
       lpeversion="1"
       nodesatellites_param="F,0,0,1,0,0,0,1 @ F,0,0,1,0,0,0,1 @ F,0,0,1,0,0,0,1 @ F,0,0,1,0,0,0,1 @ F,0,0,1,0,0,0,1 @ F,0,0,1,0,0,0,1 @ F,0,0,1,0,0,0,1 @ F,0,0,1,0,0,0,1"
       radius="0"
       unit="px"
       method="auto"
       mode="F"
       chamfer_steps="1"
       flexible="false"
       use_knot_distance="true"
       apply_no_radius="true"
       apply_with_radius="true"
       only_selected="false"
       hide_knots="false" /><inkscape:path-effect
       effect="fillet_chamfer"
       id="path-effect21"
       is_visible="true"
       lpeversion="1"
       nodesatellites_param="F,0,0,1,0,0,0,1 @ F,0,0,1,0,0,0,1 @ F,0,0,1,0,0,0,1 @ F,0,0,1,0,0,0,1 @ F,0,0,1,0,0,0,1 @ F,0,0,1,0,0,0,1 @ F,0,0,1,0,0,0,1 @ F,0,0,1,0,0,0,1"
       radius="0"
       unit="px"
       method="auto"
       mode="F"
       chamfer_steps="1"
       flexible="false"
       use_knot_distance="true"
       apply_no_radius="true"
       apply_with_radius="true"
       only_selected="false"
       hide_knots="false" /><inkscape:path-effect
       effect="fillet_chamfer"
       id="path-effect19"
       is_visible="true"
       lpeversion="1"
       nodesatellites_param="F,0,0,1,0,0,0,1 @ F,0,0,1,0,0,0,1 @ F,0,0,1,0,0,0,1 @ F,0,0,1,0,0,0,1 @ F,0,0,1,0,0,0,1 @ F,0,0,1,0,0,0,1 @ F,0,0,1,0,0,0,1 @ F,0,0,1,0,0,0,1"
       radius="0"
       unit="px"
       method="auto"
       mode="F"
       chamfer_steps="1"
       flexible="false"
       use_knot_distance="true"
       apply_no_radius="true"
       apply_with_radius="true"
       only_selected="false"
       hide_knots="false" /><inkscape:path-effect
       effect="fillet_chamfer"
       id="path-effect15"
       is_visible="true"
       lpeversion="1"
       nodesatellites_param="F,0,0,1,0,0,0,1 @ F,0,0,1,0,0,0,1 @ F,0,0,1,0,0,0,1 @ F,0,0,1,0,0,0,1 @ F,0,0,1,0,0,0,1 @ F,0,0,1,0,0,0,1 @ F,0,0,1,0,0,0,1 @ F,0,0,1,0,0,0,1"
       radius="0"
       unit="px"
       method="auto"
       mode="F"
       chamfer_steps="1"
       flexible="false"
       use_knot_distance="true"
       apply_no_radius="true"
       apply_with_radius="true"
       only_selected="false"
       hide_knots="false" /><inkscape:path-effect
       effect="fillet_chamfer"
       id="path-effect13"
       is_visible="true"
       lpeversion="1"
       nodesatellites_param="F,0,0,1,0,0,0,1 @ F,0,0,1,0,0,0,1 @ F,0,0,1,0,0,0,1 @ F,0,0,1,0,0,0,1 @ F,0,0,1,0,0,0,1 @ F,0,0,1,0,0,0,1 @ F,0,0,1,0,0,0,1 @ F,0,0,1,0,0,0,1"
       radius="0"
       unit="px"
       method="auto"
       mode="F"
       chamfer_steps="1"
       flexible="false"
       use_knot_distance="true"
       apply_no_radius="true"
       apply_with_radius="true"
       only_selected="false"
       hide_knots="false" /><inkscape:path-effect
       effect="fillet_chamfer"
       id="path-effect11"
       is_visible="true"
       lpeversion="1"
       nodesatellites_param="F,0,0,1,0,0,0,1 @ F,0,0,1,0,0,0,1 @ F,0,0,1,0,0,0,1 @ F,0,0,1,0,0,0,1 @ F,0,0,1,0,0,0,1 @ F,0,0,1,0,0,0,1 @ F,0,0,1,0,0,0,1 @ F,0,0,1,0,0,0,1"
       radius="0"
       unit="px"
       method="auto"
       mode="F"
       chamfer_steps="1"
       flexible="false"
       use_knot_distance="true"
       apply_no_radius="true"
       apply_with_radius="true"
       only_selected="false"
       hide_knots="false" /><inkscape:path-effect
       effect="fillet_chamfer"
       id="path-effect9"
       is_visible="true"
       lpeversion="1"
       nodesatellites_param="F,0,0,1,0,0,0,1 @ F,0,0,1,0,0,0,1 @ F,0,0,1,0,0,0,1 @ F,0,0,1,0,0,0,1 @ F,0,0,1,0,0,0,1 @ F,0,0,1,0,0,0,1 @ F,0,0,1,0,0,0,1 @ F,0,0,1,0,0,0,1"
       radius="0"
       unit="px"
       method="auto"
       mode="F"
       chamfer_steps="1"
       flexible="false"
       use_knot_distance="true"
       apply_no_radius="true"
       apply_with_radius="true"
       only_selected="false"
       hide_knots="false" /><inkscape:path-effect
       effect="fillet_chamfer"
       id="path-effect7"
       is_visible="true"
       lpeversion="1"
       nodesatellites_param="F,0,0,1,0,0,0,1 @ F,0,0,1,0,0,0,1 @ F,0,0,1,0,0,0,1 @ F,0,0,1,0,0,0,1 @ F,0,0,1,0,0,0,1 @ F,0,0,1,0,0,0,1 @ F,0,0,1,0,0,0,1 @ F,0,0,1,0,0,0,1"
       radius="0"
       unit="px"
       method="auto"
       mode="F"
       chamfer_steps="1"
       flexible="false"
       use_knot_distance="true"
       apply_no_radius="true"
       apply_with_radius="true"
       only_selected="false"
       hide_knots="false" /><inkscape:path-effect
       effect="fillet_chamfer"
       id="path-effect5"
       is_visible="true"
       lpeversion="1"
       nodesatellites_param="F,0,0,1,0,0,0,1 @ F,0,0,1,0,0,0,1 @ F,0,0,1,0,0,0,1 @ F,0,0,1,0,0,0,1 @ F,0,0,1,0,0,0,1 @ F,0,0,1,0,0,0,1 @ F,0,0,1,0,0,0,1 @ F,0,0,1,0,0,0,1"
       radius="0"
       unit="px"
       method="auto"
       mode="F"
       chamfer_steps="1"
       flexible="false"
       use_knot_distance="true"
       apply_no_radius="true"
       apply_with_radius="true"
       only_selected="false"
       hide_knots="false" /></defs><sodipodi:namedview
     id="namedview2"
     pagecolor="#ffffff"
     bordercolor="#111111"
     borderopacity="1"
     inkscape:showpageshadow="0"
     inkscape:pageopacity="0"
     inkscape:pagecheckerboard="1"
     inkscape:deskcolor="#d1d1d1"
     inkscape:zoom="1.722436"
     inkscape:cx="96.665422"
     inkscape:cy="38.608111"
     inkscape:current-layer="g2" /><metadata
     id="metadata1" /><g
     transform="matrix(0.1,0,0,-0.1,-627.94301,668.07594)"
     fill="#000000"
     stroke="none"
     id="g2"><circle
       style="opacity:0;fill:#313043;fill-rule:evenodd;stroke-width:2.34946;stroke-linecap:round;stroke-linejoin:round;paint-order:stroke fill markers;fill-opacity:1"
       id="path2"
       cx="6779.4302"
       cy="-6180.7593"
       transform="scale(1,-1)"
       r="500" /><path
       style="fill:#49bbaa;fill-opacity:1;stroke-width:0.0932967"
       d="m 6513.7689,5814.9004 -2.799,0.6815 -2.7989,1.4722 -2.7989,1.4722 -2.4592,2.649 -2.4591,2.6489 -1.7392,3.2655 -1.7392,3.2653 v 165.6752 165.6752 l 2.8235,4.567 2.8237,4.5671 4.4483,2.7502 4.4485,2.7503 4.9852,0.4134 4.9853,0.4134 3.2964,-1.0878 3.2963,-1.0879 3.8741,-2.8065 3.8743,-2.8065 2.2546,-4.8424 2.2546,-4.8426 0.01,-150.4412 0.01,-150.4413 h 79.769 79.7688 v 65.345 65.345 l 1.7842,3.4615 1.7842,3.4614 3.1139,2.985 3.1139,2.9848 3.7319,1.68 3.7318,1.6799 59.0219,0.2785 59.0218,0.2783 5.353,-0.9795 5.3531,-0.9796 3.7318,-2.5957 3.7319,-2.5955 2.7988,-5.1 2.799,-5.0999 0.2634,-65.0744 0.2634,-65.0746 h 79.2722 79.2723 v 153.4274 153.4275 l 1.0001,4.6635 1.0002,4.6635 2.6924,3.7168 2.6923,3.7167 4.471,2.6281 4.4709,2.628 6.0644,-0.035 6.0643,-0.034 3.8477,-2.0238 3.8477,-2.0237 2.4844,-2.9525 2.4844,-2.9525 1.5981,-3.3859 1.5981,-3.3861 0.2497,-167.0014 0.2495,-167.0015 -1.0194,-4.9176 -1.0197,-4.9175 -3.0054,-3.9457 -3.0056,-3.9457 -4.1548,-2.3323 -4.1547,-2.3325 -105.366,-0.249 -105.3659,-0.2489 -4.7244,1.3831 -4.7245,1.3831 -3.4148,2.8299 -3.4148,2.8299 -2.183,4.4327 -2.183,4.4327 -0.2691,65.0745 -0.2692,65.0746 h -35.4169 -35.417 v -65.1246 -65.1247 l -2.3779,-4.772 -2.3781,-4.7721 -3.3147,-2.5282 -3.3147,-2.5284 -4.2517,-1.2795 -4.2517,-1.2795 -103.6446,0.095 -103.6445,0.096 z m 624.3278,319.4981 -3.5604,1.3265 -1.571,1.4244 -1.5709,1.4245 -44.316,44.6015 -44.3161,44.6015 -47.1149,47.5807 -47.115,47.5807 -48.9941,49.4596 -48.9943,49.4596 -34.9452,35.2195 -34.9452,35.2197 h -0.955 -0.955 l -176.8034,-176.659 -176.8034,-176.6591 -3.7319,-1.6952 -3.7319,-1.6952 -4.2923,-0.4147 -4.2921,-0.4146 -4.1045,1.8237 -4.1045,1.8236 -3.1655,2.6751 -3.1655,2.6752 -2.19,4.7029 -2.1899,4.703 -0.01,3.3324 -0.01,3.3325 1.5104,4.5978 1.5103,4.5977 186.2497,186.4031 186.2497,186.4031 2.7989,1.753 2.7989,1.7531 4.3494,1.0934 4.3495,1.0935 5.1808,-1.5061 5.1806,-1.506 74.8238,-75.0875 74.8237,-75.0875 h 0.7794 0.7796 v 40.7561 40.7561 l 1.948,4.0239 1.9479,4.0239 3.7715,3.2282 3.7714,3.2282 5.0357,1.1269 5.0356,1.127 4.8722,-1.1236 4.8722,-1.1235 3.5576,-2.4639 3.5577,-2.4639 2.5066,-4.2638 2.5067,-4.2638 0.2581,-64.202 0.2581,-64.2018 89.3069,-89.5285 89.3069,-89.5287 2.3325,-4.3829 2.3324,-4.3828 v -6.1141 -6.114 l -2.3835,-4.6317 -2.3835,-4.6316 -4.3911,-2.7148 -4.391,-2.7148 -6.7535,-0.3414 -6.7535,-0.3414 z"
       id="path3" /></g></svg>
