<?xml version="1.0" encoding="UTF-8" standalone="no"?>
<svg
   version="1.0"
   width="100px"
   height="100px"
   id="m3u-icon"
   sodipodi:docname="m3u-icon-done.svg"
   inkscape:version="1.3.2 (091e20e, 2023-11-25, custom)"
   xml:space="preserve"
   xmlns:inkscape="http://www.inkscape.org/namespaces/inkscape"
   xmlns:sodipodi="http://sodipodi.sourceforge.net/DTD/sodipodi-0.dtd"
   xmlns="http://www.w3.org/2000/svg"
   xmlns:svg="http://www.w3.org/2000/svg"><defs
     id="defs2" /><sodipodi:namedview
     id="namedview2"
     pagecolor="#ffffff"
     bordercolor="#111111"
     borderopacity="1"
     inkscape:showpageshadow="0"
     inkscape:pageopacity="0"
     inkscape:pagecheckerboard="1"
     inkscape:deskcolor="#d1d1d1"
     inkscape:zoom="3.477273"
     inkscape:cx="35.516337"
     inkscape:cy="29.477122"
     inkscape:current-layer="g2" /><metadata
     id="metadata1" /><g
     transform="matrix(0.1,0,0,-0.1,-627.94301,668.07594)"
     fill="#000000"
     stroke="none"
     id="g2"><g
       id="g3"
       style="fill:#fc4a1a;fill-opacity:1"><g
         id="g1"
         transform="translate(120.4077)"
         style="fill:#fc4a1a;fill-opacity:1"><path
           style="fill:#fc4a1a;fill-opacity:1;stroke-width:0.512596"
           d="m 6344.9809,6216.4624 1.3588,149.9339 21.8536,-146.0896 c 12.0192,-80.3493 21.823,-147.8195 21.7853,-149.9343 -0.061,-3.3653 55.6771,-5.8836 56.7194,-2.5629 0.2215,0.7048 10.3793,64.7154 22.5732,142.2451 l 22.1716,140.9638 0.4933,-142.245 0.4932,-142.2456 h 30.7554 30.7561 v 205.0385 205.0379 h -45.4929 -45.4928 l -2.6215,-14.0964 c -1.4413,-7.753 -10.297,-70.2728 -19.6787,-138.9332 -10.2042,-74.6828 -18.5727,-121.0188 -20.8294,-115.3339 -2.0745,5.2265 -10.8292,62.5565 -19.4543,127.3996 -8.6251,64.8433 -16.858,123.0869 -18.2954,129.4306 -2.4718,10.9102 -5.099,11.5333 -48.6485,11.5333 h -46.0362 v -205.0379 -205.0385 h 28.1155 28.1155 z"
           id="path12" /><path
           style="fill:#fc4a1a;fill-opacity:1;stroke-width:0.512596"
           d="m 6994.0882,6076.273 c 34.92,24.9055 36.3274,33.6808 36.4533,227.3301 l 0.1122,173.0011 h -30.5564 -30.557 l -1.4801,-169.6145 -1.4805,-169.6143 -12.491,-10.1095 c -12.6517,-10.2393 -32.6539,-9.6077 -43.8946,1.3864 -3.1545,3.0856 -5.6943,70.9524 -6.6041,176.4826 l -1.4777,171.4693 h -33.3723 -33.3729 l 1.5317,-175.5639 1.532,-175.5637 12.7628,-22.2938 c 18.4804,-32.2807 39.7643,-42.1773 87.193,-40.5427 31.0315,1.0694 41.7723,3.6984 55.7016,13.6329 z"
           id="path8" /><path
           style="fill:#fc4a1a;fill-opacity:1;stroke-width:0.512596"
           d="m 6748.8619,6071.723 c 32.9618,16.8155 43.2542,42.4021 43.2755,107.5761 0.03,58.7411 -6.6757,79.6285 -30.5297,95.2578 l -12.5353,8.2138 14.5399,12.2349 c 22.1734,18.6573 27.3877,36.8993 25.3597,88.7165 -1.4325,36.6035 -3.962,48.9073 -12.3693,60.1608 -25.5102,34.1474 -59.5535,46.2486 -104.5892,37.1784 -46.9381,-9.4539 -71.8369,-44.2751 -71.9103,-100.5689 l -0.03,-21.785 h 30.7557 c 30.3981,0 30.7557,0.1699 30.7557,14.613 0,40.4181 23.2965,61.4496 49.2392,44.4511 11.2144,-7.3479 12.272,-11.4974 12.272,-48.1361 0,-46.5856 -5.7938,-55.3212 -38.4444,-57.9644 l -20.5039,-1.6604 -1.5372,-29.4742 -1.5374,-29.474 h 20.1917 c 12.2395,0 24.9577,-3.858 32.2929,-9.7959 11.1267,-9.007 12.1015,-13.5837 12.1015,-56.8277 0,-43.655 -0.8968,-47.7593 -12.491,-57.1568 -14.0867,-11.4192 -34.5382,-9.3453 -45.1762,4.5809 -3.5239,4.6134 -6.4072,20.6334 -6.4072,35.6005 v 27.2136 h -30.7557 -30.7557 v -30.9204 c 0,-47.5953 17.236,-81.2785 48.6962,-95.1653 24.0955,-10.6359 76.3071,-9.0022 100.0913,3.1317 z"
           id="path7" /></g><g
         id="g16"
         transform="matrix(3.0337063,0,0,3.0337063,-13788.214,-12073.276)"
         style="fill:#fc4a1a;fill-opacity:1"><g
           id="g15"
           style="fill:#fc4a1a;fill-opacity:1"><path
             style="fill:#fc4a1a;fill-opacity:1;stroke-width:0.168967"
             d="m 6902.034,5943.2387 c 1.4209,1.421 2.1542,3.702 1.6295,5.0691 -0.8273,2.1562 -17.2526,2.4855 -123.9379,2.4855 -114.8518,0 -123.0579,-0.1924 -124.1015,-2.9123 -2.7393,-7.1383 -1.2381,-7.2256 124.3038,-7.2256 104.995,0 119.8366,0.3141 122.1061,2.5833 z"
             id="path5" /><path
             style="fill:#fc4a1a;fill-opacity:1;stroke-width:0.168967"
             d="m 6925.8334,5919.2903 c 1.9176,1.402 2.7185,3.3676 2.0657,5.0689 -0.9782,2.5492 -13.2215,2.7789 -148.1735,2.7789 -134.9518,0 -147.195,-0.2297 -148.1733,-2.7789 -2.8219,-7.3539 -2.7181,-7.3592 148.1733,-7.3592 117.6431,0 143.5308,0.4058 146.1078,2.2903 z"
             id="path4" /></g></g></g></g></svg>
