<?xml version="1.0" encoding="UTF-8" standalone="no"?>
<svg
   version="1.0"
   width="100px"
   height="100px"
   id="m3u8-icon"
   sodipodi:docname="m3u8-icon.svg"
   inkscape:version="1.3.2 (091e20e, 2023-11-25, custom)"
   xml:space="preserve"
   xmlns:inkscape="http://www.inkscape.org/namespaces/inkscape"
   xmlns:sodipodi="http://sodipodi.sourceforge.net/DTD/sodipodi-0.dtd"
   xmlns="http://www.w3.org/2000/svg"
   xmlns:svg="http://www.w3.org/2000/svg"><defs
     id="defs2" /><sodipodi:namedview
     id="namedview2"
     pagecolor="#ffffff"
     bordercolor="#111111"
     borderopacity="1"
     inkscape:showpageshadow="0"
     inkscape:pageopacity="0"
     inkscape:pagecheckerboard="1"
     inkscape:deskcolor="#d1d1d1"
     inkscape:zoom="3.477273"
     inkscape:cx="35.516337"
     inkscape:cy="29.477122"
     inkscape:current-layer="g2" /><metadata
     id="metadata1" /><g
     transform="matrix(0.1,0,0,-0.1,-627.94301,668.07594)"
     fill="#000000"
     stroke="none"
     id="g2"><g
       id="g17"
       transform="matrix(3.0337063,0,0,3.0337063,-13788.214,-12334.996)"
       style="fill:#49bbaa;fill-opacity:1"><path
         d="m 6909.4496,6203.4156 c -3.1267,0.037 -6.3854,-0.2907 -9.7656,-1.0156 -16.3049,-3.4966 -23.5502,-14.1771 -23.6133,-34.8047 -0.042,-13.7512 1.7395,-19.7308 7.7149,-25.9961 l 4.1406,-4.3554 -3.5742,-3.2422 c -7.4464,-6.7388 -9.1211,-12.4176 -9.1211,-31.1328 0,-18.9059 1.593,-24.1887 9.5117,-31.5821 5.865,-5.476 11.1296,-7.0684 23.8867,-7.1875 8.2431,-0.077 13.303,0.8324 17.9883,3.2227 10.2776,5.2432 14.1827,13.2201 15.0195,30.7227 0.9323,19.5008 -0.424,25.7063 -7.2851,33.3007 -5.424,6.0038 -5.5563,6.4312 -2.5,8.3399 7.1658,4.4751 11.2114,19.7356 9.2968,35.0586 -2.1918,17.5428 -14.8148,28.4731 -31.6992,28.6718 z m -1.5429,-19.6093 c 2.2584,0.037 4.6158,-0.9534 7.1289,-2.9883 3.1804,-2.5753 4.0136,-5.1368 4.4922,-13.9453 0.7613,-14.0098 -1.757,-19.0635 -9.8243,-19.7461 -4.1551,-0.3516 -6.8272,0.4649 -8.8281,2.6758 -4.4144,4.878 -4.063,26.2104 0.5078,30.7812 2.1113,2.1114 4.265,3.1853 6.5235,3.2227 z m 0.6836,-57.4219 c 2.5129,0.1369 4.9896,-0.6164 7.246,-2.2656 2.7382,-2.0014 3.3769,-4.9198 3.8672,-17.6563 0.5575,-14.4825 0.3826,-15.4769 -3.7109,-19.5703 -4.603,-4.6031 -6.4812,-4.9845 -12.5195,-2.5586 -5.4971,2.2083 -7.5296,9.1538 -6.836,23.3594 0.5166,10.5805 1.1922,12.9052 4.5508,15.625 2.3466,1.9 4.8894,2.9295 7.4024,3.0664 z"
         style="fill:#49bbaa;fill-opacity:1;stroke-width:0.168967"
         id="path15" /><path
         style="fill:#49bbaa;fill-opacity:1;stroke-width:0.168967"
         d="m 6636.501,6115.1135 0.4479,49.4227 7.2036,-48.1555 c 3.9619,-26.4855 7.1935,-48.7257 7.1811,-49.4228 -0.02,-1.1093 18.3528,-1.9394 18.6964,-0.8448 0.073,0.2323 3.4213,21.3321 7.4408,46.8882 l 7.3084,46.4659 0.1626,-46.8882 0.1626,-46.8884 h 10.1379 10.1381 v 67.5868 67.5866 h -14.9958 -14.9958 l -0.8641,-4.6466 c -0.4751,-2.5556 -3.3942,-23.164 -6.4867,-45.7965 -3.3636,-24.6177 -6.1221,-39.8914 -6.866,-38.0175 -0.6838,1.7228 -3.5696,20.6205 -6.4127,41.9947 -2.8431,21.3743 -5.5569,40.5731 -6.0307,42.6642 -0.8148,3.5963 -1.6808,3.8017 -16.036,3.8017 h -15.1749 v -67.5866 -67.5868 h 9.2677 9.2677 z"
         id="path12" /><path
         style="fill:#49bbaa;fill-opacity:1;stroke-width:0.168967"
         d="m 6850.4661,6068.9029 c 11.5107,8.2096 11.9746,11.1022 12.0161,74.9348 l 0.037,57.0263 h -10.0723 -10.0725 l -0.4879,-55.91 -0.488,-55.9099 -4.1174,-3.3324 c -4.1704,-3.3752 -10.7637,-3.167 -14.469,0.457 -1.0398,1.0171 -1.877,23.388 -2.1769,58.1739 l -0.4871,56.5214 h -11.0005 -11.0007 l 0.5049,-57.8711 0.505,-57.871 4.207,-7.3487 c 6.0917,-10.6407 13.1075,-13.9029 28.7414,-13.3641 10.2289,0.3525 13.7694,1.2191 18.3609,4.4938 z"
         id="path8" /><path
         style="fill:#49bbaa;fill-opacity:1;stroke-width:0.168967"
         d="m 6769.6322,6067.4031 c 10.8652,5.5429 14.2579,13.977 14.2649,35.4603 0.01,19.3628 -2.2005,26.2479 -10.0635,31.3998 l -4.132,2.7075 4.7928,4.033 c 7.309,6.15 9.0278,12.1631 8.3593,29.2436 -0.4722,12.0656 -1.306,16.1213 -4.0773,19.8308 -8.4089,11.256 -19.6306,15.2449 -34.4757,12.2551 -15.4722,-3.1163 -23.6796,-14.5944 -23.7038,-33.1505 l -0.01,-7.181 h 10.138 c 10.0201,0 10.138,0.056 10.138,4.8169 0,13.323 7.6792,20.2556 16.2307,14.6524 3.6966,-2.4221 4.0452,-3.7899 4.0452,-15.8671 0,-15.356 -1.9098,-18.2355 -12.6724,-19.1068 l -6.7587,-0.5473 -0.5067,-9.7156 -0.5068,-9.7155 h 6.6558 c 4.0345,0 8.2268,-1.2717 10.6447,-3.229 3.6677,-2.969 3.989,-4.4776 3.989,-18.7321 0,-14.39 -0.2956,-15.7429 -4.1174,-18.8406 -4.6434,-3.7641 -11.3848,-3.0805 -14.8914,1.51 -1.1616,1.5207 -2.112,6.8014 -2.112,11.735 v 8.9704 h -10.138 -10.138 v -10.1923 c 0,-15.6888 5.6815,-26.7918 16.0517,-31.3693 7.9426,-3.5059 25.1531,-2.9674 32.9931,1.0323 z"
         id="path7" /><g
         id="g16"
         transform="translate(0,86.270741)"
         style="fill:#49bbaa;fill-opacity:1"><g
           id="g15"
           style="fill:#49bbaa;fill-opacity:1"><path
             style="fill:#49bbaa;fill-opacity:1;stroke-width:0.168967"
             d="m 6902.034,5943.2387 c 1.4209,1.421 2.1542,3.702 1.6295,5.0691 -0.8273,2.1562 -17.2526,2.4855 -123.9379,2.4855 -114.8518,0 -123.0579,-0.1924 -124.1015,-2.9123 -2.7393,-7.1383 -1.2381,-7.2256 124.3038,-7.2256 104.995,0 119.8366,0.3141 122.1061,2.5833 z"
             id="path5" /><path
             style="fill:#49bbaa;fill-opacity:1;stroke-width:0.168967"
             d="m 6925.8334,5919.2903 c 1.9176,1.402 2.7185,3.3676 2.0657,5.0689 -0.9782,2.5492 -13.2215,2.7789 -148.1735,2.7789 -134.9518,0 -147.195,-0.2297 -148.1733,-2.7789 -2.8219,-7.3539 -2.7181,-7.3592 148.1733,-7.3592 117.6431,0 143.5308,0.4058 146.1078,2.2903 z"
             id="path4" /></g></g></g></g></svg>
