<?xml version="1.0" encoding="UTF-8" standalone="no"?>
<svg
   version="1.0"
   width="100px"
   height="100px"
   id="play-icon"
   sodipodi:docname="play-icon.svg"
   inkscape:version="1.3.2 (091e20e, 2023-11-25, custom)"
   xml:space="preserve"
   xmlns:inkscape="http://www.inkscape.org/namespaces/inkscape"
   xmlns:sodipodi="http://sodipodi.sourceforge.net/DTD/sodipodi-0.dtd"
   xmlns="http://www.w3.org/2000/svg"
   xmlns:svg="http://www.w3.org/2000/svg"><defs
     id="defs2"><inkscape:path-effect
       effect="fillet_chamfer"
       id="path-effect17"
       is_visible="true"
       lpeversion="1"
       nodesatellites_param="F,0,1,1,0,5.1365174,0,1 @ F,0,0,1,0,5.1365174,0,1 @ F,0,1,1,0,5.1365174,0,1"
       radius="0"
       unit="px"
       method="auto"
       mode="F"
       chamfer_steps="1"
       flexible="false"
       use_knot_distance="true"
       apply_no_radius="true"
       apply_with_radius="true"
       only_selected="false"
       hide_knots="false" /><inkscape:path-effect
       effect="fillet_chamfer"
       id="path-effect9"
       is_visible="true"
       lpeversion="1"
       nodesatellites_param="F,0,1,1,0,5.1365174,0,1 @ F,0,0,1,0,5.1365174,0,1 @ F,0,1,1,0,5.1365174,0,1"
       radius="0"
       unit="px"
       method="auto"
       mode="F"
       chamfer_steps="1"
       flexible="false"
       use_knot_distance="true"
       apply_no_radius="true"
       apply_with_radius="true"
       only_selected="false"
       hide_knots="false" /><inkscape:path-effect
       effect="fillet_chamfer"
       id="path-effect8"
       is_visible="true"
       lpeversion="1"
       nodesatellites_param="F,0,1,1,0,4.02915,0,1 @ F,0,1,1,0,4.02915,0,1 @ F,0,1,1,0,4.02915,0,1 @ F,0,1,1,0,4.02915,0,1 @ F,0,1,1,0,4.02915,0,1 @ F,0,1,1,0,4.02915,0,1 @ F,0,1,1,0,4.02915,0,1 @ F,0,1,1,0,4.02915,0,1"
       radius="0"
       unit="px"
       method="auto"
       mode="F"
       chamfer_steps="1"
       flexible="false"
       use_knot_distance="true"
       apply_no_radius="true"
       apply_with_radius="true"
       only_selected="false"
       hide_knots="false" /></defs><sodipodi:namedview
     id="namedview2"
     pagecolor="#ffffff"
     bordercolor="#111111"
     borderopacity="1"
     inkscape:showpageshadow="0"
     inkscape:pageopacity="0"
     inkscape:pagecheckerboard="1"
     inkscape:deskcolor="#d1d1d1"
     inkscape:zoom="2.6326351"
     inkscape:cx="66.853169"
     inkscape:cy="38.934374"
     inkscape:current-layer="g2"
     showgrid="true"><inkscape:grid
       id="grid1"
       units="px"
       originx="0"
       originy="0"
       spacingx="1"
       spacingy="1"
       empcolor="#3f3fff"
       empopacity="0.25098039"
       color="#3f3fff"
       opacity="0.1254902"
       empspacing="5"
       dotted="false"
       gridanglex="30"
       gridanglez="30"
       visible="true" /></sodipodi:namedview><metadata
     id="metadata1" /><g
     transform="matrix(0.1,0,0,-0.1,-627.94301,668.07594)"
     fill="#000000"
     stroke="none"
     id="g2"><circle
       style="opacity:0;fill:#313043;fill-rule:evenodd;stroke-width:2.34946;stroke-linecap:round;stroke-linejoin:round;paint-order:stroke fill markers;fill-opacity:1"
       id="path2"
       cx="6779.4302"
       cy="-6180.7593"
       transform="scale(1,-1)"
       r="500" /><g
       id="g13"
       transform="translate(29.9624,-13.84485)"
       style="fill:#49bbaa;fill-opacity:1"><path
         id="path9"
         style="fill:#49bbaa;fill-rule:evenodd;stroke-width:40;stroke-linecap:round;stroke-linejoin:round;paint-order:stroke fill markers;fill-opacity:1"
         inkscape:transform-center-y="-4.3509539e-06"
         transform="matrix(0,-10,-10,0,7095.4698,6062.9938)"
         d="M 0.9626183,46.305525 H -27.284711 a 2.9655697,2.9655697 60 0 1 -2.568258,-4.448355 l 14.123664,-24.462904 a 2.9655697,2.9655697 1.9322089e-7 0 1 5.136518,0 L 3.530877,41.85717 a 2.9655697,2.9655697 120 0 1 -2.5682587,4.448355 z"
         inkscape:path-effect="#path-effect9"
         inkscape:original-d="M 6.0991357,46.305525 H -32.421228 l 19.260182,-33.359614 z"
         inkscape:transform-center-x="-5.5599331" /><path
         d="m 6749.4579,6584.0574 a 389.45953,389.45953 0 0 1 -389.4531,-389.4531 389.45953,389.45953 0 0 1 389.4531,-389.4532 389.45953,389.45953 0 0 1 389.4727,389.4532 389.45953,389.45953 0 0 1 -389.4727,389.4531 z m 0,-37.5977 a 351.85654,351.85654 0 0 0 351.875,-351.8554 351.85654,351.85654 0 0 0 -351.875,-351.8555 351.85654,351.85654 0 0 0 -351.8554,351.8555 351.85654,351.85654 0 0 0 351.8554,351.8554 z"
         style="fill:#49bbaa;fill-rule:evenodd;stroke-width:39.4558;stroke-linecap:round;stroke-linejoin:round;paint-order:stroke fill markers;fill-opacity:1"
         id="path12" /></g><g
       id="g19"
       transform="translate(622.94999,-1223.1091)"
       style="fill:#49bbaa;fill-opacity:1"><path
         d="m 7098.3093,7770.5308 a 389.45953,389.45953 0 0 1 -389.4531,-389.4531 389.45953,389.45953 0 0 1 389.4531,-389.4532 389.45953,389.45953 0 0 1 389.4727,389.4532 389.45953,389.45953 0 0 1 -389.4727,389.4531 z m 0,-37.5977 a 351.85654,351.85654 0 0 0 351.875,-351.8554 351.85654,351.85654 0 0 0 -351.875,-351.8555 351.85654,351.85654 0 0 0 -351.8554,351.8555 351.85654,351.85654 0 0 0 351.8554,351.8554 z"
         style="fill:#49bbaa;fill-opacity:1;fill-rule:evenodd;stroke-width:39.4558;stroke-linecap:round;stroke-linejoin:round;paint-order:stroke fill markers"
         id="path16" /><g
         id="g18"
         transform="translate(-0.9310564,-7.3022938)"
         style="fill:#49bbaa;fill-opacity:1"><rect
           style="opacity:1;fill:#49bbaa;fill-opacity:1;fill-rule:evenodd;stroke:none;stroke-width:9.97989px;stroke-linecap:butt;stroke-linejoin:miter;stroke-opacity:1"
           id="rect17"
           width="85.949532"
           height="353.11804"
           x="6973.6831"
           y="-7564.939"
           transform="scale(1,-1)"
           rx="34.89183"
           ry="0" /><rect
           style="opacity:1;fill:#49bbaa;fill-opacity:1;fill-rule:evenodd;stroke:none;stroke-width:9.97989px;stroke-linecap:butt;stroke-linejoin:miter;stroke-opacity:1"
           id="rect18"
           width="85.949532"
           height="353.11804"
           x="7138.8677"
           y="-7564.939"
           transform="scale(1,-1)"
           rx="34.89183"
           ry="0" /></g></g></g></svg>
