<?xml version="1.0" encoding="UTF-8" standalone="no"?>
<svg
   version="1.0"
   width="100px"
   height="100px"
   id="pls-icon"
   sodipodi:docname="pls-icon.svg"
   inkscape:version="1.3.1 (9b9bdc1480, 2023-11-25, custom)"
   xml:space="preserve"
   xmlns:inkscape="http://www.inkscape.org/namespaces/inkscape"
   xmlns:sodipodi="http://sodipodi.sourceforge.net/DTD/sodipodi-0.dtd"
   xmlns="http://www.w3.org/2000/svg"
   xmlns:svg="http://www.w3.org/2000/svg"><defs
     id="defs2" /><sodipodi:namedview
     id="namedview2"
     pagecolor="#ffffff"
     bordercolor="#111111"
     borderopacity="1"
     inkscape:showpageshadow="0"
     inkscape:pageopacity="0"
     inkscape:pagecheckerboard="1"
     inkscape:deskcolor="#d1d1d1"
     inkscape:zoom="2.5442351"
     inkscape:cx="11.987886"
     inkscape:cy="41.269771"
     inkscape:current-layer="g2"
     showgrid="false"
     inkscape:window-width="1318"
     inkscape:window-height="699"
     inkscape:window-x="0"
     inkscape:window-y="0"
     inkscape:window-maximized="1"
     showguides="true"><sodipodi:guide
       position="10.317443,40.060571"
       orientation="0,-1"
       id="guide8"
       inkscape:locked="false" /><sodipodi:guide
       position="38.909513,79.016655"
       orientation="0,-1"
       id="guide9"
       inkscape:locked="false" /></sodipodi:namedview><metadata
     id="metadata1" /><g
     transform="matrix(0.1,0,0,-0.1,-627.94301,668.07594)"
     fill="#000000"
     stroke="none"
     id="g2"><g
       id="g16"
       transform="matrix(3.0337063,0,0,3.0337063,-13809.164,-12073.276)"
       style="fill:#49bbaa;fill-opacity:1"><g
         id="g15"
         style="fill:#49bbaa;fill-opacity:1"><path
           style="fill:#49bbaa;fill-opacity:1;stroke-width:0.168967"
           d="m 6902.034,5943.2387 c 1.4209,1.421 2.1542,3.702 1.6295,5.0691 -0.8273,2.1562 -17.2526,2.4855 -123.9379,2.4855 -114.8518,0 -123.0579,-0.1924 -124.1015,-2.9123 -2.7393,-7.1383 -1.2381,-7.2256 124.3038,-7.2256 104.995,0 119.8366,0.3141 122.1061,2.5833 z"
           id="path5" /><path
           style="fill:#49bbaa;fill-opacity:1;stroke-width:0.168967"
           d="m 6925.8334,5919.2903 c 1.9176,1.402 2.7185,3.3676 2.0657,5.0689 -0.9782,2.5492 -13.2215,2.7789 -148.1735,2.7789 -134.9518,0 -147.195,-0.2297 -148.1733,-2.7789 -2.8219,-7.3539 -2.7181,-7.3592 148.1733,-7.3592 117.6431,0 143.5308,0.4058 146.1078,2.2903 z"
           id="path4" /></g></g><g
       id="g9"><path
         id="path7"
         style="font-weight:bold;font-size:503.585px;font-family:Roboto;-inkscape-font-specification:'Roboto, Bold';fill:#49bbaa;fill-rule:evenodd;stroke-width:47.6301;stroke-linecap:round;stroke-linejoin:round;paint-order:stroke fill markers"
         sodipodi:type="inkscape:offset"
         inkscape:radius="-15.597583"
         inkscape:original="M 8116.9102 -5683.125 C 8072.6498 -5683.125 8038.7169 -5673.2885 8015.1113 -5653.6172 C 7991.5058 -5633.9459 7979.7031 -5605.8331 7979.7031 -5569.2773 C 7979.7031 -5540.0983 7988.1448 -5516.9019 8005.0293 -5499.6895 C 8022.0777 -5482.4771 8048.9619 -5469.9369 8085.6816 -5462.0684 L 8122.3203 -5453.9531 C 8144.6144 -5449.0353 8159.4494 -5443.4636 8166.8262 -5437.2344 C 8174.3668 -5431.0051 8178.1367 -5422.1526 8178.1367 -5410.6777 C 8178.1367 -5397.8913 8172.6452 -5388.0549 8161.6621 -5381.1699 C 8150.679 -5374.285 8134.8599 -5370.8438 8114.2051 -5370.8438 C 8093.8781 -5370.8438 8072.7319 -5373.9582 8050.7656 -5380.1875 C 8028.9633 -5386.5806 8006.342 -5396.0064 7982.9004 -5408.4648 L 7982.9004 -5328.5488 C 8006.342 -5319.8607 8029.783 -5313.305 8053.2246 -5308.8789 C 8076.6662 -5304.4529 8100.025 -5302.2402 8123.3027 -5302.2402 C 8172.6449 -5302.2402 8209.2834 -5312.0748 8233.2168 -5331.7461 C 8257.3141 -5351.5813 8269.3633 -5381.7443 8269.3633 -5422.2344 C 8269.3633 -5453.0528 8260.7573 -5476.8224 8243.5449 -5493.543 C 8226.3326 -5510.2636 8197.316 -5522.7216 8156.498 -5530.918 L 8116.1719 -5539.0332 C 8096.9924 -5542.9675 8083.7146 -5547.6392 8076.3379 -5553.0488 C 8069.1251 -5558.6224 8065.5195 -5566.3264 8065.5195 -5576.1621 C 8065.5195 -5589.2763 8070.9288 -5598.9485 8081.748 -5605.1777 C 8092.5672 -5611.407 8109.2882 -5614.5215 8131.9102 -5614.5215 C 8148.9586 -5614.5215 8167.0724 -5612.2267 8186.252 -5607.6367 C 8205.4315 -5603.0468 8225.1026 -5596.2426 8245.2656 -5587.2266 L 8245.2656 -5664.9277 C 8222.4797 -5670.993 8200.4316 -5675.5024 8179.1211 -5678.4531 C 8157.8105 -5681.5677 8137.0732 -5683.125 8116.9102 -5683.125 z "
         d="m 8116.9102,-5667.5273 c -41.9494,0 -71.8918,9.2903 -91.8145,25.8925 -19.9552,16.6295 -29.7949,39.159 -29.7949,72.3575 0,26.1496 7.0551,44.5684 20.832,58.6308 13.9474,14.0699 37.908,25.8458 72.8164,33.3262 a 15.599143,15.599143 0 0 1 0.1055,0.023 l 36.625,8.1133 c 23.2458,5.1277 39.391,10.0927 51.1348,19.9746 11.1287,9.2268 16.9199,23.6659 16.9199,38.5313 0,17.2522 -9.1219,33.5294 -23.7871,42.7226 -14.7121,9.2225 -33.355,12.709 -55.7422,12.709 -21.9202,0 -44.5141,-3.3617 -67.6953,-9.9355 a 15.599143,15.599143 0 0 1 -0.1328,-0.039 c -15.6661,-4.5938 -31.6366,-10.7476 -47.879,-18.209 v 43.7969 c 19.2492,6.6099 38.4535,11.8086 57.6211,15.4277 22.5167,4.2514 44.8944,6.3672 67.1836,6.3672 47.2638,0 80.1302,-9.6225 100.002,-25.9512 l 0,-0 c 20.0752,-16.5256 30.459,-41.049 30.459,-78.4434 0,-27.9146 -7.3128,-46.7377 -21.0898,-60.1211 -13.7055,-13.3139 -40.0222,-25.3928 -79.2481,-33.2695 a 15.599143,15.599143 0 0 1 -0.01,-0 l -40.3242,-8.1152 a 15.599143,15.599143 0 0 1 -0.059,-0.012 c -20.1723,-4.138 -34.8028,-8.5614 -45.9238,-16.7168 a 15.599143,15.599143 0 0 1 -0.3125,-0.2363 c -10.7254,-8.2879 -16.8789,-21.8076 -16.8789,-35.4551 0,-17.4033 9.1215,-33.9422 24.0429,-42.5332 14.8933,-8.575 33.8918,-11.4238 57.9454,-11.4238 18.448,0 37.7756,2.479 57.9726,7.3125 13.1064,3.1365 26.3779,7.3403 39.7852,12.3867 v -42.168 c -18.06,-4.4214 -35.7145,-8.0642 -52.6856,-10.4141 a 15.599143,15.599143 0 0 1 -0.1172,-0.017 c -20.614,-3.0128 -40.5952,-4.5078 -59.955,-4.5078 z"
         transform="matrix(0.87547399,0,0,-1.1422384,-69.589581,0)" /><path
         id="path6"
         style="font-weight:bold;font-size:503.585px;font-family:Roboto;-inkscape-font-specification:'Roboto, Bold';fill:#49bbaa;fill-rule:evenodd;stroke-width:47.6301;stroke-linecap:round;stroke-linejoin:round;paint-order:stroke fill markers"
         sodipodi:type="inkscape:offset"
         inkscape:radius="-9.0816145"
         inkscape:original="M 7668.8965 -5676.4863 L 7668.8965 -5309.3691 L 7929.7871 -5309.3691 L 7929.7871 -5380.9238 L 7763.5645 -5380.9238 L 7763.5645 -5676.4863 L 7668.8965 -5676.4863 z "
         d="m 7677.9785,-5667.4043 v 348.9531 h 242.7266 v -53.3906 h -157.1406 a 9.0825227,9.0825227 0 0 1 -9.0821,-9.082 v -286.4805 z"
         transform="matrix(0.87547399,0,0,-1.1422384,-29.355581,0)" /><path
         id="path8"
         style="font-weight:bold;font-size:503.585px;font-family:Roboto;-inkscape-font-specification:'Roboto, Bold';fill:#49bbaa;fill-rule:evenodd;stroke-width:47.6301;stroke-linecap:round;stroke-linejoin:round;paint-order:stroke fill markers"
         sodipodi:type="inkscape:offset"
         inkscape:radius="-11.37301"
         inkscape:original="M 6390.7969 6064.5684 L 6390.7969 6483.9043 L 6528.3555 6483.9043 C 6569.2569 6483.9043 6600.6233 6472.0007 6622.4375 6448.2207 C 6644.3951 6424.628 6655.3672 6390.9421 6655.3672 6347.127 C 6655.3672 6303.1247 6644.3951 6269.2273 6622.4375 6245.4473 C 6600.6233 6221.8545 6569.2569 6210.0566 6528.3555 6210.0566 L 6473.668 6210.0566 L 6473.668 6064.5684 L 6390.7969 6064.5684 z M 6473.668 6288.416 L 6519.5273 6288.416 C 6535.6008 6288.416 6548.0191 6293.4806 6556.7734 6303.5918 C 6565.5278 6313.8902 6569.8984 6328.4026 6569.8984 6347.127 C 6569.8984 6365.8514 6565.5278 6380.2579 6556.7734 6390.3691 C 6548.0191 6400.4802 6535.6008 6405.5449 6519.5273 6405.5449 L 6473.668 6405.5449 L 6473.668 6288.416 z "
         d="m 6402.1699,6075.9414 v 396.5898 h 126.1856 c 38.6947,0 66.2801,-10.8268 85.7011,-31.998 a 11.374147,11.374147 0 0 1 0.055,-0.06 c 19.5667,-21.0238 29.8828,-51.4294 29.8828,-93.3457 0,-42.1077 -10.3256,-72.7496 -29.9062,-93.959 l -0.01,-0 c -19.4076,-20.987 -47.0153,-31.7344 -85.7265,-31.7344 h -54.6875 a 11.374147,11.374147 0 0 1 -11.3731,-11.3731 v -134.1152 z m 71.4981,201.1016 h 45.8593 c 18.4625,0 34.8359,6.3913 45.8438,19.1054 a 11.374147,11.374147 0 0 1 0.068,0.078 c 10.9594,12.8923 15.832,30.4062 15.832,50.9004 0,20.4941 -4.8729,37.9489 -15.9004,50.6855 -11.0079,12.714 -27.3812,19.1055 -45.8438,19.1055 h -45.8593 a 11.374147,11.374147 0 0 1 -11.3731,-11.3731 V 6288.416 a 11.374147,11.374147 0 0 1 11.3731,-11.373 z"
         transform="translate(11.480952)" /></g></g></svg>
