<?xml version="1.0" encoding="UTF-8" standalone="no"?>
<svg
   version="1.0"
   width="100px"
   height="100px"
   id="pls-icon-done"
   sodipodi:docname="pls-icon-done.svg"
   inkscape:version="1.3.2 (091e20e, 2023-11-25, custom)"
   xml:space="preserve"
   xmlns:inkscape="http://www.inkscape.org/namespaces/inkscape"
   xmlns:sodipodi="http://sodipodi.sourceforge.net/DTD/sodipodi-0.dtd"
   xmlns="http://www.w3.org/2000/svg"
   xmlns:svg="http://www.w3.org/2000/svg"><defs
     id="defs2" /><sodipodi:namedview
     id="namedview2"
     pagecolor="#ffffff"
     bordercolor="#111111"
     borderopacity="1"
     inkscape:showpageshadow="0"
     inkscape:pageopacity="0"
     inkscape:pagecheckerboard="1"
     inkscape:deskcolor="#d1d1d1"
     inkscape:zoom="5.0884702"
     inkscape:cx="58.072464"
     inkscape:cy="63.182055"
     inkscape:current-layer="g2" /><metadata
     id="metadata1" /><g
     transform="matrix(0.1,0,0,-0.1,-627.94301,668.07594)"
     fill="#000000"
     stroke="none"
     id="g2"><g
       id="g1"
       style="fill:#fc4a1a;fill-opacity:1"><g
         id="g16"
         transform="matrix(3.0337063,0,0,3.0337063,-13788.214,-12073.276)"
         style="fill:#fc4a1a;fill-opacity:1"><g
           id="g15"
           style="fill:#fc4a1a;fill-opacity:1"><path
             style="fill:#fc4a1a;fill-opacity:1;stroke-width:0.168967"
             d="m 6902.034,5943.2387 c 1.4209,1.421 2.1542,3.702 1.6295,5.0691 -0.8273,2.1562 -17.2526,2.4855 -123.9379,2.4855 -114.8518,0 -123.0579,-0.1924 -124.1015,-2.9123 -2.7393,-7.1383 -1.2381,-7.2256 124.3038,-7.2256 104.995,0 119.8366,0.3141 122.1061,2.5833 z"
             id="path5" /><path
             style="fill:#fc4a1a;fill-opacity:1;stroke-width:0.168967"
             d="m 6925.8334,5919.2903 c 1.9176,1.402 2.7185,3.3676 2.0657,5.0689 -0.9782,2.5492 -13.2215,2.7789 -148.1735,2.7789 -134.9518,0 -147.195,-0.2297 -148.1733,-2.7789 -2.8219,-7.3539 -2.7181,-7.3592 148.1733,-7.3592 117.6431,0 143.5308,0.4058 146.1078,2.2903 z"
             id="path4" /></g></g><text
         xml:space="preserve"
         style="font-style:normal;font-variant:normal;font-weight:bold;font-stretch:normal;font-size:503.585px;font-family:Roboto;-inkscape-font-specification:'Roboto, Bold';font-variant-ligatures:normal;font-variant-caps:normal;font-variant-numeric:normal;font-variant-east-asian:normal;fill:#fc4a1a;fill-rule:evenodd;stroke:none;stroke-width:47.6301;stroke-linecap:round;stroke-linejoin:round;paint-order:stroke fill markers;fill-opacity:1"
         x="7277.5156"
         y="-5309.3701"
         id="text1"
         transform="scale(0.87547399,-1.1422384)"><tspan
           sodipodi:role="line"
           id="tspan1"
           style="font-style:normal;font-variant:normal;font-weight:bold;font-stretch:normal;font-size:503.585px;font-family:Roboto;-inkscape-font-specification:'Roboto, Bold';font-variant-ligatures:normal;font-variant-caps:normal;font-variant-numeric:normal;font-variant-east-asian:normal;stroke:none;stroke-width:47.6301;fill:#fc4a1a;fill-opacity:1"
           x="7277.5156"
           y="-5309.3701">PLS</tspan></text></g></g></svg>
