<?xml version="1.0" encoding="UTF-8" standalone="no"?>
<!-- Created with Inkscape (http://www.inkscape.org/) -->

<svg
   width="100"
   height="100"
   version="1.1"
   id="red-arrow-icon"
   inkscape:version="1.3.2 (091e20e, 2023-11-25, custom)"
   sodipodi:docname="red-arrow-icon.svg"
   xml:space="preserve"
   xmlns:inkscape="http://www.inkscape.org/namespaces/inkscape"
   xmlns:sodipodi="http://sodipodi.sourceforge.net/DTD/sodipodi-0.dtd"
   xmlns="http://www.w3.org/2000/svg"
   xmlns:svg="http://www.w3.org/2000/svg"><sodipodi:namedview
     id="namedview1"
     pagecolor="#ffffff"
     bordercolor="#111111"
     borderopacity="1"
     inkscape:showpageshadow="0"
     inkscape:pageopacity="0"
     inkscape:pagecheckerboard="1"
     inkscape:deskcolor="#d1d1d1"
     inkscape:document-units="mm"
     inkscape:zoom="0.464159"
     inkscape:cx="256.37766"
     inkscape:cy="49.551986"
     inkscape:current-layer="layer1"
     showguides="true"><sodipodi:guide
       position="-140.43724,50.586896"
       orientation="0,-1"
       id="guide3"
       inkscape:locked="false" /></sodipodi:namedview><defs
     id="defs1"><inkscape:path-effect
       effect="fillet_chamfer"
       id="path-effect39"
       is_visible="true"
       lpeversion="1"
       nodesatellites_param="F,0,0,1,0,0,0,1 @ F,0,0,1,0,0,0,1 @ F,0,0,1,0,0,0,1 @ F,0,0,1,0,0,0,1 @ F,0,0,1,0,0,0,1 @ F,0,0,1,0,0,0,1"
       radius="0"
       unit="px"
       method="auto"
       mode="F"
       chamfer_steps="1"
       flexible="false"
       use_knot_distance="true"
       apply_no_radius="true"
       apply_with_radius="true"
       only_selected="false"
       hide_knots="false" /><filter
       inkscape:label="Roughen Inside"
       inkscape:menu="Distort"
       inkscape:menu-tooltip="Roughen all inside shapes"
       style="color-interpolation-filters:sRGB;"
       id="filter2"
       x="-0.012051912"
       y="-0.012051913"
       width="1.0241038"
       height="1.0241038"><feTurbulence
         numOctaves="5"
         seed="0"
         type="fractalNoise"
         baseFrequency="0.08"
         id="feTurbulence2" /><feGaussianBlur
         stdDeviation="0.5"
         result="result91"
         id="feGaussianBlur2" /><feDisplacementMap
         scale="20"
         yChannelSelector="G"
         xChannelSelector="R"
         in="SourceGraphic"
         result="result1"
         in2="result91"
         id="feDisplacementMap2" /><feComposite
         in="result1"
         in2="SourceGraphic"
         operator="atop"
         id="feComposite2" /></filter><filter
       inkscape:label="Roughen Inside"
       inkscape:menu="Distort"
       inkscape:menu-tooltip="Roughen all inside shapes"
       style="color-interpolation-filters:sRGB;"
       id="filter3"
       x="-0.012051912"
       y="-0.012051913"
       width="1.0241038"
       height="1.0241038"><feTurbulence
         numOctaves="5"
         seed="0"
         type="fractalNoise"
         baseFrequency="0.08"
         id="feTurbulence3" /><feGaussianBlur
         stdDeviation="0.5"
         result="result91"
         id="feGaussianBlur3" /><feDisplacementMap
         scale="20"
         yChannelSelector="G"
         xChannelSelector="R"
         in="SourceGraphic"
         result="result1"
         in2="result91"
         id="feDisplacementMap3" /><feComposite
         in="result1"
         in2="SourceGraphic"
         operator="atop"
         id="feComposite3" /></filter><filter
       inkscape:collect="always"
       style="color-interpolation-filters:sRGB"
       id="filter9"
       x="-0.010168637"
       y="-0.014635917"
       width="1.0203373"
       height="1.0292718"><feGaussianBlur
         inkscape:collect="always"
         stdDeviation="0.71082848"
         id="feGaussianBlur9" /></filter><filter
       inkscape:collect="always"
       style="color-interpolation-filters:sRGB"
       id="filter1"
       x="-0.091035028"
       y="-0.12969288"
       width="1.1820701"
       height="1.2593858"><feGaussianBlur
         inkscape:collect="always"
         stdDeviation="3.6401354"
         id="feGaussianBlur1" /></filter></defs><g
     inkscape:label="Layer 1"
     inkscape:groupmode="layer"
     id="layer1"><path
       id="path1"
       style="fill:#000000;fill-opacity:1;fill-rule:evenodd;stroke:none;stroke-width:2.23492;stroke-linecap:round;stroke-linejoin:round;paint-order:stroke fill markers;filter:url(#filter1)"
       d="m 57.362901,16.324705 c -1.937512,0.06592 -3.649224,1.48392 -4.283786,3.282192 -0.614884,1.589966 -0.420909,3.324992 -0.51358,4.991258 -0.06734,1.428742 0.0061,2.958215 -0.691967,4.255422 -0.70437,1.147174 -2.142002,1.442271 -3.373434,1.642953 -2.426323,0.326671 -4.881678,0.15702 -7.321669,0.200225 -10.389678,0.0051 -20.779585,-0.01019 -31.169123,0.0076 -2.0407771,0.03865 -4.0465996,1.030519 -5.2434631,2.696874 -1.5876849,2.148692 -2.1163116,4.857469 -2.430609,7.455705 -0.434637,4.028998 -0.2924231,8.088868 -0.309118,12.133573 0.054923,3.499379 0.1277483,7.066975 1.1719777,10.437419 0.6608169,2.169156 1.9841716,4.312478 4.1305484,5.257773 1.4349445,0.692975 3.059355,0.631147 4.610688,0.616938 11.338868,0.0055 22.677881,-0.0111 34.016659,0.0083 1.67074,0.06878 3.430413,0.12141 4.945452,0.908322 1.064774,0.545061 1.430704,1.79098 1.53655,2.898203 0.226364,1.998 0.05414,4.022176 0.30362,6.016784 0.279991,1.923404 1.571733,3.773626 3.487331,4.34081 1.545283,0.496707 3.252346,0.05319 4.532304,-0.892897 9.546581,-6.161857 18.903288,-12.649816 27.702231,-19.84883 2.066112,-1.715781 4.140474,-3.428745 6.087742,-5.279767 1.898594,-1.87824 3.323976,-4.377159 3.417772,-7.094537 -0.02442,-0.30106 0.01528,-0.196186 0.01427,-0.433056 -0.05606,0.04059 0.01802,-0.386817 -0.0371,-0.66131 -0.215654,-2.768593 -1.790155,-5.241065 -3.78254,-7.097016 C 88.145349,36.734375 81.688479,31.808348 75.093865,27.099437 70.166739,23.598749 65.153641,20.217176 60.052878,16.975104 59.236041,16.521782 58.298921,16.278536 57.362895,16.324705 Z" /><path
       id="path5"
       style="fill:#c92236;fill-opacity:1;fill-rule:evenodd;stroke:none;stroke-width:2.23492;stroke-linecap:round;stroke-linejoin:round;paint-order:stroke fill markers"
       d="m 57.362901,16.324705 c -1.937512,0.06592 -3.649224,1.48392 -4.283786,3.282192 -0.614884,1.589966 -0.420909,3.324992 -0.51358,4.991258 -0.06734,1.428742 0.0061,2.958215 -0.691967,4.255422 -0.70437,1.147174 -2.142002,1.442271 -3.373434,1.642953 -2.426323,0.326671 -4.881678,0.15702 -7.321669,0.200225 -10.389678,0.0051 -20.779585,-0.01019 -31.169123,0.0076 -2.0407771,0.03865 -4.0465996,1.030519 -5.2434631,2.696874 -1.5876849,2.148692 -2.1163116,4.857469 -2.430609,7.455705 -0.434637,4.028998 -0.2924231,8.088868 -0.309118,12.133573 0.054923,3.499379 0.1277483,7.066975 1.1719777,10.437419 0.6608169,2.169156 1.9841716,4.312478 4.1305484,5.257773 1.4349445,0.692975 3.059355,0.631147 4.610688,0.616938 11.338868,0.0055 22.677881,-0.0111 34.016659,0.0083 1.67074,0.06878 3.430413,0.12141 4.945452,0.908322 1.064774,0.545061 1.430704,1.79098 1.53655,2.898203 0.226364,1.998 0.05414,4.022176 0.30362,6.016784 0.279991,1.923404 1.571733,3.773626 3.487331,4.34081 1.545283,0.496707 3.252346,0.05319 4.532304,-0.892897 9.546581,-6.161857 18.903288,-12.649816 27.702231,-19.84883 2.066112,-1.715781 4.140474,-3.428745 6.087742,-5.279767 1.898594,-1.87824 3.323976,-4.377159 3.417772,-7.094537 -0.02442,-0.30106 0.01528,-0.196186 0.01427,-0.433056 -0.05606,0.04059 0.01802,-0.386817 -0.0371,-0.66131 -0.215654,-2.768593 -1.790155,-5.241065 -3.78254,-7.097016 C 88.145349,36.734375 81.688479,31.808348 75.093865,27.099437 70.166739,23.598749 65.153641,20.217176 60.052878,16.975104 59.236041,16.521782 58.298921,16.278536 57.362895,16.324705 Z" /><path
       id="path4"
       style="fill:#f52341;fill-opacity:1;fill-rule:evenodd;stroke:none;stroke-width:4;stroke-linecap:round;stroke-linejoin:round;paint-order:stroke fill markers;filter:url(#filter9)"
       d="m -155.70249,-8.7128906 c -3.6056,-0.1756334 -6.92925,2.6598264 -7.17774,7.83203122 -0.52541,12.03008338 1.52249,17.95086838 -15.60351,17.89257838 h -62.04687 c -13.23494,-0.01009 -12.95666,18.125684 -12.95666,32.54785 0,14.422167 -0.27828,32.557938 12.95666,32.547853 h 62.04687 c 17.126,-0.05829 15.0781,5.862495 15.60351,17.892578 0.33131,6.89627 6.13002,9.64061 10.77344,6.62891 14.71171,-9.45753 39.601,-26.097717 59.445305,-43.841801 3.66076,-3.273323 6.808044,-7.482852 6.921884,-13.080078 h 0.0215 c -4e-5,-0.0504 -0.009,-0.09631 -0.01,-0.146484 5.2e-4,-0.05017 0.01,-0.09609 0.01,-0.146485 h -0.0215 c -0.11384,-5.59722 -3.261124,-9.808708 -6.921884,-13.082031 -19.844305,-17.744083 -44.733595,-34.382317 -59.445305,-43.8398435 -1.16086,-0.7529267 -2.39385,-1.1465337 -3.5957,-1.2050781 z"
       sodipodi:nodetypes="sccccccccscccccscs"
       transform="matrix(0.55873114,0,0,0.55873114,144.76723,22.30924)" /></g></svg>
