<?xml version="1.0" encoding="UTF-8" standalone="no"?>
<svg
   version="1.0"
   width="100px"
   height="100px"
   id="screen-animation-icon"
   sodipodi:docname="screen-animation-icon.svg"
   inkscape:version="1.3.2 (091e20e, 2023-11-25, custom)"
   xml:space="preserve"
   xmlns:inkscape="http://www.inkscape.org/namespaces/inkscape"
   xmlns:sodipodi="http://sodipodi.sourceforge.net/DTD/sodipodi-0.dtd"
   xmlns="http://www.w3.org/2000/svg"
   xmlns:svg="http://www.w3.org/2000/svg"><defs
     id="defs2"><inkscape:path-effect
       effect="fillet_chamfer"
       id="path-effect23"
       is_visible="true"
       lpeversion="1"
       nodesatellites_param="F,0,0,1,0,0,0,1 @ F,0,0,1,0,0,0,1 @ F,0,0,1,0,0,0,1 @ F,0,0,1,0,0,0,1 @ F,0,0,1,0,0,0,1 @ F,0,0,1,0,0,0,1 @ F,0,0,1,0,0,0,1 @ F,0,0,1,0,0,0,1"
       radius="0"
       unit="px"
       method="auto"
       mode="F"
       chamfer_steps="1"
       flexible="false"
       use_knot_distance="true"
       apply_no_radius="true"
       apply_with_radius="true"
       only_selected="false"
       hide_knots="false" /><inkscape:path-effect
       effect="fillet_chamfer"
       id="path-effect21"
       is_visible="true"
       lpeversion="1"
       nodesatellites_param="F,0,0,1,0,0,0,1 @ F,0,0,1,0,0,0,1 @ F,0,0,1,0,0,0,1 @ F,0,0,1,0,0,0,1 @ F,0,0,1,0,0,0,1 @ F,0,0,1,0,0,0,1 @ F,0,0,1,0,0,0,1 @ F,0,0,1,0,0,0,1"
       radius="0"
       unit="px"
       method="auto"
       mode="F"
       chamfer_steps="1"
       flexible="false"
       use_knot_distance="true"
       apply_no_radius="true"
       apply_with_radius="true"
       only_selected="false"
       hide_knots="false" /><inkscape:path-effect
       effect="fillet_chamfer"
       id="path-effect19"
       is_visible="true"
       lpeversion="1"
       nodesatellites_param="F,0,0,1,0,0,0,1 @ F,0,0,1,0,0,0,1 @ F,0,0,1,0,0,0,1 @ F,0,0,1,0,0,0,1 @ F,0,0,1,0,0,0,1 @ F,0,0,1,0,0,0,1 @ F,0,0,1,0,0,0,1 @ F,0,0,1,0,0,0,1"
       radius="0"
       unit="px"
       method="auto"
       mode="F"
       chamfer_steps="1"
       flexible="false"
       use_knot_distance="true"
       apply_no_radius="true"
       apply_with_radius="true"
       only_selected="false"
       hide_knots="false" /><inkscape:path-effect
       effect="fillet_chamfer"
       id="path-effect15"
       is_visible="true"
       lpeversion="1"
       nodesatellites_param="F,0,0,1,0,0,0,1 @ F,0,0,1,0,0,0,1 @ F,0,0,1,0,0,0,1 @ F,0,0,1,0,0,0,1 @ F,0,0,1,0,0,0,1 @ F,0,0,1,0,0,0,1 @ F,0,0,1,0,0,0,1 @ F,0,0,1,0,0,0,1"
       radius="0"
       unit="px"
       method="auto"
       mode="F"
       chamfer_steps="1"
       flexible="false"
       use_knot_distance="true"
       apply_no_radius="true"
       apply_with_radius="true"
       only_selected="false"
       hide_knots="false" /><inkscape:path-effect
       effect="fillet_chamfer"
       id="path-effect13"
       is_visible="true"
       lpeversion="1"
       nodesatellites_param="F,0,0,1,0,0,0,1 @ F,0,0,1,0,0,0,1 @ F,0,0,1,0,0,0,1 @ F,0,0,1,0,0,0,1 @ F,0,0,1,0,0,0,1 @ F,0,0,1,0,0,0,1 @ F,0,0,1,0,0,0,1 @ F,0,0,1,0,0,0,1"
       radius="0"
       unit="px"
       method="auto"
       mode="F"
       chamfer_steps="1"
       flexible="false"
       use_knot_distance="true"
       apply_no_radius="true"
       apply_with_radius="true"
       only_selected="false"
       hide_knots="false" /><inkscape:path-effect
       effect="fillet_chamfer"
       id="path-effect11"
       is_visible="true"
       lpeversion="1"
       nodesatellites_param="F,0,0,1,0,0,0,1 @ F,0,0,1,0,0,0,1 @ F,0,0,1,0,0,0,1 @ F,0,0,1,0,0,0,1 @ F,0,0,1,0,0,0,1 @ F,0,0,1,0,0,0,1 @ F,0,0,1,0,0,0,1 @ F,0,0,1,0,0,0,1"
       radius="0"
       unit="px"
       method="auto"
       mode="F"
       chamfer_steps="1"
       flexible="false"
       use_knot_distance="true"
       apply_no_radius="true"
       apply_with_radius="true"
       only_selected="false"
       hide_knots="false" /><inkscape:path-effect
       effect="fillet_chamfer"
       id="path-effect9"
       is_visible="true"
       lpeversion="1"
       nodesatellites_param="F,0,0,1,0,0,0,1 @ F,0,0,1,0,0,0,1 @ F,0,0,1,0,0,0,1 @ F,0,0,1,0,0,0,1 @ F,0,0,1,0,0,0,1 @ F,0,0,1,0,0,0,1 @ F,0,0,1,0,0,0,1 @ F,0,0,1,0,0,0,1"
       radius="0"
       unit="px"
       method="auto"
       mode="F"
       chamfer_steps="1"
       flexible="false"
       use_knot_distance="true"
       apply_no_radius="true"
       apply_with_radius="true"
       only_selected="false"
       hide_knots="false" /><inkscape:path-effect
       effect="fillet_chamfer"
       id="path-effect7"
       is_visible="true"
       lpeversion="1"
       nodesatellites_param="F,0,0,1,0,0,0,1 @ F,0,0,1,0,0,0,1 @ F,0,0,1,0,0,0,1 @ F,0,0,1,0,0,0,1 @ F,0,0,1,0,0,0,1 @ F,0,0,1,0,0,0,1 @ F,0,0,1,0,0,0,1 @ F,0,0,1,0,0,0,1"
       radius="0"
       unit="px"
       method="auto"
       mode="F"
       chamfer_steps="1"
       flexible="false"
       use_knot_distance="true"
       apply_no_radius="true"
       apply_with_radius="true"
       only_selected="false"
       hide_knots="false" /><inkscape:path-effect
       effect="fillet_chamfer"
       id="path-effect5"
       is_visible="true"
       lpeversion="1"
       nodesatellites_param="F,0,0,1,0,0,0,1 @ F,0,0,1,0,0,0,1 @ F,0,0,1,0,0,0,1 @ F,0,0,1,0,0,0,1 @ F,0,0,1,0,0,0,1 @ F,0,0,1,0,0,0,1 @ F,0,0,1,0,0,0,1 @ F,0,0,1,0,0,0,1"
       radius="0"
       unit="px"
       method="auto"
       mode="F"
       chamfer_steps="1"
       flexible="false"
       use_knot_distance="true"
       apply_no_radius="true"
       apply_with_radius="true"
       only_selected="false"
       hide_knots="false" /></defs><sodipodi:namedview
     id="namedview2"
     pagecolor="#ffffff"
     bordercolor="#111111"
     borderopacity="1"
     inkscape:showpageshadow="0"
     inkscape:pageopacity="0"
     inkscape:pagecheckerboard="1"
     inkscape:deskcolor="#d1d1d1"
     inkscape:zoom="3.2782162"
     inkscape:cx="12.659324"
     inkscape:cy="53.840256"
     inkscape:current-layer="g2" /><metadata
     id="metadata1" /><g
     transform="matrix(0.1,0,0,-0.1,-627.94301,668.07594)"
     fill="#000000"
     stroke="none"
     id="g2"><circle
       style="opacity:0;fill:#313043;fill-opacity:1;fill-rule:evenodd;stroke-width:0.390921;stroke-linecap:round;stroke-linejoin:round;paint-order:stroke fill markers"
       id="path2"
       cx="7129.9634"
       cy="-6045.8555"
       transform="scale(1,-1)"
       r="83.193756" /><path
       style="fill:#f9f9f9;stroke-width:0.166388"
       d="m 6844.0348,6380.9464 c -7.9342,15.6963 -23.7139,31.154 -34.5897,33.8837 -8.3517,2.0961 -4.8415,4.5833 4.8594,3.4432 12.3195,-1.4479 20.6526,-5.9439 29.019,-15.6567 l 6.9053,-8.0166 9.4302,4.7892 c 8.6549,4.3955 10.5929,4.735 23.5731,4.13 7.7787,-0.3626 16.3892,-1.6839 19.1346,-2.9362 4.8097,-2.1939 4.4729,-2.3161 -9.2375,-3.3516 -16.5511,-1.2499 -29.0493,-6.2065 -39.5332,-15.678 l -6.7744,-6.1203 z"
       id="path34" /><path
       style="fill:#f9f9f9;stroke-width:0.166388"
       d="m 7041.1379,6350.6828 c -9.5866,9.7604 -22.4635,17.1824 -41.7702,24.0758 -15.9387,5.6909 -16.2742,7.5413 -1.3674,7.5413 11.4927,0 28.051,-5.6146 39.907,-13.5317 l 10.2509,-6.8453 7.7005,7.7005 c 10.845,10.8449 21.898,16.0043 34.2864,16.0043 h 9.9223 l -10.3477,-5.1708 c -12.2478,-6.1204 -28.5665,-20.7091 -34.5109,-30.8524 -2.3328,-3.9807 -4.7319,-7.1189 -5.3313,-6.9739 -0.5994,0.145 -4.5322,3.7685 -8.7396,8.0522 z"
       id="path33" /><path
       style="fill:#f9f9f9;stroke-width:0.166388"
       d="m 6933.2596,6279.5469 c -6.7628,6.3595 -15.0316,12.0703 -22.4571,15.5097 -10.8106,5.0073 -11.3974,5.5331 -7.3187,6.5568 6.4189,1.6111 21.8613,-2.0435 28.9437,-6.8497 3.3564,-2.2778 6.2745,-3.9172 6.4846,-3.6432 0.2101,0.274 2.4512,4.3624 4.9803,9.0852 5.5986,10.4551 12.9711,17.8329 21.2856,21.3008 3.4317,1.4313 6.2395,2.2245 6.2395,1.7626 0,-0.462 -2.7308,-4.4029 -6.0686,-8.7577 -7.5302,-9.8247 -16.9608,-29.1313 -18.3119,-37.4885 -0.5581,-3.452 -1.4779,-6.5611 -2.0441,-6.9091 -0.5661,-0.348 -5.8461,3.8969 -11.7333,9.4331 z"
       id="path32" /><path
       style="fill:#000000;stroke-width:0.166388"
       d="m 7165.1105,6025.1856 c -0.5402,1.4077 3.1355,12.514 8.1682,24.6806 22.1682,53.5916 31.0813,97.6298 31.0813,153.5671 0,64.7176 -13.9639,123.0202 -43.1383,180.1122 -33.6442,65.8388 -87.0461,122.7998 -149.8712,159.8595 -75.9622,44.8091 -168.6235,63.3239 -254.5729,50.8666 -125.4619,-18.1841 -234.1672,-93.5833 -292.9781,-203.213 -4.7262,-8.81 -8.356,-13.7119 -10.1649,-13.727 -6.9326,-0.058 -5.1853,4.7328 12.4334,34.0861 32.1402,53.5468 80.5772,102.5036 133.4307,134.8627 49.4686,30.2868 99.5162,48.0339 159.7748,56.657 29.3211,4.1959 79.3605,3.8409 109.9189,-0.7798 181.3699,-27.4249 319.9032,-171.1666 341.1896,-354.0173 3.2477,-27.8975 2.3488,-78.6229 -1.8684,-105.4384 -5.6312,-35.8064 -18.6154,-78.4966 -32.6218,-107.2559 -5.7277,-11.7606 -9.0078,-14.8822 -10.7813,-10.2604 z"
       id="path31" /><g
       id="g34"
       style="fill:#f9f9f9"><path
         style="fill:#f9f9f9;stroke-width:0.166388"
         d="m 7028.8212,6010.5739 c -1.8302,1.3971 -5.0124,2.2258 -7.0715,1.8417 -4.7785,-0.8914 -4.7998,1.2395 -0.046,4.5694 4.9035,3.4345 8.3241,3.2664 12.8166,-0.6299 3.6908,-3.201 12.6692,-3.4675 32.9857,-0.9792 11.0065,1.348 4.9515,-2.0914 -8.3194,-4.7257 -16.9442,-3.3634 -26.0293,-3.3862 -30.3657,-0.076 z"
         id="path30" /><path
         style="fill:#f9f9f9;stroke-width:0.166388"
         d="m 6909.4225,6006.6384 c -5.8654,3.3996 -6.9819,3.5009 -17.9175,1.6256 -15.8061,-2.7104 -20.0372,-2.4849 -24.9116,1.3279 -5.625,4.3999 -18.8,4.412 -27.4046,0.025 -3.5628,-1.8164 -6.7365,-3.0439 -7.0526,-2.7278 -1.2861,1.2861 11.7344,9.7549 18.5887,12.0904 6.875,2.3425 7.8511,2.2816 15.1478,-0.9461 9.2214,-4.0791 15.2886,-4.2946 26.3592,-0.9362 11.1713,3.389 17.0497,3.1121 22.9372,-1.0802 5.1935,-3.698 12.5393,-3.7747 36.9222,-0.3856 6.5774,0.9142 7.9797,0.684 7.3519,-1.2071 -0.7935,-2.3899 -31.8147,-11.2968 -39.6058,-11.3716 -2.2878,-0.022 -6.9745,1.5915 -10.4149,3.5856 z"
         id="path29" /><path
         style="fill:#f9f9f9;stroke-width:0.166388"
         d="m 6806.6939,5959.7649 c -5.0332,1.8133 -13.831,4.1619 -19.5505,5.2192 -5.7196,1.0572 -10.3993,2.413 -10.3993,3.0127 0,1.5163 15.6923,4.9898 22.542,4.9898 3.1071,0 11.2908,-1.2396 18.1859,-2.7547 l 12.5365,-2.7547 11.6938,4.588 c 9.1098,3.5741 13.2439,4.3549 18.7084,3.5337 19.0706,-2.866 20.9899,-2.8332 33.103,0.5658 16.1773,4.5393 29.1581,4.4979 39.9097,-0.1273 l 8.3794,-3.6047 17.2639,3.832 c 15.2685,3.389 18.1388,3.5869 24.8335,1.7125 4.1632,-1.1656 7.9688,-2.7653 8.4568,-3.5549 1.5069,-2.4382 15.1919,-1.5959 32.8751,2.0234 18.0361,3.6916 26.6116,3.3556 34.5865,-1.3553 4.3658,-2.579 5.8811,-2.5737 22.6143,0.078 19.1628,3.0372 26.6994,3.5319 24.7949,1.6273 -0.6502,-0.6502 -6.9521,-2.4636 -14.0043,-4.0298 -7.0522,-1.5662 -17.3254,-4.1544 -22.8294,-5.7515 -9.5569,-2.7732 -10.4337,-2.7697 -19.4858,0.078 l -9.4786,2.9814 -18.7833,-5.2007 c -23.5216,-6.5126 -37.9179,-6.9075 -37.9179,-1.04 0,3.6622 -7.5312,4.2568 -21.0794,1.6643 -18.6379,-3.5664 -31.1895,-3.2549 -38.6895,0.9604 l -6.1461,3.4543 -19.0386,-4.3963 c -28.4344,-6.5658 -31.0241,-6.8024 -35.0062,-3.1987 -3.3343,3.0175 -3.8284,2.9839 -21.1894,-1.4398 -21.0049,-5.3521 -24.7993,-5.4666 -36.8854,-1.1123 z"
         id="path28" /><path
         style="fill:#f9f9f9;stroke-width:0.166388"
         d="m 6856.6101,5897.9583 c -3.2029,0.6726 -8.2197,2.4799 -11.1485,4.0162 -6.5107,3.4153 -18.0025,3.5368 -31.2803,0.3307 -17.789,-4.2953 -36.8186,-2.6197 -45.6121,4.0162 -3.9558,2.9851 -3.7338,3.0269 14.9749,2.818 17.7313,-0.1979 19.9095,0.1465 32.8592,5.1956 18.0733,7.0468 24.6053,6.975 37.8215,-0.4159 5.7274,-3.203 12.6881,-5.8236 15.4682,-5.8236 2.7801,0 12.3921,2.6689 21.36,5.9309 29.8111,10.8434 41.572,11.0181 47.4342,0.7046 5.4917,-9.6615 14.6243,-10.1793 38.3884,-2.1764 11.6724,3.9309 13.5783,4.1508 19.3805,2.2359 5.6741,-1.8726 7.6736,-1.7054 16.9113,1.4142 13.4905,4.5558 14.1793,4.5159 30.0093,-1.7395 l 13.3552,-5.2775 19.0738,2.9913 c 10.4907,1.6452 19.3919,2.6734 19.7805,2.2847 0.3887,-0.3887 -6.942,-3.2536 -16.2904,-6.3666 -20.2132,-6.7309 -34.7651,-7.6013 -45.5933,-2.7271 l -6.8825,3.0981 -15.5382,-5.0464 c -19.4629,-6.3211 -29.1831,-7.6636 -34.6726,-4.7888 -2.9935,1.5675 -6.0257,1.756 -10.8152,0.6721 -10.3562,-2.3437 -30.8076,-0.4321 -38.7551,3.6224 -8.8204,4.4998 -14.4338,4.4106 -32.7916,-0.5209 -17.6442,-4.7399 -29.3976,-6.1364 -37.4372,-4.4482 z"
         id="path27" /><path
         style="fill:#f9f9f9;stroke-width:0.166388"
         d="m 7096.6241,5881.0301 c -29.1447,6.0705 -1.1288,9.3299 35.3574,4.1136 9.8056,-1.4019 8.5963,-2.6837 -4.8813,-5.1738 -12.0828,-2.2325 -15.1861,-2.1245 -30.4761,1.0602 z"
         id="path26" /><path
         style="fill:#f9f9f9;stroke-width:0.166388"
         d="m 6902.3667,5849.0036 c -4.5756,1.3053 -15.2452,2.4063 -23.7102,2.4467 -8.465,0.04 -15.3909,0.762 -15.3909,1.6036 0,0.8416 3.8823,2.8197 8.6273,4.3957 7.0871,2.3539 12.0088,2.6724 27.5681,1.7837 l 18.9407,-1.0817 11.949,5.9012 c 13.6358,6.7343 19.3439,6.691 33.1081,-0.2513 9.8736,-4.98 14.2515,-4.9539 28.7572,0.1715 12.8221,4.5305 17.9922,4.3158 30.6227,-1.2712 7.6415,-3.3802 14.0641,-3.4116 40.092,-0.1954 5.0332,0.6219 8.6852,0.6221 8.1154,0 -0.5697,-0.6217 -9.0723,-3.4163 -18.8947,-6.2103 -17.9029,-5.0924 -18.8811,-5.1476 -38.5271,-2.1736 -4.618,0.699 -11.6862,-0.1636 -21.5145,-2.6258 -17.7993,-4.4592 -30.1399,-3.9176 -33.7236,1.4798 -3.0391,4.5771 -7.6656,4.4677 -21.9383,-0.5189 -15.5664,-5.4386 -24.0958,-6.3031 -34.0812,-3.4545 z"
         id="path25" /><path
         style="fill:#f9f9f9;stroke-width:0.166388"
         d="m 6821.8937,5815.8156 c -3.0792,1.3368 -8.5076,2.4307 -12.0631,2.4307 -7.8063,0 -8.3968,2.3285 -1.2245,4.8288 7.3085,2.5478 14.6015,2.281 24.4314,-0.8937 7.9491,-2.5673 13.4015,-2.2651 22.7407,1.2603 4.2976,1.6223 2.5154,-3.1145 -2.4242,-6.4434 -6.6382,-4.4734 -22.5067,-5.07 -31.4603,-1.1827 z"
         id="path24" /><path
         style="fill:#f9f9f9;stroke-width:0.166388"
         d="m 6992.3807,5797.565 c -3.57,1.3081 -11.4318,3.3809 -17.4707,4.6061 l -10.9799,2.2276 5.6092,2.9111 c 3.9979,2.0748 7.8216,2.6557 13.311,2.0222 27.9963,-3.2313 27.722,-3.2356 36.1664,0.5768 11.157,5.0372 18.4679,4.817 26.9743,-0.8123 5.9443,-3.9336 8.0692,-4.461 14.4502,-3.5864 10.9883,1.5061 9.1117,-1.4184 -2.8424,-4.4297 -9.8707,-2.4864 -10.6747,-2.4493 -18.3329,0.8452 l -8.0096,3.4456 -12.4107,-5.2096 c -13.7279,-5.7625 -16.96,-6.0796 -26.4649,-2.5966 z"
         id="path23" /></g><path
       style="fill:#000000;stroke-width:0.166388"
       d="m 6466.0155,6295.2165 c -1.1439,0.4616 -3.0158,0.4616 -4.1597,0 -1.1439,-0.4616 -0.208,-0.8392 2.0798,-0.8392 2.2878,0 3.2238,0.3776 2.0799,0.8392 z"
       id="path22" /><path
       style="fill:#000000;stroke-width:0.166388"
       d="m 6542.5861,6237.1268 c -1.8706,4.9022 -13.9338,25.2855 -15.5587,26.2898 -4.087,2.5259 -0.642,-5.5626 7.1318,-16.7446 4.763,-6.8513 8.8576,-12.457 9.0991,-12.457 0.2414,0 -0.061,1.3103 -0.6722,2.9118 z"
       id="path21" /><path
       style="fill:#000000;stroke-width:0.166388"
       d="m 6551.4011,6228.5183 c -3.7398,10.7068 -4.0328,11.0864 -4.1479,5.3759 -0.1085,-5.3827 5.8594,-19.2087 7.5581,-17.51 0.3376,0.3376 -1.197,5.798 -3.4102,12.1341 z"
       id="path20" /><path
       style="fill:#000000;stroke-width:0.166388"
       d="m 6670.8329,5842.8424 c -0.5253,2.0088 -1.6207,3.2409 -2.4343,2.7381 -0.8324,-0.5145 -0.6908,-2.3874 0.324,-4.2835 2.2362,-4.1784 3.3868,-3.3359 2.1103,1.5454 z"
       id="path19" /><path
       style="fill:#000000;stroke-width:0.166388"
       d="m 6716.0127,5823.2379 c 0.5734,0.9278 -0.6712,1.6526 -2.8136,1.6384 -3.0909,-0.02 -3.354,-0.3408 -1.3461,-1.6384 3.0961,-2.0008 2.9231,-2.0008 4.1597,0 z"
       id="path18" /><path
       style="fill:#000000;stroke-width:0.166388"
       d="m 6546.1179,5789.762 c 1.5736,1.7388 7.3979,5.5796 12.9428,8.535 10.3154,5.498 10.7623,8.1872 1.3797,8.3021 -3.3505,0.041 -3.6742,0.3795 -1.6639,1.7399 1.8387,1.2443 1.1815,1.42 -2.4958,0.6675 -2.7454,-0.5618 -5.9276,-1.3098 -7.0715,-1.6622 -1.1439,-0.3524 -2.0798,0.084 -2.0798,0.9709 0,0.8864 0.8735,1.6117 1.9412,1.6117 1.0676,0 1.5654,0.3757 1.1062,0.8349 -0.4592,0.4592 -4.5149,-0.2531 -9.0126,-1.5828 l -8.1778,-2.4177 4.0676,3.3596 4.0676,3.3597 -4.8995,-1.1886 c -2.6948,-0.6537 -6.5842,-1.8091 -8.6433,-2.5676 -7.4171,-2.7322 -3.5401,0.4798 5.667,4.6949 12.4062,5.6798 28.251,6.8709 41.2251,3.0993 5.2918,-1.5384 10.022,-2.3965 10.5116,-1.9068 1.4451,1.445 -3.0934,6.0598 -13.557,13.7848 l -9.8132,7.245 6.1922,-0.7681 c 3.4057,-0.4224 9.8117,-2.6606 14.2355,-4.9737 7.1177,-3.7218 8.163,-3.8939 9.0832,-1.4959 0.572,1.4904 0.2666,3.4831 -0.6785,4.4282 -2.2014,2.2014 -2.2429,4.9012 -0.055,3.5487 2.6008,-1.6074 1.9557,1.165 -1.6456,7.0715 -3.3359,5.4712 -2.5534,7.1414 1.559,3.3277 1.2335,-1.1439 -0.1143,1.4244 -2.995,5.7074 -6.1117,9.0866 -6.6794,11.4793 -1.6679,7.0296 l 3.5699,-3.1697 -2.1198,4.1597 c -1.1659,2.2878 -3.2628,5.47 -4.6597,7.0715 -1.4107,1.6172 -1.7431,2.9118 -0.7478,2.9118 2.8883,0 13.429,-13.2813 17.7663,-22.3854 l 4,-8.3963 1.9085,4.9916 c 11.2883,29.5254 13.3713,109.613 4.2575,163.6972 -12.0188,71.323 -35.768,137.8803 -77.1032,216.0823 -12.4742,23.5998 -14.8055,27.038 -18.3337,27.038 -3.9953,0 -4.0287,-0.1301 -2.8852,-11.2312 1.6245,-15.7691 7.1438,-40.6687 12.0712,-54.4568 6.3093,-17.6554 20.9057,-45.1515 31.2163,-58.8041 8.2702,-10.9509 8.6523,-11.7983 3.7854,-8.3944 -2.9773,2.0825 -9.7803,8.2074 -15.1178,13.611 -8.383,8.487 -9.3154,9.0636 -6.8478,4.2346 1.5711,-3.0745 4.3351,-7.6922 6.1422,-10.2615 5.5442,-7.8826 2.0578,-6.7694 -5.2616,1.6799 -3.8035,4.3907 -9.4955,13.2243 -12.6489,19.6303 -6.295,12.7879 -6.9185,12.711 -3.4223,-0.4221 1.2799,-4.8078 1.7397,-8.3785 1.0218,-7.9348 -2.3643,1.4612 -10.1608,19.4274 -12.2014,28.1169 l -2.0022,8.5258 -0.882,-9.1513 -0.882,-9.1513 -2.2338,7.4875 c -1.2286,4.118 -2.7516,11.7784 -3.3845,17.0229 -1.5094,12.5077 -3.4329,14.157 -3.4329,2.9436 0,-13.2547 -1.5094,-9.2137 -3.1661,8.4763 -1.3172,14.0643 -0.4307,33.6777 2.2489,49.7593 0.732,4.3929 0.1436,3.5962 -2.3952,-3.2431 -1.8511,-4.9866 -4.5749,-15.8434 -6.0528,-24.1262 -3.6542,-20.4793 -3.9741,-21.1429 -6.4562,-13.3957 l -2.1323,6.6555 -0.3713,-11.6471 c -0.2042,-6.4059 -0.857,-13.8933 -1.4506,-16.6387 l -1.0793,-4.9917 -1.8957,4.9917 c -1.0425,2.7454 -2.5248,6.4891 -3.2939,8.3193 -0.9053,2.1545 -1.6936,-4.005 -2.2358,-17.4706 l -0.8375,-20.7985 -3.2464,9.1513 c -1.7855,5.0332 -3.4977,7.9831 -3.8049,6.5552 -0.3072,-1.4279 0.1438,-12.6591 1.0022,-24.9582 0.8584,-12.299 1.3234,-22.6108 1.0333,-22.9151 -0.2901,-0.3042 -2.2352,4.937 -4.3223,11.6472 -2.0872,6.7101 -4.4648,12.949 -5.2837,13.8641 -1.3615,1.5216 -0.6548,-19.2152 1.3326,-39.1011 l 0.7483,-7.4874 -3.4166,7.4874 c -15.6348,34.2627 -12.595,88.1741 6.9215,122.7554 10.5142,18.6301 8.4486,18.109 -11.7189,-2.9563 -10.9516,-11.4392 -19.9251,-20.0497 -19.9412,-19.1346 -0.016,0.9151 1.0394,5.782 2.3457,10.8152 l 2.375,9.1513 -10.6679,-11.371 c -11.1854,-11.9226 -23.2819,-28.0355 -28.1165,-37.452 -1.5707,-3.0592 -3.2374,-5.1805 -3.7039,-4.7141 -1.4271,1.4271 5.8638,25.7521 10.4656,34.9172 10.4761,20.8643 32.2147,44.833 50.6485,55.8445 12.3831,7.397 3.5807,4.7586 -11.6598,-3.495 l -12.3707,-6.6993 5.7152,7.2833 5.7152,7.2833 -4.9917,-3.2177 c -2.7454,-1.7698 -9.0743,-6.0481 -14.0642,-9.5073 -4.99,-3.4593 -9.3674,-5.9949 -9.7277,-5.6346 -0.3603,0.3603 1.8247,4.2592 4.8555,8.6643 l 5.5105,8.0092 -9.0939,-6.5741 c -5.0016,-3.6158 -12.82,-9.3686 -17.3743,-12.7842 -4.5542,-3.4155 -8.5671,-5.9234 -8.9174,-5.5731 -0.3504,0.3504 1.6658,4.0492 4.4804,8.2197 2.8146,4.1704 4.7032,7.5826 4.1968,7.5826 -0.5063,0 -8.53,-6.2081 -17.8304,-13.7958 -9.3003,-7.5876 -17.9611,-14.4419 -19.2461,-15.2316 -2.1564,-1.3253 2.644,6.0447 11.8625,18.2122 3.6735,4.8487 3.5198,4.8054 -5.368,-1.511 -5.0323,-3.5764 -13.9366,-10.6879 -19.7874,-15.8034 l -10.6376,-9.3008 5.6264,9.1442 c 7.3638,11.9676 26.5848,32.1029 38.1112,39.9239 21.2508,14.4193 46.4662,23.795 69.9174,25.997 l 14.1083,1.3248 -11.6471,1.3538 c -6.4059,0.7445 -16.1396,0.9422 -21.6304,0.4392 l -9.9832,-0.9145 10.7736,6.1784 10.7737,6.1784 -4.9501,1.4175 c -9.8595,2.8232 -41.6355,-2.6608 -60.1372,-10.3788 l -8.0401,-3.3539 6.6555,6.2689 c 3.6605,3.4478 8.5273,7.6105 10.8151,9.2503 4.1314,2.9611 4.0861,2.9752 -6.6555,2.072 -5.9483,-0.5001 -18.2997,-2.7194 -27.4474,-4.9317 -9.1477,-2.2123 -16.8655,-3.7892 -17.1505,-3.5042 -1.1055,1.1055 10.1716,7.9879 21.6995,13.2432 19.7387,8.9983 33.8674,11.7745 59.5037,11.6922 26.6598,-0.085 38.8776,-3.0412 60.8174,-14.7125 7.7911,-4.1446 13.7536,-6.869 13.25,-6.0543 -0.9153,1.4811 -21.4084,18.2017 -29.1831,23.811 l -4.1194,2.972 8.8205,-0.6561 8.8205,-0.6562 -4.344,4.5342 c -6.6617,6.9533 -35.5485,19.9518 -44.3391,19.9518 -1.687,0 -3.0673,0.7131 -3.0673,1.5845 0,0.8715 4.6796,1.8074 10.3992,2.0799 l 10.3992,0.4953 -10.3946,5.4293 c -5.7171,2.986 -14.702,7.0094 -19.9665,8.9408 -11.8526,4.3483 -15.1078,7.0205 -7.0761,5.8087 3.203,-0.4832 9.8339,-1.3265 14.7354,-1.8741 20.7599,-2.3189 44.6182,-15.0644 63.0508,-33.6829 l 12.0631,-12.1847 0.1266,8.7898 0.1266,8.7899 2.2426,-5.8236 2.2426,-5.8236 0.1266,10.3011 c 0.1244,10.1164 3.3158,16.936 3.5959,7.6838 0.103,-3.4038 0.693,-2.4132 2.1712,3.6455 1.1163,4.5757 2.9017,9.8169 3.9676,11.6472 1.8551,3.1856 1.94,3.1539 1.9885,-0.7427 0.04,-3.2098 0.9379,-2.2898 4.2473,4.3513 2.3081,4.6319 5.8166,9.8329 7.7965,11.5578 l 3.5999,3.1362 -3.6369,-6.02 c -5.6938,-9.4247 -4.3415,-9.1621 4.9021,0.9519 9.3549,10.2357 11.727,11.0818 6.5716,2.344 -8.6299,-14.6266 -23.43,-60.273 -23.43,-72.2627 0,-7.241 4.5239,-4.3713 12.6365,8.0158 17.4066,26.5781 48.012,50.8084 79.5281,62.9623 26.5074,10.2223 36.0394,11.9958 65.4044,12.1691 17.6203,0.1039 27.5898,-0.4761 28.7886,-1.6748 1.3357,-1.3357 -0.9004,-2.1195 -8.234,-2.886 -5.5373,-0.5788 -18.4921,-3.123 -28.7886,-5.6537 l -18.7208,-4.6014 16.4019,-1.169 c 9.0211,-0.6429 17.2362,-1.447 18.2559,-1.7869 1.0197,-0.3399 -11.8314,-3.5576 -28.558,-7.1505 -29.9207,-6.4269 -33.5027,-8.4405 -15.7652,-8.8623 3.8353,-0.091 7.3297,-0.7426 7.7653,-1.4475 0.4357,-0.7049 -10.1897,-4.2518 -23.612,-7.8819 -25.1154,-6.7927 -26.5114,-8.3832 -7.8486,-8.9422 9.6719,-0.2898 5.8695,-2.4172 -15.6212,-8.7402 l -19.0321,-5.5997 10.7127,-0.8319 10.7128,-0.8319 -6.6555,-2.3114 c -7.2033,-2.5016 -35.7733,-16.4606 -35.7733,-17.4784 0,-0.342 4.3513,1.1357 9.6696,3.2839 37.7359,15.2422 86.7426,14.9443 128.4321,-0.7807 11.2633,-4.2485 32.9451,-16.4915 40.2976,-22.7548 3.3127,-2.8219 4.1506,-4.1382 2.1312,-3.348 -15.8943,6.22 -50.2259,16.0081 -55.6647,15.8703 -1.414,-0.036 0.05,-1.1976 3.2526,-2.5818 5.6849,-2.4567 26.622,-15.5067 26.622,-16.5934 0,-0.3007 -3.9309,0.6223 -8.7353,2.0512 -30.9658,9.2098 -52.0449,15.1991 -52.3652,14.8789 -0.2044,-0.2044 4.5222,-3.5892 10.5036,-7.5218 5.9814,-3.9325 10.6328,-7.3925 10.3365,-7.6888 -0.2963,-0.2963 -11.7218,2.0272 -25.3899,5.1633 -13.6682,3.1361 -25.1831,5.702 -25.5888,5.702 -0.4057,0 3.4848,-2.7806 8.6455,-6.1792 5.1607,-3.3986 9.3831,-6.6711 9.3831,-7.2722 0,-0.601 -6.8575,0.3137 -15.239,2.0328 -16.0803,3.2983 -20.8955,3.1608 -10.2466,-0.2925 8.6836,-2.8159 28.0501,-12.6032 37.1327,-18.7659 17.0439,-11.5644 36.8264,-33.2244 47.3876,-51.8848 l 4.7085,-8.3194 -9.8253,9.1808 c -12.334,11.5249 -28.176,24.9287 -29.4634,24.9287 -0.5373,0 2.7221,-5.3695 7.2431,-11.9322 4.521,-6.5627 7.8793,-12.2728 7.4629,-12.6892 -0.4164,-0.4164 -8.0876,5.8979 -17.047,14.0319 -8.9595,8.1339 -18.0833,16.2775 -20.2751,18.0968 l -3.9851,3.3079 4.1388,-6.6555 c 2.2764,-3.6606 5.0923,-8.4529 6.2576,-10.6497 l 2.1187,-3.9941 -4.7682,3.4073 c -2.6226,1.8741 -10.7494,8.2975 -18.0597,14.2743 -12.4892,10.211 -17.9208,13.1383 -12.1344,6.5396 1.4092,-1.607 3.8375,-5.4378 5.3961,-8.5127 3.3681,-6.6446 3.1234,-6.5298 -14.4957,6.7998 -7.0922,5.3657 -12.895,9.2683 -12.895,8.6725 0,-0.5958 2.4334,-4.186 5.4076,-7.9782 4.9374,-6.2955 5.0459,-6.6692 1.2479,-4.298 -12.1595,7.5913 -17.259,10.3541 -28.9231,15.6696 -17.0015,7.7478 -17.8798,4.9412 -3.1736,-10.1416 21.955,-22.5172 32.0043,-46.4544 33.3696,-79.4856 0.5339,-12.9187 0.2424,-19.4251 -0.8403,-18.756 -0.9118,0.5636 -2.1449,4.6965 -2.7403,9.1843 -0.5953,4.4879 -2.3667,12.1793 -3.9365,17.0921 l -2.8541,8.9324 -0.8705,-10.8152 -0.8704,-10.8152 -4.9586,19.9665 -4.9586,19.9665 -0.9351,-8.3194 c -0.8618,-7.6663 -1.0724,-7.9928 -2.6829,-4.1597 -0.9613,2.2879 -3.1544,9.4009 -4.8736,15.8068 l -3.1259,11.6472 -1.4239,-7.6853 c -1.4028,-7.5714 -1.2018,-8.0844 13.562,-34.6245 41.2491,-74.1513 66.2917,-150.8896 74.4278,-228.0699 3.0488,-28.9209 2.5385,-82.9755 -1.0247,-108.5491 -1.6159,-11.5972 -1.6035,-15.049 0.061,-17.0547 3.5092,-4.2283 5.7406,-2.8616 8.6818,5.3174 2.0382,5.6682 2.3231,8.4264 1.0311,9.9833 -1.3014,1.5681 -1.2092,2.1512 0.3401,2.1512 1.4099,0 1.0583,1.2385 -1.0442,3.6784 l -3.1696,3.6784 4.6554,-2.9371 c 4.6163,-2.9124 4.6944,-2.8953 9.304,2.0393 4.5994,4.9237 4.6514,5.2234 4.9107,28.2966 0.8669,77.1324 28.1766,161.3375 75.6686,233.3121 5.1994,7.8797 9.4535,14.6431 9.4535,15.0298 0,0.3867 -2.0591,0.6199 -4.5757,0.5182 -3.7796,-0.1527 -5.7842,-2.1424 -11.5221,-11.4366 -6.4874,-10.5083 -6.9821,-10.9394 -7.4874,-6.5256 -0.4586,4.0061 -1.3015,2.8249 -5.5327,-7.7529 l -4.9916,-12.479 -0.8319,7.4874 -0.832,7.4874 -6.169,-15.8068 -6.169,-15.8068 -0.2442,9.1513 -0.2443,9.1513 -6.0658,-18.605 c -3.3362,-10.2328 -6.7012,-19.2177 -7.4778,-19.9665 -0.7766,-0.7488 -0.9626,3.8797 -0.4132,10.2857 l 0.9987,11.6471 -3.4976,-9.1513 c -1.9237,-5.0333 -4.9136,-14.0182 -6.6441,-19.9665 l -3.1465,-10.8152 0.6883,16.6387 c 1.0015,24.2063 8.1486,45.0772 22.2217,64.8912 3.25,4.5756 4.6596,7.2917 3.1325,6.0358 -3.4804,-2.8625 -3.5074,-1.5039 -0.105,5.2779 2.1372,4.26 0.2859,2.9956 -9.2565,-6.3221 l -11.9279,-11.6471 3.4767,9.1513 3.4768,9.1513 -13.2825,-14.143 c -12.8908,-13.7259 -16.201,-15.182 -10.8087,-4.7543 4.9172,9.5088 1.1987,6.4964 -12.5724,-10.185 -7.5709,-9.1709 -14.0541,-16.6743 -14.4071,-16.6743 -0.9723,0 4.1334,11.7467 7.8395,18.036 1.801,3.0563 2.6182,5.3025 1.816,4.9916 -2.1361,-0.8279 -18.2875,-19.5088 -23.1756,-26.8051 -2.3115,-3.4504 -4.5079,-5.9682 -4.8809,-5.5953 -0.3729,0.373 1.1896,5.2746 3.4723,10.8925 12.9533,31.8782 45.0634,62.0654 78.3427,73.6511 l 13.3591,4.6507 -9.9833,0.158 -9.9832,0.158 5.4076,2.3648 c 2.9741,1.3007 5.4076,2.6046 5.4076,2.8977 0,0.293 -5.8028,-0.3837 -12.8951,-1.5037 -7.0922,-1.12 -13.1518,-1.7915 -13.4656,-1.4921 -0.3138,0.2993 1.6977,1.7172 4.4702,3.1509 9.1754,4.7448 6.9317,5.4246 -7.5437,2.2856 -16.2643,-3.527 -20.5253,-3.1733 -12.4241,1.0311 9.1822,4.7655 4.8188,4.8291 -12.251,0.1788 -8.8701,-2.4165 -16.4966,-4.0244 -16.9479,-3.5732 -0.4512,0.4512 3.0723,2.7929 7.8299,5.2038 4.7577,2.4109 8.347,4.6867 7.9763,5.0574 -0.7738,0.7738 -24.6373,-4.7583 -32.1025,-7.442 -4.7274,-1.6995 -4.8155,-1.6548 -1.6639,0.8456 1.8303,1.452 7.8203,4.9418 13.311,7.7549 35.0072,17.9356 79.4247,16.8221 110.4589,-2.7689 3.7644,-2.3764 6.8443,-3.526 6.8443,-2.5548 0,3.617 -32.9191,34.4825 -45.7369,42.8837 -11.537,7.5616 -12.5252,8.567 -7.4874,7.6163 3.1921,-0.6023 8.4245,-2.1213 11.6275,-3.3755 l 5.8235,-2.2804 -4.1597,3.3009 c -6.4713,5.1353 -1.5649,3.9542 7.5276,-1.8122 4.4985,-2.8528 7.159,-3.9578 5.9122,-2.4555 -4.7488,5.722 -0.3036,4.0951 6.2872,-2.3011 7.2137,-7.0006 8.0457,-7.1914 5.1372,-1.1781 -1.6811,3.4757 -1.6104,3.4653 1.6191,-0.2383 1.8572,-2.13 4.9358,-5.8737 6.8412,-8.3194 2.594,-3.3295 3.0234,-3.5336 1.7088,-0.8124 -2.8221,5.8416 -2.0345,6.3361 1.8568,1.1657 6.2868,-8.3534 6.6683,-8.3293 3.0332,0.1916 l -3.5492,8.3194 5.3463,-4.9916 5.3462,-4.9917 -6.6778,12.8951 c -6.9542,13.4287 -7.0771,15.7834 -0.4558,8.7353 7.0814,-7.5378 6.4969,-4.3615 -1.8747,10.1871 -4.5405,7.8907 -7.9936,14.6087 -7.6734,14.9289 0.3202,0.3201 3.507,-1.8288 7.0818,-4.7755 6.9414,-5.7217 6.8287,-5.3269 -2.506,8.7773 -3.3312,5.0333 -7.8533,12.1193 -10.0492,15.7469 l -3.9925,6.5955 6.2737,-4.7852 c 3.4505,-2.6318 7.3543,-6.328 8.6751,-8.2136 1.3207,-1.8857 2.4014,-2.6787 2.4014,-1.7623 0,0.9164 -4.4765,8.5882 -9.9476,17.0484 -11.5306,17.83 -9.0481,17.7107 7.8438,-0.377 13.8827,-14.8655 23.6937,-32.7409 28.8161,-52.5021 3.0005,-11.5754 3.5066,-17.2559 2.9148,-32.7171 -0.3939,-10.2903 -0.1081,-18.3337 0.6351,-17.8744 0.7433,0.4594 1.3514,2.1689 1.3514,3.799 0,10.0562 18.9698,35.8638 35.0241,47.6488 9.3311,6.8496 27.2133,14.7567 37.3545,16.5173 6.1708,1.0713 5.565,0.4713 -8.3194,-8.2392 -20.9212,-13.1251 -21.4127,-13.7807 -9.6518,-12.8754 l 9.6518,0.743 -13.5032,-6.8299 c -13.5728,-6.8651 -29.0364,-18.8604 -27.0018,-20.9456 0.6005,-0.6155 3.7827,-0.3762 7.0715,0.5319 3.2887,0.9081 5.9795,1.367 5.9795,1.0199 0,-0.3471 -3.8095,-4.1945 -8.4656,-8.5497 -4.656,-4.3552 -10.0649,-10.188 -12.0197,-12.9617 -2.6435,-3.751 -1.0509,-2.8247 6.2156,3.6153 31.0764,27.5413 83.7157,36.5558 120.9995,20.7214 l 7.0557,-2.9966 -19.8715,0.5008 -19.8715,0.5007 9.7189,-3.1675 c 5.3454,-1.7421 10.2123,-3.6705 10.8152,-4.2852 0.6029,-0.6147 -8.263,-0.6744 -19.7022,-0.1327 -18.9503,0.8974 -20.3549,0.7704 -15.8068,-1.4288 2.7454,-1.3275 5.9276,-2.4474 7.0715,-2.4887 4.6986,-0.1695 1.6641,-2.5761 -3.3267,-2.6382 -2.9748,-0.037 -10.2755,-0.2854 -16.2239,-0.5517 l -10.8151,-0.4844 5.8235,-2.776 5.8236,-2.7761 -12.895,-0.4859 c -7.0923,-0.2673 -12.8951,-1.2032 -12.8951,-2.0799 0,-0.8766 1.8719,-1.5938 4.1597,-1.5938 7.9442,0 4.1055,-2.9047 -5.4076,-4.0919 -5.262,-0.6566 -12.5622,-2.1465 -16.2228,-3.3107 -6.5549,-2.0849 -6.4418,-2.1197 7.4875,-2.3002 34.0047,-0.4408 71.6551,-17.9074 91.9267,-42.6461 5.5864,-6.8175 4.9923,-6.7387 -6.2372,0.8281 -3.6605,2.4665 -10.7736,6.5345 -15.8068,9.0399 l -9.1513,4.5553 8.2568,-8.4912 c 4.5413,-4.6701 7.7528,-8.4911 7.1368,-8.4911 -0.6161,0 -8.4449,4.4348 -17.3975,9.8552 -8.9526,5.4204 -16.6054,9.5273 -17.0063,9.1264 -0.4009,-0.4009 1.8406,-3.4171 4.981,-6.7028 l 5.7098,-5.974 -15.8068,8.0627 c -20.4005,10.4059 -20.0447,10.3112 -13.7269,3.6525 5.2897,-5.5752 7.453,-10.0219 3.3277,-6.8401 -1.1439,0.8823 -7.321,3.9627 -13.727,6.8454 l -11.6471,5.2413 5.7607,-4.9778 c 6.8265,-5.8988 6.6966,-5.936 -5.7607,-1.6501 -13.2222,4.5491 -13.3205,4.2176 -0.8319,-2.806 14.0514,-7.9024 34.314,-28.3039 41.2369,-41.5196 2.9433,-5.6188 5.3516,-10.8384 5.3516,-11.599 0,-0.7606 -4.6797,3.1752 -10.3992,8.7463 -11.6505,11.3479 -27.9256,24.3831 -29.0454,23.2632 -0.4036,-0.4036 0.4997,-3.1192 2.0074,-6.0346 1.5076,-2.9155 2.3815,-5.6606 1.9418,-6.1003 -0.4397,-0.4396 -7.4207,3.9763 -15.5135,9.8131 -19.9523,14.3903 -20.3433,14.604 -16.794,9.1764 1.6014,-2.449 2.9117,-4.9695 2.9117,-5.6011 0,-0.6316 -1.3103,-0.023 -2.9117,1.3522 -6.7472,5.7944 -6.6957,4.2893 0.1921,-5.6163 6.9121,-9.9405 17.6945,-29.7331 17.6945,-32.4806 0,-0.6961 -1.8988,1.5287 -4.2197,4.9441 -2.3208,3.4154 -4.5277,6.2098 -4.9042,6.2098 -0.3765,0 1.4566,-4.6796 4.0735,-10.3992 2.6169,-5.7195 5.2131,-12.2711 5.7693,-14.5589 0.9209,-3.787 0.8222,-3.8812 -1.1016,-1.0506 -7.2153,10.6161 -7.8771,10.5655 -4.5233,-0.3455 1.7832,-5.8011 3.1852,-13.6629 3.1156,-17.4707 l -0.1266,-6.9232 -1.9533,5.2881 c -3.0226,8.1834 -3.6658,7.696 -3.0352,-2.2998 0.3201,-5.0734 -0.032,-13.4369 -0.7832,-18.5854 l -1.365,-9.3611 -0.9424,9.9833 c -0.8173,8.6591 -1.1067,9.3212 -2.1816,4.9916 -0.6816,-2.7454 -2.5258,-9.3513 -4.0981,-14.6797 l -2.8587,-9.6881 -0.1857,23.831 c -0.199,25.5433 -2.6891,41.0213 -10.1242,62.9321 -4.2347,12.4793 -8.5684,21.7268 -6.2379,13.311 0.6335,-2.2878 1.5057,-13.1472 1.9381,-24.132 0.8724,-22.1594 -2.2648,-40.1108 -10.11,-57.8501 -5.1782,-11.7089 -22.0074,-36.153 -24.8904,-36.153 -0.4534,0 2.0269,6.5515 5.5117,14.5589 3.4848,8.0074 6.8043,16.4308 7.3767,18.7186 l 1.0407,4.1597 -2.8523,-3.9054 c -6.7806,-9.2841 -12.2149,-15.5727 -12.2149,-14.1349 0,0.8535 3.7437,10.0208 8.3193,20.3716 4.5757,10.3509 8.3194,19.2111 8.3194,19.6894 0,0.4782 -2.9835,-2.4089 -6.63,-6.4159 l -6.63,-7.2854 5.8648,16.4895 c 3.2256,9.0693 6.2606,17.3055 6.7443,18.3027 0.4838,0.9971 -1.7925,-1.1195 -5.0583,-4.7037 -3.2659,-3.5842 -5.9379,-5.7744 -5.9379,-4.8671 0,0.9073 1.8702,7.1484 4.1561,13.8691 2.2858,6.7207 3.8767,12.4988 3.5353,12.8402 -0.3414,0.3415 -2.1991,-1.844 -4.1281,-4.8565 -3.9544,-6.1756 -4.2233,-5.3557 -1.7507,5.3378 2.7867,12.0519 4.3917,41.5969 2.2597,41.5969 -2.5743,0 -27.2163,-49.7788 -37.8889,-76.5383 -14.117,-35.3961 -23.1628,-68.3055 -28.8127,-104.8241 -3.4705,-22.4314 -3.9837,-79.5693 -0.8594,-95.6728 1.0653,-5.4908 2.1648,-12.0482 2.4433,-14.572 0.7425,-6.7279 3.002,-8.165 10.8615,-6.9082 6.5017,1.0397 7.1917,1.696 11.2198,10.6719 2.3607,5.2603 7.348,12.4646 11.0829,16.0098 6.0813,5.7723 6.4434,5.9242 3.4658,1.454 -5.802,-8.7106 -6.3438,-10.1914 -2.4926,-6.8136 4.8507,4.2547 4.5742,1.7315 -0.5459,-4.9814 -4.8218,-6.3217 -5.4015,-8.7417 -1.3088,-5.4635 2.1723,1.74 1.9592,0.7503 -0.8952,-4.1582 -3.1164,-5.359 -3.2764,-6.2616 -0.9517,-5.3695 2.1719,0.8334 2.3887,0.5834 0.973,-1.1223 -1.0017,-1.207 -1.6985,-3.8256 -1.5483,-5.819 l 0.273,-3.6244 5.6034,3.3061 c 3.0818,1.8183 8.7267,3.9966 12.5441,4.8406 l 6.9408,1.5345 -6.5951,-5.2992 c -12.3745,-9.943 -15.0353,-12.5035 -14.0355,-13.5062 0.5499,-0.5515 5.7406,0.2119 11.535,1.6964 12.1691,3.1175 23.4361,2.2187 34.7269,-2.7705 7.7877,-3.4413 8.7114,-6.1334 1.1132,-3.2446 -6.5956,2.5077 -9.0806,1.9774 -4.2822,-0.9137 3.1866,-1.9199 3.3812,-2.3139 0.832,-1.6839 -10.7026,2.6447 -13.2884,2.8965 -10.8152,1.0532 1.9148,-1.4271 0.9872,-1.5985 -3.9843,-0.7362 -4.7718,0.8276 -6.1605,0.607 -5.2681,-0.8369 0.8604,-1.3923 0.018,-1.6612 -2.9057,-0.9274 -6.7638,1.6975 -6.7391,-2.1893 0.036,-5.699 3.4641,-1.7944 8.8533,-5.1748 11.9761,-7.5121 l 5.6777,-4.2494 -114.5179,-0.055 c -112.4067,-0.054 -114.4653,0 -111.657,3.1062 z"
       id="path17" /></g></svg>
