<?xml version="1.0" encoding="UTF-8" standalone="no"?>
<svg
   xml:space="preserve"
   width="120"
   height="100"
   version="1.1"
   viewBox="0 0 120 100"
   id="speaker-icon-off"
   sodipodi:docname="speaker-icon-off.svg"
   inkscape:version="1.3.2 (091e20e, 2023-11-25, custom)"
   xmlns:inkscape="http://www.inkscape.org/namespaces/inkscape"
   xmlns:sodipodi="http://sodipodi.sourceforge.net/DTD/sodipodi-0.dtd"
   xmlns="http://www.w3.org/2000/svg"
   xmlns:svg="http://www.w3.org/2000/svg"><sodipodi:namedview
   id="namedview1"
   pagecolor="#ffffff"
   bordercolor="#111111"
   borderopacity="1"
   inkscape:showpageshadow="0"
   inkscape:pageopacity="0"
   inkscape:pagecheckerboard="1"
   inkscape:deskcolor="#d1d1d1"
   inkscape:zoom="3.5645649"
   inkscape:cx="39.976828"
   inkscape:cy="60.456186"
   inkscape:current-layer="speaker-icon-off"
   inkscape:window-width="1318"
   inkscape:window-height="699"
   inkscape:window-x="0"
   inkscape:window-y="0"
   inkscape:window-maximized="1" /><defs
   id="defs1" />
 
<path
   style="color:#000000;fill:none;stroke:#49bbaa;stroke-width:6;stroke-linejoin:round;stroke-dasharray:none;stroke-opacity:1"
   d="M 64.6089,5.1223403 C 63.117764,4.4405931 61.366012,4.6909756 60.125569,5.7631541 L 32.549298,29.612774 H 6.8978333 C 4.5829918,29.611999 2.7058821,31.48805 2.7053511,33.802891 v 32.005215 c 5.303e-4,2.314842 1.8776402,4.190893 4.1924822,4.190119 H 32.137853 l 27.987716,24.209041 c 2.714327,2.344595 6.928088,0.418141 6.930719,-3.168598 V 8.9317538 C 67.055618,7.2926146 66.099439,5.8043006 64.6089,5.1223403 Z"
   id="path1"
   sodipodi:nodetypes="cccccccccccc" /><path
   style="fill:none;stroke:#49bbaa;stroke-width:6;stroke-linecap:round;stroke-dasharray:none;stroke-opacity:1"
   d="m 99.147505,9.3199018 a 65.039256,65.039256 0 0 1 0,81.4666942"
   id="path4" /><path
   style="fill:none;stroke:#49bbaa;stroke-width:6;stroke-linecap:round;stroke-dasharray:none;stroke-opacity:1"
   d="m 88.251758,20.215654 a 50.288083,50.288083 0 0 1 0,59.675192"
   id="path3" /><path
   style="fill:none;stroke:#49bbaa;stroke-width:6;stroke-linecap:round;stroke-dasharray:none;stroke-opacity:1"
   d="m 76.350244,32.117167 a 32.687254,32.687254 0 0 1 0,35.872167"
   id="path2" /></svg>
