<?xml version="1.0" encoding="UTF-8" standalone="no"?>
<!-- Created with Inkscape (http://www.inkscape.org/) -->

<svg
   width="100"
   height="50"
   inkscape:version="1.3.2 (091e20e, 2023-11-25, custom)"
   sodipodi:docname="wanga-bat-logo.svg"
   xml:space="preserve"
   version="1.1"
   id="svg1"
   xmlns:inkscape="http://www.inkscape.org/namespaces/inkscape"
   xmlns:sodipodi="http://sodipodi.sourceforge.net/DTD/sodipodi-0.dtd"
   xmlns="http://www.w3.org/2000/svg"
   xmlns:svg="http://www.w3.org/2000/svg"><sodipodi:namedview
     id="namedview1"
     pagecolor="#ffffff"
     bordercolor="#111111"
     borderopacity="1"
     inkscape:showpageshadow="0"
     inkscape:pageopacity="0"
     inkscape:pagecheckerboard="1"
     inkscape:deskcolor="#d1d1d1"
     inkscape:document-units="mm"
     inkscape:zoom="6.8941942"
     inkscape:cx="78.616874"
     inkscape:cy="26.253975"
     inkscape:current-layer="g1" /><defs
     id="defs1"><inkscape:path-effect
       effect="fillet_chamfer"
       id="path-effect39"
       is_visible="true"
       lpeversion="1"
       nodesatellites_param="F,0,0,1,0,0,0,1 @ F,0,0,1,0,0,0,1 @ F,0,0,1,0,0,0,1 @ F,0,0,1,0,0,0,1 @ F,0,0,1,0,0,0,1 @ F,0,0,1,0,0,0,1"
       radius="0"
       unit="px"
       method="auto"
       mode="F"
       chamfer_steps="1"
       flexible="false"
       use_knot_distance="true"
       apply_no_radius="true"
       apply_with_radius="true"
       only_selected="false"
       hide_knots="false" /></defs><g
     inkscape:label="Layer 1"
     inkscape:groupmode="layer"
     id="layer1"><g
       id="g2"
       transform="matrix(0.09732707,0,0,0.09732707,0,15.987039)">
	<g
   id="g1"
   transform="translate(-25.0737,-223.30363)"><path
     d="m 228.29039,211.17848 c 26.1602,34.55395 16.4036,68.5229 12.84793,107.22117 l 35.71937,-5.84903 c 5.21101,-0.85373 10.21819,-1.28607 14.88169,-1.28607 17.12204,0 30.3685,5.63148 41.68539,17.72257 14.99321,16.01695 20.35688,35.10512 16.88165,60.07157 l -4.4359,31.86114 h 32.16826 c 36.87199,0 71.85828,15.7857 103.98542,46.91926 25.05968,24.28456 38.91581,49.24095 39.51725,50.3369 l 26.28849,52.62218 22.39946,-52.62218 c 0.60145,-1.09595 14.45758,-26.05234 39.51726,-50.33599 32.12622,-31.13447 67.11251,-46.92017 103.98541,-46.92017 h 32.16827 l -4.43682,-31.86114 c -3.47523,-24.96462 1.88844,-44.05279 16.88165,-60.07157 11.3178,-12.09201 24.56335,-17.72257 41.68539,-17.72257 4.6635,0 9.66976,0.43326 14.88169,1.28607 l 35.71937,5.84903 c -3.55658,-38.69827 -13.31227,-72.66813 12.84701,-107.22117 31.07141,-41.04189 129.06614,-43.04184 129.06614,-43.04184 -64.99559,-66.99917 -177.32631,-61.1867 -250.52642,-34.72396 -24.64926,8.9111 -52.58638,19.01048 -77.30603,37.4515 -16.29848,12.15873 -29.45902,27.90512 -39.34816,42.33162 -0.003,-17.13484 -0.005,-33.62527 -0.005,-33.62527 l 1.28263,-75.35671 -49.0812,55.56289 -11.84522,11.84522 c 0,0 -12.85305,-6.70104 -19.83038,-6.70104 -6.97732,0 -19.83038,6.70104 -19.83038,6.70104 l -11.84521,-11.84522 -47.78486,-54.91473 -0.0137,74.70855 c 0,0 -0.003,16.48952 -0.005,33.62527 -9.88914,-14.4265 -23.04967,-30.17289 -39.34815,-42.33162 -24.71965,-18.44102 -52.65768,-28.5404 -77.30604,-37.4515 -73.19919,-26.46366 -185.52991,-32.27704 -250.524567,34.72213 -9.14e-4,0.002 97.992887,2.00178 129.064287,43.04367 z m -37.30067,-62.88959 c 16.95477,-3.64707 34.10057,-4.96239 51.27746,-4.96239 6.72194,0 13.4512,0.20109 20.17132,0.54386 26.62728,1.35554 52.62386,6.77405 77.79231,15.87345 24.49296,8.85443 49.10293,17.91178 70.08319,33.56311 33.59145,25.05876 52.13941,69.95522 52.13941,69.95522 0,0 31.94798,-13.88812 31.94798,-17.23264 0,-16.2089 0.009,-66.4544 0.009,-66.4544 l 20.04701,20.0461 c 0,0 21.25003,-8.01234 32.35402,-7.93466 10.50567,0.0735 30.50267,7.93466 30.50267,7.93466 l 20.04701,-20.0461 c 0,0 0.009,50.24458 0.009,66.4544 0,3.3436 31.94798,17.23264 31.94798,17.23264 0,0 18.54796,-44.89554 52.13941,-69.95522 20.98026,-15.65133 45.59022,-24.70777 70.08319,-33.56311 25.16936,-9.09849 51.16594,-14.51699 77.79139,-15.87345 6.72195,-0.34277 13.45029,-0.54386 20.17133,-0.54386 17.17688,0 34.32269,1.31532 51.27746,4.96239 7.96688,1.71385 19.23167,5.94043 19.23167,5.94043 -14.89998,1.43872 -103.40499,21.40713 -103.40499,97.8896 0,10.83884 1.80983,21.68865 2.83082,32.80079 -6.6022,-1.08224 -13.08284,-1.65535 -19.40534,-1.65535 -23.31841,0 -44.52901,7.78682 -62.12727,26.58798 -21.87877,23.37325 -28.55776,51.5663 -24.17213,83.06639 -103.68835,0 -162.98571,102.67832 -167.84665,111.42032 -4.86093,-8.742 -64.15829,-111.42032 -167.84664,-111.42032 4.38563,-31.50009 -2.29427,-59.69223 -24.17213,-83.06639 -17.59826,-18.80116 -38.80886,-26.58798 -62.12727,-26.58798 -6.3225,0 -12.80405,0.57311 -19.40626,1.65535 1.021,-11.11214 2.83082,-21.96104 2.83082,-32.80079 0,-76.48247 -88.50501,-96.45088 -103.40499,-97.8896 -0.003,-9.1e-4 11.26296,-4.22749 19.22894,-5.94043 z"
     id="path1"
     sodipodi:nodetypes="cccscccssccccsccssccccsscccccacccccsscccsccccsccaccsccccsscscscccccscscc"
     style="fill:#ffffe0;fill-opacity:1;stroke-width:0.914053" /></g>
</g></g></svg>
