<?xml version="1.0" encoding="UTF-8" standalone="no"?>
<!-- Created with Inkscape (http://www.inkscape.org/) -->

<svg
   width="100"
   height="100"
   version="1.1"
   id="volume-plus-icon"
   inkscape:version="1.3.2 (091e20e, 2023-11-25, custom)"
   sodipodi:docname="volume-minus-icon.svg"
   xml:space="preserve"
   xmlns:inkscape="http://www.inkscape.org/namespaces/inkscape"
   xmlns:sodipodi="http://sodipodi.sourceforge.net/DTD/sodipodi-0.dtd"
   xmlns="http://www.w3.org/2000/svg"
   xmlns:svg="http://www.w3.org/2000/svg"><sodipodi:namedview
     id="namedview1"
     pagecolor="#ffffff"
     bordercolor="#111111"
     borderopacity="1"
     inkscape:showpageshadow="0"
     inkscape:pageopacity="0"
     inkscape:pagecheckerboard="1"
     inkscape:deskcolor="#d1d1d1"
     inkscape:document-units="px"
     inkscape:zoom="2.4781911"
     inkscape:cx="-2.2193607"
     inkscape:cy="95.83603"
     inkscape:current-layer="layer1"
     inkscape:window-width="1314"
     inkscape:window-height="679"
     inkscape:window-x="26"
     inkscape:window-y="23"
     inkscape:window-maximized="0" /><defs
     id="defs1"><inkscape:path-effect
       effect="fillet_chamfer"
       id="path-effect39"
       is_visible="true"
       lpeversion="1"
       nodesatellites_param="F,0,0,1,0,0,0,1 @ F,0,0,1,0,0,0,1 @ F,0,0,1,0,0,0,1 @ F,0,0,1,0,0,0,1 @ F,0,0,1,0,0,0,1 @ F,0,0,1,0,0,0,1"
       radius="0"
       unit="px"
       method="auto"
       mode="F"
       chamfer_steps="1"
       flexible="false"
       use_knot_distance="true"
       apply_no_radius="true"
       apply_with_radius="true"
       only_selected="false"
       hide_knots="false" /></defs><g
     inkscape:label="Layer 1"
     inkscape:groupmode="layer"
     id="layer1"><circle
       style="opacity:0.85;fill:#ffff00;fill-rule:evenodd;stroke:#ffff00;stroke-linecap:round;stroke-linejoin:round;paint-order:stroke fill markers"
       id="path2"
       cx="-45.320221"
       cy="24.948265"
       r="3.3953261" /><circle
       style="opacity:0.85;fill:#f7b733;fill-opacity:1;fill-rule:evenodd;stroke:#ffff00;stroke-linecap:round;stroke-linejoin:round;paint-order:stroke fill markers"
       id="path3"
       cx="-44.13924"
       cy="40.891537"
       r="3.6905718" /><circle
       style="fill:#49bbaa;fill-opacity:1"
       id="path4"
       cx="-46.26593"
       cy="8.2392015"
       r="4.056169" /><g
       id="g1"
       transform="translate(0.2576567,0.47091967)"
       style="opacity:0.65"><path
         d="M 49.742343,-0.47091933 A 50,50 0 0 0 -0.2576564,49.52908 a 50,50 0 0 0 49.9999994,50 50,50 0 0 0 50,-50 50,50 0 0 0 -50,-49.99999933 z m 0,5.00000003 a 45,45 0 0 1 45,44.9999993 45,45 0 0 1 -45,45 45,45 0 0 1 -44.9999994,-45 A 45,45 0 0 1 49.742343,4.5290807 Z"
         style="fill:#49bbaa;stroke-width:8.48852"
         id="path1" /><rect
         style="fill:#49bbaa;fill-opacity:1;stroke:none;stroke-width:4.68686"
         id="rect1"
         width="50"
         height="7.8380966"
         x="24.742344"
         y="45.610031"
         ry="3.9190483" /></g></g></svg>
