<?xml version="1.0" encoding="UTF-8" standalone="no"?>
<!-- Created with Inkscape (http://www.inkscape.org/) -->

<svg
   width="100"
   height="100"
   version="1.1"
   id="volume-plus-icon"
   inkscape:version="1.3.2 (091e20e, 2023-11-25, custom)"
   sodipodi:docname="volume-plus-icon.svg"
   xml:space="preserve"
   xmlns:inkscape="http://www.inkscape.org/namespaces/inkscape"
   xmlns:sodipodi="http://sodipodi.sourceforge.net/DTD/sodipodi-0.dtd"
   xmlns="http://www.w3.org/2000/svg"
   xmlns:svg="http://www.w3.org/2000/svg"><sodipodi:namedview
     id="namedview1"
     pagecolor="#ffffff"
     bordercolor="#111111"
     borderopacity="1"
     inkscape:showpageshadow="0"
     inkscape:pageopacity="0"
     inkscape:pagecheckerboard="1"
     inkscape:deskcolor="#d1d1d1"
     inkscape:document-units="px"
     inkscape:zoom="4.9563823"
     inkscape:cx="42.571373"
     inkscape:cy="32.98777"
     inkscape:current-layer="layer1"
     inkscape:window-width="1318"
     inkscape:window-height="699"
     inkscape:window-x="0"
     inkscape:window-y="0"
     inkscape:window-maximized="1" /><defs
     id="defs1"><inkscape:path-effect
       effect="fillet_chamfer"
       id="path-effect39"
       is_visible="true"
       lpeversion="1"
       nodesatellites_param="F,0,0,1,0,0,0,1 @ F,0,0,1,0,0,0,1 @ F,0,0,1,0,0,0,1 @ F,0,0,1,0,0,0,1 @ F,0,0,1,0,0,0,1 @ F,0,0,1,0,0,0,1"
       radius="0"
       unit="px"
       method="auto"
       mode="F"
       chamfer_steps="1"
       flexible="false"
       use_knot_distance="true"
       apply_no_radius="true"
       apply_with_radius="true"
       only_selected="false"
       hide_knots="false" /></defs><g
     inkscape:label="Layer 1"
     inkscape:groupmode="layer"
     id="layer1"><circle
       style="opacity:0.85;fill:#ffff00;fill-rule:evenodd;stroke:#ffff00;stroke-linecap:round;stroke-linejoin:round;paint-order:stroke fill markers"
       id="path2"
       cx="-45.320221"
       cy="24.948265"
       r="3.3953261" /><circle
       style="opacity:0.85;fill:#f7b733;fill-opacity:1;fill-rule:evenodd;stroke:#ffff00;stroke-linecap:round;stroke-linejoin:round;paint-order:stroke fill markers"
       id="path3"
       cx="-44.13924"
       cy="40.891537"
       r="3.6905718" /><circle
       style="fill:#49bbaa;fill-opacity:1"
       id="path4"
       cx="-46.26593"
       cy="8.2392015"
       r="4.056169" /><g
       id="g2"
       style="opacity:0.65"><path
         d="M 50,3.4e-7 A 50,50 0 0 0 3e-7,50 50,50 0 0 0 50,100 50,50 0 0 0 100,50 50,50 0 0 0 50,3.4e-7 Z M 50,5.0000004 A 45,45 0 0 1 95,50 45,45 0 0 1 50,95 45,45 0 0 1 5.0000003,50 45,45 0 0 1 50,5.0000004 Z"
         style="fill:#49bbaa;stroke-width:8.48852"
         id="path1-5" /><g
         id="g1"><rect
           style="fill:#49bbaa;fill-opacity:1;stroke:none;stroke-width:4.68686"
           id="rect1-3"
           width="50"
           height="7.8380966"
           x="25"
           y="46.080952"
           ry="3.9190483" /><rect
           style="fill:#49bbaa;fill-opacity:1;stroke:none;stroke-width:4.68686"
           id="rect1"
           width="50"
           height="7.8380966"
           x="25"
           y="-53.919048"
           ry="3.9190483"
           transform="rotate(90)" /></g></g></g></svg>
