<?xml version="1.0" encoding="UTF-8" standalone="no"?>
<svg
   version="1.0"
   width="100px"
   height="100px"
   id="votes-icon"
   sodipodi:docname="votes-icon.svg"
   inkscape:version="1.3.1 (9b9bdc1480, 2023-11-25, custom)"
   xml:space="preserve"
   xmlns:inkscape="http://www.inkscape.org/namespaces/inkscape"
   xmlns:sodipodi="http://sodipodi.sourceforge.net/DTD/sodipodi-0.dtd"
   xmlns="http://www.w3.org/2000/svg"
   xmlns:svg="http://www.w3.org/2000/svg"><defs
     id="defs2" /><sodipodi:namedview
     id="namedview2"
     pagecolor="#ffffff"
     bordercolor="#111111"
     borderopacity="1"
     inkscape:showpageshadow="0"
     inkscape:pageopacity="0"
     inkscape:pagecheckerboard="1"
     inkscape:deskcolor="#d1d1d1"
     inkscape:zoom="2.544235"
     inkscape:cx="26.530568"
     inkscape:cy="75.857773"
     inkscape:current-layer="g2"
     inkscape:window-width="1318"
     inkscape:window-height="699"
     inkscape:window-x="0"
     inkscape:window-y="0"
     inkscape:window-maximized="1" /><metadata
     id="metadata1" /><g
     transform="matrix(0.1,0,0,-0.1,-627.94301,668.07594)"
     fill="#000000"
     stroke="none"
     id="g2"><circle
       style="opacity:0;fill:#313043;fill-rule:evenodd;stroke-width:2.34946;stroke-linecap:round;stroke-linejoin:round;paint-order:stroke fill markers;fill-opacity:1"
       id="path2"
       cx="6779.4302"
       cy="-6180.7593"
       transform="scale(1,-1)"
       r="500" /><g
       id="g16"
       transform="matrix(2.7711707,0,0,2.3585842,-12010.117,-7904.325)"
       style="fill:#49bbaa;fill-opacity:1"><g
         id="g15"
         style="fill:#49bbaa;fill-opacity:1"><path
           style="fill:#49bbaa;fill-opacity:1;stroke-width:0.168967"
           d="m 6902.034,5943.2387 c 1.4209,1.421 2.1542,3.702 1.6295,5.0691 -0.8273,2.1562 -17.2526,2.4855 -123.9379,2.4855 -114.8518,0 -123.0579,-0.1924 -124.1015,-2.9123 -2.7393,-7.1383 -1.2381,-7.2256 124.3038,-7.2256 104.995,0 119.8366,0.3141 122.1061,2.5833 z"
           id="path5" /><path
           style="fill:#49bbaa;fill-opacity:1;stroke-width:0.168967"
           d="m 6925.8334,5919.2903 c 1.9176,1.402 2.7185,3.3676 2.0657,5.0689 -0.9782,2.5492 -13.2215,2.7789 -148.1735,2.7789 -134.9518,0 -147.195,-0.2297 -148.1733,-2.7789 -2.8219,-7.3539 -2.7181,-7.3592 148.1733,-7.3592 117.6431,0 143.5308,0.4058 146.1078,2.2903 z"
           id="path4" /></g></g><path
       d="m 7179.8365,-5725.2822 h 73.983 l 75.7034,210.6698 75.5124,-210.6698 h 73.9829 l -105.7172,285.4175 h -87.7473 z m 460.5295,48.175 q -33.646,0 -52.1895,24.8521 -18.5435,24.8522 -18.5435,69.9684 0,44.925 18.5435,69.7772 18.5435,24.8522 52.1895,24.8522 33.8372,0 52.3807,-24.8522 18.5435,-24.8522 18.5435,-69.7772 0,-45.1162 -18.5435,-69.9684 -18.5435,-24.8521 -52.3807,-24.8521 z m 0,-53.3366 q 68.8214,0 107.8201,39.3811 38.9988,39.3811 38.9988,108.776 0,69.2037 -38.9988,108.5848 -38.9987,39.3811 -107.8201,39.3811 -68.6302,0 -107.8201,-39.3811 -38.9988,-39.3811 -38.9988,-108.5848 0,-69.3949 38.9988,-108.776 39.1899,-39.3811 107.8201,-39.3811 z m 168.4212,5.1616 h 263.0505 v 55.6306 h -94.6294 v 229.7869 h -73.6006 v -229.7869 h -94.8205 z m 301.0934,0 h 198.626 v 55.6306 h -125.0254 v 53.1454 h 117.5698 v 55.6306 h -117.5698 v 65.3803 h 129.2312 v 55.6306 h -202.8318 z"
       id="text1"
       style="font-weight:bold;font-size:391.517px;font-family:Roboto;-inkscape-font-specification:'Roboto, Bold';fill:#49bbaa;fill-rule:evenodd;stroke-width:37.0304;stroke-linecap:round;stroke-linejoin:round;paint-order:stroke fill markers"
       transform="scale(0.87547399,-1.1422384)"
       aria-label="VOTE" /></g></svg>
